<?xml version="1.0" encoding="utf-8" standalone="no"?>
<!DOCTYPE svg PUBLIC "-//W3C//DTD SVG 1.1//EN"
  "http://www.w3.org/Graphics/SVG/1.1/DTD/svg11.dtd">
<!-- Created with matplotlib (https://matplotlib.org/) -->
<svg height="345.6pt" version="1.1" viewBox="0 0 460.8 345.6" width="460.8pt" xmlns="http://www.w3.org/2000/svg" xmlns:xlink="http://www.w3.org/1999/xlink">
 <defs>
  <style type="text/css">
*{stroke-linecap:butt;stroke-linejoin:round;}
  </style>
 </defs>
 <g id="figure_1">
  <g id="patch_1">
   <path d="M 0 345.6 
L 460.8 345.6 
L 460.8 0 
L 0 0 
z
" style="fill:#ffffff;"/>
  </g>
  <g id="axes_1">
   <g id="patch_2">
    <path d="M 57.6 307.584 
L 414.72 307.584 
L 414.72 41.472 
L 57.6 41.472 
z
" style="fill:#ffffff;"/>
   </g>
   <g id="matplotlib.axis_1">
    <g id="xtick_1">
     <g id="line2d_1">
      <path clip-path="url(#pc0e184a6a8)" d="M 73.832727 307.584 
L 73.832727 41.472 
" style="fill:none;stroke:#b0b0b0;stroke-linecap:square;stroke-width:0.8;"/>
     </g>
     <g id="line2d_2">
      <defs>
       <path d="M 0 0 
L 0 3.5 
" id="m7897f56d31" style="stroke:#000000;stroke-width:0.8;"/>
      </defs>
      <g>
       <use style="stroke:#000000;stroke-width:0.8;" x="73.832727" xlink:href="#m7897f56d31" y="307.584"/>
      </g>
     </g>
     <g id="text_1">
      <!-- 0 -->
      <defs>
       <path d="M 31.78125 66.40625 
Q 24.171875 66.40625 20.328125 58.90625 
Q 16.5 51.421875 16.5 36.375 
Q 16.5 21.390625 20.328125 13.890625 
Q 24.171875 6.390625 31.78125 6.390625 
Q 39.453125 6.390625 43.28125 13.890625 
Q 47.125 21.390625 47.125 36.375 
Q 47.125 51.421875 43.28125 58.90625 
Q 39.453125 66.40625 31.78125 66.40625 
z
M 31.78125 74.21875 
Q 44.046875 74.21875 50.515625 64.515625 
Q 56.984375 54.828125 56.984375 36.375 
Q 56.984375 17.96875 50.515625 8.265625 
Q 44.046875 -1.421875 31.78125 -1.421875 
Q 19.53125 -1.421875 13.0625 8.265625 
Q 6.59375 17.96875 6.59375 36.375 
Q 6.59375 54.828125 13.0625 64.515625 
Q 19.53125 74.21875 31.78125 74.21875 
z
" id="DejaVuSans-48"/>
      </defs>
      <g transform="translate(70.651477 322.182437)scale(0.1 -0.1)">
       <use xlink:href="#DejaVuSans-48"/>
      </g>
     </g>
    </g>
    <g id="xtick_2">
     <g id="line2d_3">
      <path clip-path="url(#pc0e184a6a8)" d="M 138.763636 307.584 
L 138.763636 41.472 
" style="fill:none;stroke:#b0b0b0;stroke-linecap:square;stroke-width:0.8;"/>
     </g>
     <g id="line2d_4">
      <g>
       <use style="stroke:#000000;stroke-width:0.8;" x="138.763636" xlink:href="#m7897f56d31" y="307.584"/>
      </g>
     </g>
     <g id="text_2">
      <!-- 10 -->
      <defs>
       <path d="M 12.40625 8.296875 
L 28.515625 8.296875 
L 28.515625 63.921875 
L 10.984375 60.40625 
L 10.984375 69.390625 
L 28.421875 72.90625 
L 38.28125 72.90625 
L 38.28125 8.296875 
L 54.390625 8.296875 
L 54.390625 0 
L 12.40625 0 
z
" id="DejaVuSans-49"/>
      </defs>
      <g transform="translate(132.401136 322.182437)scale(0.1 -0.1)">
       <use xlink:href="#DejaVuSans-49"/>
       <use x="63.623047" xlink:href="#DejaVuSans-48"/>
      </g>
     </g>
    </g>
    <g id="xtick_3">
     <g id="line2d_5">
      <path clip-path="url(#pc0e184a6a8)" d="M 203.694545 307.584 
L 203.694545 41.472 
" style="fill:none;stroke:#b0b0b0;stroke-linecap:square;stroke-width:0.8;"/>
     </g>
     <g id="line2d_6">
      <g>
       <use style="stroke:#000000;stroke-width:0.8;" x="203.694545" xlink:href="#m7897f56d31" y="307.584"/>
      </g>
     </g>
     <g id="text_3">
      <!-- 20 -->
      <defs>
       <path d="M 19.1875 8.296875 
L 53.609375 8.296875 
L 53.609375 0 
L 7.328125 0 
L 7.328125 8.296875 
Q 12.9375 14.109375 22.625 23.890625 
Q 32.328125 33.6875 34.8125 36.53125 
Q 39.546875 41.84375 41.421875 45.53125 
Q 43.3125 49.21875 43.3125 52.78125 
Q 43.3125 58.59375 39.234375 62.25 
Q 35.15625 65.921875 28.609375 65.921875 
Q 23.96875 65.921875 18.8125 64.3125 
Q 13.671875 62.703125 7.8125 59.421875 
L 7.8125 69.390625 
Q 13.765625 71.78125 18.9375 73 
Q 24.125 74.21875 28.421875 74.21875 
Q 39.75 74.21875 46.484375 68.546875 
Q 53.21875 62.890625 53.21875 53.421875 
Q 53.21875 48.921875 51.53125 44.890625 
Q 49.859375 40.875 45.40625 35.40625 
Q 44.1875 33.984375 37.640625 27.21875 
Q 31.109375 20.453125 19.1875 8.296875 
z
" id="DejaVuSans-50"/>
      </defs>
      <g transform="translate(197.332045 322.182437)scale(0.1 -0.1)">
       <use xlink:href="#DejaVuSans-50"/>
       <use x="63.623047" xlink:href="#DejaVuSans-48"/>
      </g>
     </g>
    </g>
    <g id="xtick_4">
     <g id="line2d_7">
      <path clip-path="url(#pc0e184a6a8)" d="M 268.625455 307.584 
L 268.625455 41.472 
" style="fill:none;stroke:#b0b0b0;stroke-linecap:square;stroke-width:0.8;"/>
     </g>
     <g id="line2d_8">
      <g>
       <use style="stroke:#000000;stroke-width:0.8;" x="268.625455" xlink:href="#m7897f56d31" y="307.584"/>
      </g>
     </g>
     <g id="text_4">
      <!-- 30 -->
      <defs>
       <path d="M 40.578125 39.3125 
Q 47.65625 37.796875 51.625 33 
Q 55.609375 28.21875 55.609375 21.1875 
Q 55.609375 10.40625 48.1875 4.484375 
Q 40.765625 -1.421875 27.09375 -1.421875 
Q 22.515625 -1.421875 17.65625 -0.515625 
Q 12.796875 0.390625 7.625 2.203125 
L 7.625 11.71875 
Q 11.71875 9.328125 16.59375 8.109375 
Q 21.484375 6.890625 26.8125 6.890625 
Q 36.078125 6.890625 40.9375 10.546875 
Q 45.796875 14.203125 45.796875 21.1875 
Q 45.796875 27.640625 41.28125 31.265625 
Q 36.765625 34.90625 28.71875 34.90625 
L 20.21875 34.90625 
L 20.21875 43.015625 
L 29.109375 43.015625 
Q 36.375 43.015625 40.234375 45.921875 
Q 44.09375 48.828125 44.09375 54.296875 
Q 44.09375 59.90625 40.109375 62.90625 
Q 36.140625 65.921875 28.71875 65.921875 
Q 24.65625 65.921875 20.015625 65.03125 
Q 15.375 64.15625 9.8125 62.3125 
L 9.8125 71.09375 
Q 15.4375 72.65625 20.34375 73.4375 
Q 25.25 74.21875 29.59375 74.21875 
Q 40.828125 74.21875 47.359375 69.109375 
Q 53.90625 64.015625 53.90625 55.328125 
Q 53.90625 49.265625 50.4375 45.09375 
Q 46.96875 40.921875 40.578125 39.3125 
z
" id="DejaVuSans-51"/>
      </defs>
      <g transform="translate(262.262955 322.182437)scale(0.1 -0.1)">
       <use xlink:href="#DejaVuSans-51"/>
       <use x="63.623047" xlink:href="#DejaVuSans-48"/>
      </g>
     </g>
    </g>
    <g id="xtick_5">
     <g id="line2d_9">
      <path clip-path="url(#pc0e184a6a8)" d="M 333.556364 307.584 
L 333.556364 41.472 
" style="fill:none;stroke:#b0b0b0;stroke-linecap:square;stroke-width:0.8;"/>
     </g>
     <g id="line2d_10">
      <g>
       <use style="stroke:#000000;stroke-width:0.8;" x="333.556364" xlink:href="#m7897f56d31" y="307.584"/>
      </g>
     </g>
     <g id="text_5">
      <!-- 40 -->
      <defs>
       <path d="M 37.796875 64.3125 
L 12.890625 25.390625 
L 37.796875 25.390625 
z
M 35.203125 72.90625 
L 47.609375 72.90625 
L 47.609375 25.390625 
L 58.015625 25.390625 
L 58.015625 17.1875 
L 47.609375 17.1875 
L 47.609375 0 
L 37.796875 0 
L 37.796875 17.1875 
L 4.890625 17.1875 
L 4.890625 26.703125 
z
" id="DejaVuSans-52"/>
      </defs>
      <g transform="translate(327.193864 322.182437)scale(0.1 -0.1)">
       <use xlink:href="#DejaVuSans-52"/>
       <use x="63.623047" xlink:href="#DejaVuSans-48"/>
      </g>
     </g>
    </g>
    <g id="xtick_6">
     <g id="line2d_11">
      <path clip-path="url(#pc0e184a6a8)" d="M 398.487273 307.584 
L 398.487273 41.472 
" style="fill:none;stroke:#b0b0b0;stroke-linecap:square;stroke-width:0.8;"/>
     </g>
     <g id="line2d_12">
      <g>
       <use style="stroke:#000000;stroke-width:0.8;" x="398.487273" xlink:href="#m7897f56d31" y="307.584"/>
      </g>
     </g>
     <g id="text_6">
      <!-- 50 -->
      <defs>
       <path d="M 10.796875 72.90625 
L 49.515625 72.90625 
L 49.515625 64.59375 
L 19.828125 64.59375 
L 19.828125 46.734375 
Q 21.96875 47.46875 24.109375 47.828125 
Q 26.265625 48.1875 28.421875 48.1875 
Q 40.625 48.1875 47.75 41.5 
Q 54.890625 34.8125 54.890625 23.390625 
Q 54.890625 11.625 47.5625 5.09375 
Q 40.234375 -1.421875 26.90625 -1.421875 
Q 22.3125 -1.421875 17.546875 -0.640625 
Q 12.796875 0.140625 7.71875 1.703125 
L 7.71875 11.625 
Q 12.109375 9.234375 16.796875 8.0625 
Q 21.484375 6.890625 26.703125 6.890625 
Q 35.15625 6.890625 40.078125 11.328125 
Q 45.015625 15.765625 45.015625 23.390625 
Q 45.015625 31 40.078125 35.4375 
Q 35.15625 39.890625 26.703125 39.890625 
Q 22.75 39.890625 18.8125 39.015625 
Q 14.890625 38.140625 10.796875 36.28125 
z
" id="DejaVuSans-53"/>
      </defs>
      <g transform="translate(392.124773 322.182437)scale(0.1 -0.1)">
       <use xlink:href="#DejaVuSans-53"/>
       <use x="63.623047" xlink:href="#DejaVuSans-48"/>
      </g>
     </g>
    </g>
    <g id="text_7">
     <!-- t -->
     <defs>
      <path d="M 18.3125 70.21875 
L 18.3125 54.6875 
L 36.8125 54.6875 
L 36.8125 47.703125 
L 18.3125 47.703125 
L 18.3125 18.015625 
Q 18.3125 11.328125 20.140625 9.421875 
Q 21.96875 7.515625 27.59375 7.515625 
L 36.8125 7.515625 
L 36.8125 0 
L 27.59375 0 
Q 17.1875 0 13.234375 3.875 
Q 9.28125 7.765625 9.28125 18.015625 
L 9.28125 47.703125 
L 2.6875 47.703125 
L 2.6875 54.6875 
L 9.28125 54.6875 
L 9.28125 70.21875 
z
" id="DejaVuSans-116"/>
     </defs>
     <g transform="translate(234.199844 335.860562)scale(0.1 -0.1)">
      <use xlink:href="#DejaVuSans-116"/>
     </g>
    </g>
   </g>
   <g id="matplotlib.axis_2">
    <g id="ytick_1">
     <g id="line2d_13">
      <path clip-path="url(#pc0e184a6a8)" d="M 57.6 282.854785 
L 414.72 282.854785 
" style="fill:none;stroke:#b0b0b0;stroke-linecap:square;stroke-width:0.8;"/>
     </g>
     <g id="line2d_14">
      <defs>
       <path d="M 0 0 
L -3.5 0 
" id="mbeedfbdb92" style="stroke:#000000;stroke-width:0.8;"/>
      </defs>
      <g>
       <use style="stroke:#000000;stroke-width:0.8;" x="57.6" xlink:href="#mbeedfbdb92" y="282.854785"/>
      </g>
     </g>
     <g id="text_8">
      <!-- −4 -->
      <defs>
       <path d="M 10.59375 35.5 
L 73.1875 35.5 
L 73.1875 27.203125 
L 10.59375 27.203125 
z
" id="DejaVuSans-8722"/>
      </defs>
      <g transform="translate(35.857813 286.654004)scale(0.1 -0.1)">
       <use xlink:href="#DejaVuSans-8722"/>
       <use x="83.789062" xlink:href="#DejaVuSans-52"/>
      </g>
     </g>
    </g>
    <g id="ytick_2">
     <g id="line2d_15">
      <path clip-path="url(#pc0e184a6a8)" d="M 57.6 228.691738 
L 414.72 228.691738 
" style="fill:none;stroke:#b0b0b0;stroke-linecap:square;stroke-width:0.8;"/>
     </g>
     <g id="line2d_16">
      <g>
       <use style="stroke:#000000;stroke-width:0.8;" x="57.6" xlink:href="#mbeedfbdb92" y="228.691738"/>
      </g>
     </g>
     <g id="text_9">
      <!-- −2 -->
      <g transform="translate(35.857813 232.490957)scale(0.1 -0.1)">
       <use xlink:href="#DejaVuSans-8722"/>
       <use x="83.789062" xlink:href="#DejaVuSans-50"/>
      </g>
     </g>
    </g>
    <g id="ytick_3">
     <g id="line2d_17">
      <path clip-path="url(#pc0e184a6a8)" d="M 57.6 174.528691 
L 414.72 174.528691 
" style="fill:none;stroke:#b0b0b0;stroke-linecap:square;stroke-width:0.8;"/>
     </g>
     <g id="line2d_18">
      <g>
       <use style="stroke:#000000;stroke-width:0.8;" x="57.6" xlink:href="#mbeedfbdb92" y="174.528691"/>
      </g>
     </g>
     <g id="text_10">
      <!-- 0 -->
      <g transform="translate(44.2375 178.32791)scale(0.1 -0.1)">
       <use xlink:href="#DejaVuSans-48"/>
      </g>
     </g>
    </g>
    <g id="ytick_4">
     <g id="line2d_19">
      <path clip-path="url(#pc0e184a6a8)" d="M 57.6 120.365644 
L 414.72 120.365644 
" style="fill:none;stroke:#b0b0b0;stroke-linecap:square;stroke-width:0.8;"/>
     </g>
     <g id="line2d_20">
      <g>
       <use style="stroke:#000000;stroke-width:0.8;" x="57.6" xlink:href="#mbeedfbdb92" y="120.365644"/>
      </g>
     </g>
     <g id="text_11">
      <!-- 2 -->
      <g transform="translate(44.2375 124.164863)scale(0.1 -0.1)">
       <use xlink:href="#DejaVuSans-50"/>
      </g>
     </g>
    </g>
    <g id="ytick_5">
     <g id="line2d_21">
      <path clip-path="url(#pc0e184a6a8)" d="M 57.6 66.202598 
L 414.72 66.202598 
" style="fill:none;stroke:#b0b0b0;stroke-linecap:square;stroke-width:0.8;"/>
     </g>
     <g id="line2d_22">
      <g>
       <use style="stroke:#000000;stroke-width:0.8;" x="57.6" xlink:href="#mbeedfbdb92" y="66.202598"/>
      </g>
     </g>
     <g id="text_12">
      <!-- 4 -->
      <g transform="translate(44.2375 70.001816)scale(0.1 -0.1)">
       <use xlink:href="#DejaVuSans-52"/>
      </g>
     </g>
    </g>
   </g>
   <g id="line2d_23">
    <path clip-path="url(#pc0e184a6a8)" d="M 73.832727 92.157729 
L 74.644364 92.264029 
L 75.456 92.591234 
L 76.267636 93.164912 
L 77.079273 94.029795 
L 77.890909 95.25305 
L 78.702545 96.929001 
L 79.514182 99.185247 
L 80.325818 102.189771 
L 81.137455 106.157555 
L 81.949091 111.352974 
L 82.760727 118.07971 
L 83.572364 126.642815 
L 84.546327 139.636794 
L 85.682618 158.345119 
L 88.766836 212.106304 
L 89.7408 224.530301 
L 90.714764 234.055299 
L 91.5264 240.090105 
L 92.338036 244.726414 
L 93.149673 248.253707 
L 93.961309 250.915534 
L 94.772945 252.906158 
L 95.584582 254.375441 
L 96.396218 255.435957 
L 97.207855 256.169771 
L 98.019491 256.633986 
L 98.831127 256.864837 
L 99.642764 256.880372 
L 100.4544 256.681804 
L 101.266036 256.253609 
L 102.077673 255.562353 
L 102.889309 254.554214 
L 103.700945 253.151099 
L 104.512582 251.245307 
L 105.324218 248.692897 
L 106.135855 245.306518 
L 106.947491 240.849932 
L 107.759127 235.039581 
L 108.570764 227.564204 
L 109.3824 218.14112 
L 110.356364 204.084167 
L 111.654982 181.463868 
L 113.765236 143.944111 
L 114.7392 130.084591 
L 115.713164 119.213444 
L 116.687127 111.039651 
L 117.498764 105.917208 
L 118.3104 102.007115 
L 119.122036 99.047541 
L 119.933673 96.826138 
L 120.745309 95.177262 
L 121.556945 93.975263 
L 122.368582 93.127413 
L 123.180218 92.567848 
L 123.991855 92.25293 
L 124.803491 92.158052 
L 125.615127 92.275792 
L 126.426764 92.615359 
L 127.2384 93.203284 
L 128.050036 94.085401 
L 128.861673 95.330196 
L 129.673309 97.033604 
L 130.484945 99.3252 
L 131.296582 102.375325 
L 132.108218 106.401606 
L 132.919855 111.670939 
L 133.731491 118.488379 
L 134.543127 127.157133 
L 135.517091 140.285355 
L 136.653382 159.118977 
L 139.7376 212.724064 
L 140.711564 225.013839 
L 141.685527 234.418331 
L 142.497164 240.370523 
L 143.3088 244.940595 
L 144.120436 248.415919 
L 144.932073 251.037381 
L 145.743709 252.996712 
L 146.555345 254.441598 
L 147.366982 255.482818 
L 148.178618 256.200976 
L 148.990255 256.651967 
L 149.801891 256.871 
L 150.613527 256.875198 
L 151.425164 256.664889 
L 152.2368 256.223631 
L 153.048436 255.516974 
L 153.860073 254.489908 
L 154.671709 253.062903 
L 155.483345 251.126496 
L 156.294982 248.534602 
L 157.106618 245.097358 
L 157.918255 240.575856 
L 158.729891 234.684322 
L 159.541527 227.11117 
L 160.353164 217.57788 
L 161.327127 203.389846 
L 162.625745 180.660252 
L 164.736 143.263354 
L 165.709964 129.536471 
L 166.683927 118.794757 
L 167.657891 110.729835 
L 168.469527 105.67969 
L 169.281164 101.826691 
L 170.0928 98.911581 
L 170.904436 96.724643 
L 171.716073 95.102557 
L 172.527709 93.921612 
L 173.339345 93.090656 
L 174.150982 92.545123 
L 174.962618 92.242463 
L 175.774255 92.159024 
L 176.585891 92.28828 
L 177.397527 92.640339 
L 178.209164 93.242705 
L 179.0208 94.142332 
L 179.832436 95.409044 
L 180.644073 97.140413 
L 181.455709 99.468019 
L 182.267345 102.564593 
L 183.078982 106.650427 
L 183.890618 111.994924 
L 184.702255 118.904408 
L 185.513891 127.679975 
L 186.487855 140.942913 
L 187.624145 159.899922 
L 190.546036 211.01894 
L 191.52 223.67639 
L 192.493964 233.41293 
L 193.3056 239.593411 
L 194.117236 244.346773 
L 194.928873 247.966012 
L 195.740509 250.69928 
L 196.552145 252.74528 
L 197.363782 254.257706 
L 198.175418 255.352292 
L 198.987055 256.113682 
L 199.798691 256.601099 
L 200.610327 256.852583 
L 201.421964 256.887792 
L 202.2336 256.709479 
L 203.045236 256.303702 
L 203.856873 255.638772 
L 204.668509 254.662899 
L 205.480145 253.300443 
L 206.291782 251.446711 
L 207.103418 248.961426 
L 207.915055 245.661543 
L 208.726691 241.315461 
L 209.538327 235.643571 
L 210.349964 228.335542 
L 211.1616 219.102254 
L 212.135564 205.273881 
L 213.434182 182.851912 
L 215.706764 142.585671 
L 216.680727 128.992408 
L 217.654691 118.379916 
L 218.628655 110.423188 
L 219.440291 105.444732 
L 220.251927 101.648285 
L 221.063564 98.777197 
L 221.8752 96.624378 
L 222.686836 95.028822 
L 223.498473 93.868738 
L 224.310109 93.054546 
L 225.121745 92.522964 
L 225.933382 92.232524 
L 226.745018 92.160527 
L 227.556655 92.301343 
L 228.368291 92.665984 
L 229.179927 93.282934 
L 229.991564 94.200275 
L 230.8032 95.489184 
L 231.614836 97.24889 
L 232.426473 99.612996 
L 233.238109 102.756645 
L 234.049745 106.902799 
L 234.861382 112.323335 
L 235.673018 119.325731 
L 236.484655 128.208705 
L 237.458618 141.606073 
L 238.594909 160.683808 
L 241.354473 209.269515 
L 242.328436 222.294882 
L 243.3024 232.370152 
L 244.114036 238.785722 
L 244.925673 243.728705 
L 245.737309 247.497188 
L 246.548945 250.346515 
L 247.360582 252.482468 
L 248.172218 254.064906 
L 248.983855 255.214665 
L 249.795491 256.02055 
L 250.607127 256.545206 
L 251.418764 256.829562 
L 252.2304 256.895843 
L 253.042036 256.749231 
L 253.853673 256.378263 
L 254.665309 255.75396 
L 255.476945 254.827673 
L 256.288582 253.527539 
L 257.100218 251.753497 
L 257.911855 249.370919 
L 258.723491 246.203448 
L 259.535127 242.026785 
L 260.346764 236.567823 
L 261.1584 229.518553 
L 261.970036 220.58155 
L 262.944 207.116958 
L 264.080291 187.979771 
L 266.839855 139.462978 
L 267.813818 126.505208 
L 268.787782 116.492688 
L 269.599418 110.120844 
L 270.411055 105.213199 
L 271.222691 101.472559 
L 272.034327 98.644893 
L 272.845964 96.525728 
L 273.6576 94.956351 
L 274.469236 93.816873 
L 275.280873 93.019265 
L 276.092509 92.501517 
L 276.904145 92.223237 
L 277.715782 92.162674 
L 278.527418 92.315092 
L 279.339055 92.692409 
L 280.150691 93.324098 
L 280.962327 94.25938 
L 281.773964 95.570803 
L 282.5856 97.359269 
L 283.397236 99.760433 
L 284.208873 102.951869 
L 285.020509 107.159218 
L 285.832145 112.656803 
L 286.643782 119.753133 
L 287.455418 128.74427 
L 288.429382 142.275944 
L 289.565673 161.471841 
L 292.325236 209.917575 
L 293.2992 222.807772 
L 294.273164 232.757802 
L 295.0848 239.086181 
L 295.896436 243.95873 
L 296.708073 247.671732 
L 297.519709 250.477901 
L 298.331345 252.580403 
L 299.142982 254.136815 
L 299.954618 255.26608 
L 300.766255 256.055459 
L 301.577891 256.566329 
L 302.389527 256.838548 
L 303.201164 256.893395 
L 304.0128 256.735158 
L 304.824436 256.351464 
L 305.636073 255.712344 
L 306.447709 254.768003 
L 307.259345 253.445201 
L 308.070982 251.64219 
L 308.882618 249.222282 
L 309.694255 246.006676 
L 310.505891 241.76839 
L 311.317527 236.231892 
L 312.129164 229.088201 
L 312.9408 220.042696 
L 313.914764 206.443922 
L 315.051055 187.189928 
L 317.810618 138.817564 
L 318.784582 125.995073 
L 319.758545 116.107424 
L 320.570182 109.822354 
L 321.381818 104.984743 
L 322.193455 101.299242 
L 323.005091 98.51446 
L 323.816727 96.428533 
L 324.628364 94.885022 
L 325.44 93.765921 
L 326.251636 92.984738 
L 327.063273 92.480724 
L 327.874909 92.214554 
L 328.686545 92.165421 
L 329.498182 92.329485 
L 330.309818 92.719572 
L 331.121455 93.366152 
L 331.933091 94.319595 
L 332.744727 95.653834 
L 333.556364 97.471469 
L 334.368 99.910223 
L 335.179636 103.150125 
L 335.991273 107.419501 
L 336.802909 112.995079 
L 337.614545 120.186276 
L 338.426182 129.286204 
L 339.400145 142.951865 
L 340.536436 162.263142 
L 343.133673 208.141931 
L 344.107636 221.39927 
L 345.0816 231.69175 
L 345.893236 238.259317 
L 346.704873 243.325394 
L 347.516509 247.19097 
L 348.328145 250.115872 
L 349.139782 252.3104 
L 349.951418 253.938384 
L 350.763055 255.123967 
L 351.574691 255.958643 
L 352.386327 256.507268 
L 353.197964 256.812631 
L 354.0096 256.898593 
L 354.821236 256.771879 
L 355.632873 256.422578 
L 356.444509 255.823403 
L 357.256145 254.927646 
L 358.067782 253.665779 
L 358.879418 251.940591 
L 359.691055 249.620945 
L 360.502691 246.534638 
L 361.314327 242.461964 
L 362.125964 237.134068 
L 362.9376 230.244896 
L 363.749236 221.492866 
L 364.7232 208.259525 
L 365.859491 189.329418 
L 368.781382 138.177993 
L 369.755345 125.490843 
L 370.729309 115.727209 
L 371.540945 109.528008 
L 372.352582 104.759581 
L 373.164218 101.128499 
L 373.975855 98.386025 
L 374.787491 96.332891 
L 375.599127 94.814909 
L 376.410764 93.715941 
L 377.2224 92.951011 
L 378.034036 92.460623 
L 378.845673 92.206507 
L 379.657309 92.168801 
L 380.468945 92.344554 
L 381.280582 92.747509 
L 382.092218 93.409136 
L 382.903855 94.38097 
L 383.715491 95.738342 
L 384.527127 97.58557 
L 385.338764 100.06247 
L 386.1504 103.351545 
L 386.962036 107.683812 
L 387.773673 113.338367 
L 388.585309 120.625393 
L 389.396945 129.834759 
L 390.370909 143.634069 
L 391.669527 166.030137 
L 393.942109 206.324164 
L 394.916073 219.946652 
L 395.890036 230.58731 
L 396.864 238.567578 
L 397.675636 243.561619 
L 398.487273 247.370354 
L 398.487273 247.370354 
" style="fill:none;stroke:#0000ff;stroke-linecap:square;stroke-width:1.5;"/>
   </g>
   <g id="line2d_24">
    <path clip-path="url(#pc0e184a6a8)" d="M 73.832727 174.528691 
L 75.618327 178.483593 
L 76.592291 181.172419 
L 77.566255 184.606745 
L 78.377891 188.306228 
L 79.189527 193.053768 
L 80.001164 199.178334 
L 80.8128 207.061533 
L 81.624436 217.10072 
L 82.5984 232.406035 
L 83.734691 254.412982 
L 85.195636 283.187003 
L 85.844945 291.867426 
L 86.1696 294.379027 
L 86.494255 295.454099 
L 86.656582 295.428917 
L 86.818909 295.027166 
L 87.143564 293.124395 
L 87.630545 287.772625 
L 88.279855 277.068379 
L 91.5264 216.802006 
L 92.500364 205.0996 
L 93.474327 196.373279 
L 94.285964 190.880211 
L 95.259927 185.883687 
L 96.233891 182.145147 
L 97.207855 179.259481 
L 98.506473 176.193628 
L 101.428364 169.682941 
L 102.402327 166.766656 
L 103.213964 163.6888 
L 104.0256 159.777465 
L 104.837236 154.748649 
L 105.648873 148.260278 
L 106.460509 139.922204 
L 107.272145 129.344777 
L 108.246109 113.35538 
L 109.544727 87.436702 
L 110.681018 65.515394 
L 111.330327 56.979882 
L 111.654982 54.56051 
L 111.979636 53.584776 
L 112.141964 53.660444 
L 112.304291 54.112186 
L 112.628945 56.110436 
L 113.115927 61.584586 
L 113.765236 72.396887 
L 116.849455 130.282619 
L 117.823418 142.467879 
L 118.797382 151.581555 
L 119.609018 157.32288 
L 120.582982 162.5408 
L 121.556945 166.433592 
L 122.530909 169.420934 
L 123.6672 172.199436 
L 127.2384 180.333725 
L 128.212364 183.518076 
L 129.024 186.920428 
L 129.835636 191.270514 
L 130.647273 196.87699 
L 131.458909 204.105198 
L 132.270545 213.354514 
L 133.082182 224.981572 
L 134.056145 242.220628 
L 136.491055 288.642252 
L 136.978036 293.619342 
L 137.302691 295.233022 
L 137.465018 295.484363 
L 137.627345 295.358274 
L 137.789673 294.856711 
L 138.114327 292.763607 
L 138.601309 287.168547 
L 139.250618 276.250533 
L 142.334836 218.465743 
L 143.3088 206.355676 
L 144.282764 197.302662 
L 145.0944 191.600325 
L 146.068364 186.417242 
L 147.042327 182.548779 
L 148.016291 179.577538 
L 149.152582 176.80959 
L 152.561455 169.122092 
L 153.535418 166.051626 
L 154.347055 162.786265 
L 155.158691 158.620743 
L 155.970327 153.256503 
L 156.781964 146.337336 
L 157.5936 137.466325 
L 158.405236 126.27011 
L 159.3792 109.529314 
L 162.138764 58.200902 
L 162.625745 54.344013 
L 162.9504 53.568 
L 163.112727 53.744699 
L 163.437382 55.213903 
L 163.762036 58.087532 
L 164.249018 64.651244 
L 165.060655 79.628787 
L 167.170909 120.913388 
L 168.144873 135.28939 
L 169.118836 146.23707 
L 169.930473 153.17865 
L 170.742109 158.560413 
L 171.716073 163.458034 
L 172.690036 167.127987 
L 173.664 169.968821 
L 174.962618 173.004114 
L 177.722182 179.118383 
L 178.696145 181.966986 
L 179.507782 184.961611 
L 180.319418 188.759447 
L 181.131055 193.63777 
L 181.942691 199.931778 
L 182.754327 208.027364 
L 183.565964 218.318965 
L 184.539927 233.948396 
L 185.676218 256.216435 
L 187.137164 284.586554 
L 187.786473 292.674027 
L 188.111127 294.812181 
L 188.435782 295.487592 
L 188.598109 295.260241 
L 188.922764 293.692922 
L 189.247418 290.730143 
L 189.7344 284.058866 
L 190.546036 268.985572 
L 192.656291 227.782014 
L 193.630255 213.487073 
L 194.604218 202.609962 
L 195.415855 195.715404 
L 196.227491 190.370394 
L 197.201455 185.505385 
L 198.175418 181.858006 
L 199.149382 179.031876 
L 200.448 176.006492 
L 203.207564 169.881949 
L 204.181527 167.018416 
L 204.993164 164.00538 
L 205.8048 160.182398 
L 206.616436 155.270695 
L 207.428073 148.933519 
L 208.239709 140.78397 
L 209.051345 130.428539 
L 210.025309 114.718059 
L 211.323927 89.00573 
L 212.622545 64.129979 
L 213.109527 57.733156 
L 213.596509 54.153086 
L 213.758836 53.67784 
L 213.921164 53.578396 
L 214.083491 53.8563 
L 214.408145 55.521233 
L 214.7328 58.57232 
L 215.219782 65.349501 
L 216.031418 80.515702 
L 218.141673 121.635272 
L 219.115636 135.849302 
L 220.0896 146.656219 
L 220.901236 153.504077 
L 221.712873 158.812616 
L 222.686836 163.645289 
L 223.6608 167.270309 
L 224.634764 170.081901 
L 225.933382 173.097551 
L 228.530618 178.812083 
L 229.504582 181.58209 
L 230.316218 184.479238 
L 231.127855 188.143572 
L 231.939491 192.844278 
L 232.751127 198.908038 
L 233.562764 206.714791 
L 234.3744 216.662665 
L 235.348364 231.849349 
L 236.484655 253.756033 
L 238.107927 285.263805 
L 238.594909 291.549306 
L 238.919564 294.19478 
L 239.244218 295.414809 
L 239.406545 295.463583 
L 239.568873 295.135249 
L 239.893527 293.373246 
L 240.380509 288.203147 
L 241.029818 277.661236 
L 242.653091 244.745375 
L 243.789382 224.455731 
L 244.763345 210.920005 
L 245.737309 200.692658 
L 246.548945 194.227724 
L 247.360582 189.21708 
L 248.334545 184.647603 
L 249.308509 181.203677 
L 250.4448 178.110423 
L 251.905745 174.88778 
L 253.853673 170.598605 
L 254.827636 167.915713 
L 255.8016 164.490726 
L 256.613236 160.802282 
L 257.424873 156.069451 
L 258.236509 149.96398 
L 259.048145 142.104778 
L 259.859782 132.094231 
L 260.833745 116.826049 
L 261.970036 94.850227 
L 263.430982 66.034432 
L 264.080291 57.288242 
L 264.404945 54.734568 
L 264.7296 53.614037 
L 264.891927 53.616063 
L 265.054255 53.994851 
L 265.378909 55.853662 
L 265.865891 61.148857 
L 266.5152 71.802797 
L 269.761745 132.118266 
L 270.735709 143.854447 
L 271.709673 152.6077 
L 272.521309 158.117977 
L 273.495273 163.129817 
L 274.469236 166.879004 
L 275.4432 169.77166 
L 276.741818 172.842353 
L 279.663709 179.348204 
L 280.637673 182.257503 
L 281.449309 185.326784 
L 282.260945 189.226442 
L 283.072582 194.239793 
L 283.884218 200.708218 
L 284.695855 209.021464 
L 285.507491 219.569743 
L 286.481455 235.522785 
L 287.780073 261.41572 
L 288.916364 283.381546 
L 289.565673 291.982993 
L 289.890327 294.444251 
L 290.214982 295.465048 
L 290.377309 295.412262 
L 290.539636 294.983165 
L 290.864291 293.028127 
L 291.351273 287.609277 
L 292.000582 276.845669 
L 295.247127 216.638998 
L 296.221091 204.976772 
L 297.195055 196.282455 
L 298.006691 190.809822 
L 298.980655 185.831467 
L 299.954618 182.105535 
L 300.928582 179.228119 
L 302.2272 176.167906 
L 305.149091 169.650956 
L 306.123055 166.726048 
L 306.934691 163.637647 
L 307.746327 159.71197 
L 308.557964 154.664175 
L 309.3696 148.151344 
L 310.181236 139.782845 
L 310.992873 129.169739 
L 311.966836 113.135959 
L 313.265455 87.186346 
L 314.401745 65.320451 
L 315.051055 56.866062 
L 315.375709 54.49804 
L 315.700364 53.577432 
L 315.862691 53.68105 
L 316.025018 54.160422 
L 316.349673 56.211313 
L 316.836655 61.752651 
L 317.485964 72.623828 
L 320.570182 130.454129 
L 321.544145 142.597679 
L 322.518109 151.677692 
L 323.329745 157.397378 
L 324.303709 162.595962 
L 325.277673 166.475253 
L 326.251636 169.453662 
L 327.387927 172.226315 
L 330.959127 180.368734 
L 331.933091 183.563289 
L 332.744727 186.977849 
L 333.556364 191.344333 
L 334.368 196.972276 
L 335.179636 204.227783 
L 335.991273 213.510348 
L 336.802909 225.174913 
L 337.776873 242.456293 
L 340.211782 288.799903 
L 340.698764 293.705671 
L 341.023418 295.264854 
L 341.185745 295.488 
L 341.348073 295.333658 
L 341.672727 293.90786 
L 341.997382 291.073795 
L 342.484364 284.558027 
L 343.296 269.623603 
L 345.406255 228.30423 
L 346.380218 213.892446 
L 347.354182 202.913537 
L 348.165818 195.951124 
L 348.977455 190.553066 
L 349.951418 185.640979 
L 350.925382 181.961004 
L 351.899345 179.113629 
L 353.197964 176.073902 
L 355.957527 169.964016 
L 356.931491 167.121921 
L 357.743127 164.135336 
L 358.554764 160.348488 
L 359.3664 155.48476 
L 360.178036 149.209639 
L 360.989673 141.137681 
L 361.801309 130.874069 
L 362.775273 115.280298 
L 363.911564 93.040031 
L 365.372509 64.621953 
L 366.021818 56.467575 
L 366.346473 54.287792 
L 366.671127 53.568165 
L 366.833455 53.773274 
L 367.158109 55.297546 
L 367.482764 58.221258 
L 367.969745 64.845475 
L 368.781382 79.877043 
L 370.891636 121.116587 
L 371.8656 135.447127 
L 372.839564 146.355197 
L 373.6512 153.270376 
L 374.462836 158.6315 
L 375.4368 163.510808 
L 376.410764 167.168085 
L 377.384727 170.000662 
L 378.683345 173.030394 
L 381.442909 179.150446 
L 382.416873 182.007442 
L 383.228509 185.012417 
L 384.040145 188.824389 
L 384.851782 193.721477 
L 385.663418 200.039755 
L 386.475055 208.165687 
L 387.286691 218.493197 
L 388.260655 234.168268 
L 389.559273 259.852977 
L 390.857891 284.778951 
L 391.344873 291.223981 
L 391.831855 294.864855 
L 391.994182 295.361984 
L 392.156509 295.483583 
L 392.318836 295.227762 
L 392.643491 293.605434 
L 392.968145 290.592842 
L 393.455127 283.861748 
L 394.266764 268.735808 
L 396.377018 227.579165 
L 397.350982 213.329787 
L 398.324945 202.492232 
L 398.487273 200.976357 
L 398.487273 200.976357 
" style="fill:none;stroke:#008000;stroke-linecap:square;stroke-width:1.5;"/>
   </g>
   <g id="patch_3">
    <path d="M 57.6 307.584 
L 57.6 41.472 
" style="fill:none;stroke:#000000;stroke-linecap:square;stroke-linejoin:miter;stroke-width:0.8;"/>
   </g>
   <g id="patch_4">
    <path d="M 414.72 307.584 
L 414.72 41.472 
" style="fill:none;stroke:#000000;stroke-linecap:square;stroke-linejoin:miter;stroke-width:0.8;"/>
   </g>
   <g id="patch_5">
    <path d="M 57.6 307.584 
L 414.72 307.584 
" style="fill:none;stroke:#000000;stroke-linecap:square;stroke-linejoin:miter;stroke-width:0.8;"/>
   </g>
   <g id="patch_6">
    <path d="M 57.6 41.472 
L 414.72 41.472 
" style="fill:none;stroke:#000000;stroke-linecap:square;stroke-linejoin:miter;stroke-width:0.8;"/>
   </g>
   <g id="text_13">
    <!-- Angular Position and Angular Velocity -->
    <defs>
     <path d="M 34.1875 63.1875 
L 20.796875 26.90625 
L 47.609375 26.90625 
z
M 28.609375 72.90625 
L 39.796875 72.90625 
L 67.578125 0 
L 57.328125 0 
L 50.6875 18.703125 
L 17.828125 18.703125 
L 11.1875 0 
L 0.78125 0 
z
" id="DejaVuSans-65"/>
     <path d="M 54.890625 33.015625 
L 54.890625 0 
L 45.90625 0 
L 45.90625 32.71875 
Q 45.90625 40.484375 42.875 44.328125 
Q 39.84375 48.1875 33.796875 48.1875 
Q 26.515625 48.1875 22.3125 43.546875 
Q 18.109375 38.921875 18.109375 30.90625 
L 18.109375 0 
L 9.078125 0 
L 9.078125 54.6875 
L 18.109375 54.6875 
L 18.109375 46.1875 
Q 21.34375 51.125 25.703125 53.5625 
Q 30.078125 56 35.796875 56 
Q 45.21875 56 50.046875 50.171875 
Q 54.890625 44.34375 54.890625 33.015625 
z
" id="DejaVuSans-110"/>
     <path d="M 45.40625 27.984375 
Q 45.40625 37.75 41.375 43.109375 
Q 37.359375 48.484375 30.078125 48.484375 
Q 22.859375 48.484375 18.828125 43.109375 
Q 14.796875 37.75 14.796875 27.984375 
Q 14.796875 18.265625 18.828125 12.890625 
Q 22.859375 7.515625 30.078125 7.515625 
Q 37.359375 7.515625 41.375 12.890625 
Q 45.40625 18.265625 45.40625 27.984375 
z
M 54.390625 6.78125 
Q 54.390625 -7.171875 48.1875 -13.984375 
Q 42 -20.796875 29.203125 -20.796875 
Q 24.46875 -20.796875 20.265625 -20.09375 
Q 16.0625 -19.390625 12.109375 -17.921875 
L 12.109375 -9.1875 
Q 16.0625 -11.328125 19.921875 -12.34375 
Q 23.78125 -13.375 27.78125 -13.375 
Q 36.625 -13.375 41.015625 -8.765625 
Q 45.40625 -4.15625 45.40625 5.171875 
L 45.40625 9.625 
Q 42.625 4.78125 38.28125 2.390625 
Q 33.9375 0 27.875 0 
Q 17.828125 0 11.671875 7.65625 
Q 5.515625 15.328125 5.515625 27.984375 
Q 5.515625 40.671875 11.671875 48.328125 
Q 17.828125 56 27.875 56 
Q 33.9375 56 38.28125 53.609375 
Q 42.625 51.21875 45.40625 46.390625 
L 45.40625 54.6875 
L 54.390625 54.6875 
z
" id="DejaVuSans-103"/>
     <path d="M 8.5 21.578125 
L 8.5 54.6875 
L 17.484375 54.6875 
L 17.484375 21.921875 
Q 17.484375 14.15625 20.5 10.265625 
Q 23.53125 6.390625 29.59375 6.390625 
Q 36.859375 6.390625 41.078125 11.03125 
Q 45.3125 15.671875 45.3125 23.6875 
L 45.3125 54.6875 
L 54.296875 54.6875 
L 54.296875 0 
L 45.3125 0 
L 45.3125 8.40625 
Q 42.046875 3.421875 37.71875 1 
Q 33.40625 -1.421875 27.6875 -1.421875 
Q 18.265625 -1.421875 13.375 4.4375 
Q 8.5 10.296875 8.5 21.578125 
z
M 31.109375 56 
z
" id="DejaVuSans-117"/>
     <path d="M 9.421875 75.984375 
L 18.40625 75.984375 
L 18.40625 0 
L 9.421875 0 
z
" id="DejaVuSans-108"/>
     <path d="M 34.28125 27.484375 
Q 23.390625 27.484375 19.1875 25 
Q 14.984375 22.515625 14.984375 16.5 
Q 14.984375 11.71875 18.140625 8.90625 
Q 21.296875 6.109375 26.703125 6.109375 
Q 34.1875 6.109375 38.703125 11.40625 
Q 43.21875 16.703125 43.21875 25.484375 
L 43.21875 27.484375 
z
M 52.203125 31.203125 
L 52.203125 0 
L 43.21875 0 
L 43.21875 8.296875 
Q 40.140625 3.328125 35.546875 0.953125 
Q 30.953125 -1.421875 24.3125 -1.421875 
Q 15.921875 -1.421875 10.953125 3.296875 
Q 6 8.015625 6 15.921875 
Q 6 25.140625 12.171875 29.828125 
Q 18.359375 34.515625 30.609375 34.515625 
L 43.21875 34.515625 
L 43.21875 35.40625 
Q 43.21875 41.609375 39.140625 45 
Q 35.0625 48.390625 27.6875 48.390625 
Q 23 48.390625 18.546875 47.265625 
Q 14.109375 46.140625 10.015625 43.890625 
L 10.015625 52.203125 
Q 14.9375 54.109375 19.578125 55.046875 
Q 24.21875 56 28.609375 56 
Q 40.484375 56 46.34375 49.84375 
Q 52.203125 43.703125 52.203125 31.203125 
z
" id="DejaVuSans-97"/>
     <path d="M 41.109375 46.296875 
Q 39.59375 47.171875 37.8125 47.578125 
Q 36.03125 48 33.890625 48 
Q 26.265625 48 22.1875 43.046875 
Q 18.109375 38.09375 18.109375 28.8125 
L 18.109375 0 
L 9.078125 0 
L 9.078125 54.6875 
L 18.109375 54.6875 
L 18.109375 46.1875 
Q 20.953125 51.171875 25.484375 53.578125 
Q 30.03125 56 36.53125 56 
Q 37.453125 56 38.578125 55.875 
Q 39.703125 55.765625 41.0625 55.515625 
z
" id="DejaVuSans-114"/>
     <path id="DejaVuSans-32"/>
     <path d="M 19.671875 64.796875 
L 19.671875 37.40625 
L 32.078125 37.40625 
Q 38.96875 37.40625 42.71875 40.96875 
Q 46.484375 44.53125 46.484375 51.125 
Q 46.484375 57.671875 42.71875 61.234375 
Q 38.96875 64.796875 32.078125 64.796875 
z
M 9.8125 72.90625 
L 32.078125 72.90625 
Q 44.34375 72.90625 50.609375 67.359375 
Q 56.890625 61.8125 56.890625 51.125 
Q 56.890625 40.328125 50.609375 34.8125 
Q 44.34375 29.296875 32.078125 29.296875 
L 19.671875 29.296875 
L 19.671875 0 
L 9.8125 0 
z
" id="DejaVuSans-80"/>
     <path d="M 30.609375 48.390625 
Q 23.390625 48.390625 19.1875 42.75 
Q 14.984375 37.109375 14.984375 27.296875 
Q 14.984375 17.484375 19.15625 11.84375 
Q 23.34375 6.203125 30.609375 6.203125 
Q 37.796875 6.203125 41.984375 11.859375 
Q 46.1875 17.53125 46.1875 27.296875 
Q 46.1875 37.015625 41.984375 42.703125 
Q 37.796875 48.390625 30.609375 48.390625 
z
M 30.609375 56 
Q 42.328125 56 49.015625 48.375 
Q 55.71875 40.765625 55.71875 27.296875 
Q 55.71875 13.875 49.015625 6.21875 
Q 42.328125 -1.421875 30.609375 -1.421875 
Q 18.84375 -1.421875 12.171875 6.21875 
Q 5.515625 13.875 5.515625 27.296875 
Q 5.515625 40.765625 12.171875 48.375 
Q 18.84375 56 30.609375 56 
z
" id="DejaVuSans-111"/>
     <path d="M 44.28125 53.078125 
L 44.28125 44.578125 
Q 40.484375 46.53125 36.375 47.5 
Q 32.28125 48.484375 27.875 48.484375 
Q 21.1875 48.484375 17.84375 46.4375 
Q 14.5 44.390625 14.5 40.28125 
Q 14.5 37.15625 16.890625 35.375 
Q 19.28125 33.59375 26.515625 31.984375 
L 29.59375 31.296875 
Q 39.15625 29.25 43.1875 25.515625 
Q 47.21875 21.78125 47.21875 15.09375 
Q 47.21875 7.46875 41.1875 3.015625 
Q 35.15625 -1.421875 24.609375 -1.421875 
Q 20.21875 -1.421875 15.453125 -0.5625 
Q 10.6875 0.296875 5.421875 2 
L 5.421875 11.28125 
Q 10.40625 8.6875 15.234375 7.390625 
Q 20.0625 6.109375 24.8125 6.109375 
Q 31.15625 6.109375 34.5625 8.28125 
Q 37.984375 10.453125 37.984375 14.40625 
Q 37.984375 18.0625 35.515625 20.015625 
Q 33.0625 21.96875 24.703125 23.78125 
L 21.578125 24.515625 
Q 13.234375 26.265625 9.515625 29.90625 
Q 5.8125 33.546875 5.8125 39.890625 
Q 5.8125 47.609375 11.28125 51.796875 
Q 16.75 56 26.8125 56 
Q 31.78125 56 36.171875 55.265625 
Q 40.578125 54.546875 44.28125 53.078125 
z
" id="DejaVuSans-115"/>
     <path d="M 9.421875 54.6875 
L 18.40625 54.6875 
L 18.40625 0 
L 9.421875 0 
z
M 9.421875 75.984375 
L 18.40625 75.984375 
L 18.40625 64.59375 
L 9.421875 64.59375 
z
" id="DejaVuSans-105"/>
     <path d="M 45.40625 46.390625 
L 45.40625 75.984375 
L 54.390625 75.984375 
L 54.390625 0 
L 45.40625 0 
L 45.40625 8.203125 
Q 42.578125 3.328125 38.25 0.953125 
Q 33.9375 -1.421875 27.875 -1.421875 
Q 17.96875 -1.421875 11.734375 6.484375 
Q 5.515625 14.40625 5.515625 27.296875 
Q 5.515625 40.1875 11.734375 48.09375 
Q 17.96875 56 27.875 56 
Q 33.9375 56 38.25 53.625 
Q 42.578125 51.265625 45.40625 46.390625 
z
M 14.796875 27.296875 
Q 14.796875 17.390625 18.875 11.75 
Q 22.953125 6.109375 30.078125 6.109375 
Q 37.203125 6.109375 41.296875 11.75 
Q 45.40625 17.390625 45.40625 27.296875 
Q 45.40625 37.203125 41.296875 42.84375 
Q 37.203125 48.484375 30.078125 48.484375 
Q 22.953125 48.484375 18.875 42.84375 
Q 14.796875 37.203125 14.796875 27.296875 
z
" id="DejaVuSans-100"/>
     <path d="M 28.609375 0 
L 0.78125 72.90625 
L 11.078125 72.90625 
L 34.1875 11.53125 
L 57.328125 72.90625 
L 67.578125 72.90625 
L 39.796875 0 
z
" id="DejaVuSans-86"/>
     <path d="M 56.203125 29.59375 
L 56.203125 25.203125 
L 14.890625 25.203125 
Q 15.484375 15.921875 20.484375 11.0625 
Q 25.484375 6.203125 34.421875 6.203125 
Q 39.59375 6.203125 44.453125 7.46875 
Q 49.3125 8.734375 54.109375 11.28125 
L 54.109375 2.78125 
Q 49.265625 0.734375 44.1875 -0.34375 
Q 39.109375 -1.421875 33.890625 -1.421875 
Q 20.796875 -1.421875 13.15625 6.1875 
Q 5.515625 13.8125 5.515625 26.8125 
Q 5.515625 40.234375 12.765625 48.109375 
Q 20.015625 56 32.328125 56 
Q 43.359375 56 49.78125 48.890625 
Q 56.203125 41.796875 56.203125 29.59375 
z
M 47.21875 32.234375 
Q 47.125 39.59375 43.09375 43.984375 
Q 39.0625 48.390625 32.421875 48.390625 
Q 24.90625 48.390625 20.390625 44.140625 
Q 15.875 39.890625 15.1875 32.171875 
z
" id="DejaVuSans-101"/>
     <path d="M 48.78125 52.59375 
L 48.78125 44.1875 
Q 44.96875 46.296875 41.140625 47.34375 
Q 37.3125 48.390625 33.40625 48.390625 
Q 24.65625 48.390625 19.8125 42.84375 
Q 14.984375 37.3125 14.984375 27.296875 
Q 14.984375 17.28125 19.8125 11.734375 
Q 24.65625 6.203125 33.40625 6.203125 
Q 37.3125 6.203125 41.140625 7.25 
Q 44.96875 8.296875 48.78125 10.40625 
L 48.78125 2.09375 
Q 45.015625 0.34375 40.984375 -0.53125 
Q 36.96875 -1.421875 32.421875 -1.421875 
Q 20.0625 -1.421875 12.78125 6.34375 
Q 5.515625 14.109375 5.515625 27.296875 
Q 5.515625 40.671875 12.859375 48.328125 
Q 20.21875 56 33.015625 56 
Q 37.15625 56 41.109375 55.140625 
Q 45.0625 54.296875 48.78125 52.59375 
z
" id="DejaVuSans-99"/>
     <path d="M 32.171875 -5.078125 
Q 28.375 -14.84375 24.75 -17.8125 
Q 21.140625 -20.796875 15.09375 -20.796875 
L 7.90625 -20.796875 
L 7.90625 -13.28125 
L 13.1875 -13.28125 
Q 16.890625 -13.28125 18.9375 -11.515625 
Q 21 -9.765625 23.484375 -3.21875 
L 25.09375 0.875 
L 2.984375 54.6875 
L 12.5 54.6875 
L 29.59375 11.921875 
L 46.6875 54.6875 
L 56.203125 54.6875 
z
" id="DejaVuSans-121"/>
    </defs>
    <g transform="translate(123.017813 35.472)scale(0.12 -0.12)">
     <use xlink:href="#DejaVuSans-65"/>
     <use x="68.408203" xlink:href="#DejaVuSans-110"/>
     <use x="131.787109" xlink:href="#DejaVuSans-103"/>
     <use x="195.263672" xlink:href="#DejaVuSans-117"/>
     <use x="258.642578" xlink:href="#DejaVuSans-108"/>
     <use x="286.425781" xlink:href="#DejaVuSans-97"/>
     <use x="347.705078" xlink:href="#DejaVuSans-114"/>
     <use x="388.818359" xlink:href="#DejaVuSans-32"/>
     <use x="420.605469" xlink:href="#DejaVuSans-80"/>
     <use x="480.861328" xlink:href="#DejaVuSans-111"/>
     <use x="542.042969" xlink:href="#DejaVuSans-115"/>
     <use x="594.142578" xlink:href="#DejaVuSans-105"/>
     <use x="621.925781" xlink:href="#DejaVuSans-116"/>
     <use x="661.134766" xlink:href="#DejaVuSans-105"/>
     <use x="688.917969" xlink:href="#DejaVuSans-111"/>
     <use x="750.099609" xlink:href="#DejaVuSans-110"/>
     <use x="813.478516" xlink:href="#DejaVuSans-32"/>
     <use x="845.265625" xlink:href="#DejaVuSans-97"/>
     <use x="906.544922" xlink:href="#DejaVuSans-110"/>
     <use x="969.923828" xlink:href="#DejaVuSans-100"/>
     <use x="1033.400391" xlink:href="#DejaVuSans-32"/>
     <use x="1065.1875" xlink:href="#DejaVuSans-65"/>
     <use x="1133.595703" xlink:href="#DejaVuSans-110"/>
     <use x="1196.974609" xlink:href="#DejaVuSans-103"/>
     <use x="1260.451172" xlink:href="#DejaVuSans-117"/>
     <use x="1323.830078" xlink:href="#DejaVuSans-108"/>
     <use x="1351.613281" xlink:href="#DejaVuSans-97"/>
     <use x="1412.892578" xlink:href="#DejaVuSans-114"/>
     <use x="1454.005859" xlink:href="#DejaVuSans-32"/>
     <use x="1485.792969" xlink:href="#DejaVuSans-86"/>
     <use x="1554.091797" xlink:href="#DejaVuSans-101"/>
     <use x="1615.615234" xlink:href="#DejaVuSans-108"/>
     <use x="1643.398438" xlink:href="#DejaVuSans-111"/>
     <use x="1704.580078" xlink:href="#DejaVuSans-99"/>
     <use x="1759.560547" xlink:href="#DejaVuSans-105"/>
     <use x="1787.34375" xlink:href="#DejaVuSans-116"/>
     <use x="1826.552734" xlink:href="#DejaVuSans-121"/>
    </g>
   </g>
   <g id="legend_1">
    <g id="patch_7">
     <path d="M 355.62 78.82825 
L 407.72 78.82825 
Q 409.72 78.82825 409.72 76.82825 
L 409.72 48.472 
Q 409.72 46.472 407.72 46.472 
L 355.62 46.472 
Q 353.62 46.472 353.62 48.472 
L 353.62 76.82825 
Q 353.62 78.82825 355.62 78.82825 
z
" style="fill:#ffffff;opacity:0.8;stroke:#cccccc;stroke-linejoin:miter;"/>
    </g>
    <g id="line2d_25">
     <path d="M 357.62 54.570437 
L 377.62 54.570437 
" style="fill:none;stroke:#0000ff;stroke-linecap:square;stroke-width:1.5;"/>
    </g>
    <g id="line2d_26"/>
    <g id="text_14">
     <!-- $\Theta$(t) -->
     <defs>
      <path d="M 22.125 42.96875 
L 56.59375 42.96875 
L 56.59375 34.671875 
L 22.125 34.671875 
z
M 39.40625 66.21875 
Q 28.65625 66.21875 22.359375 58.203125 
Q 16.015625 50.203125 16.015625 36.375 
Q 16.015625 22.609375 22.328125 14.59375 
Q 28.65625 6.59375 39.40625 6.59375 
Q 50.140625 6.59375 56.453125 14.59375 
Q 62.703125 22.609375 62.703125 36.375 
Q 62.703125 50.203125 56.453125 58.203125 
Q 50.140625 66.21875 39.40625 66.21875 
z
M 39.40625 74.21875 
Q 54.734375 74.21875 63.90625 63.9375 
Q 73.09375 53.65625 73.09375 36.375 
Q 73.09375 19.140625 63.921875 8.890625 
Q 54.734375 -1.421875 39.40625 -1.421875 
Q 24.03125 -1.421875 14.84375 8.84375 
Q 5.609375 19.09375 5.609375 36.375 
Q 5.609375 53.65625 14.84375 63.96875 
Q 24.03125 74.21875 39.40625 74.21875 
z
" id="DejaVuSans-920"/>
      <path d="M 31 75.875 
Q 24.46875 64.65625 21.28125 53.65625 
Q 18.109375 42.671875 18.109375 31.390625 
Q 18.109375 20.125 21.3125 9.0625 
Q 24.515625 -2 31 -13.1875 
L 23.1875 -13.1875 
Q 15.875 -1.703125 12.234375 9.375 
Q 8.59375 20.453125 8.59375 31.390625 
Q 8.59375 42.28125 12.203125 53.3125 
Q 15.828125 64.359375 23.1875 75.875 
z
" id="DejaVuSans-40"/>
      <path d="M 8.015625 75.875 
L 15.828125 75.875 
Q 23.140625 64.359375 26.78125 53.3125 
Q 30.421875 42.28125 30.421875 31.390625 
Q 30.421875 20.453125 26.78125 9.375 
Q 23.140625 -1.703125 15.828125 -13.1875 
L 8.015625 -13.1875 
Q 14.5 -2 17.703125 9.0625 
Q 20.90625 20.125 20.90625 31.390625 
Q 20.90625 42.671875 17.703125 53.65625 
Q 14.5 64.65625 8.015625 75.875 
z
" id="DejaVuSans-41"/>
     </defs>
     <g transform="translate(385.62 58.070437)scale(0.1 -0.1)">
      <use transform="translate(0 0.125)" xlink:href="#DejaVuSans-920"/>
      <use transform="translate(78.710938 0.125)" xlink:href="#DejaVuSans-40"/>
      <use transform="translate(117.724609 0.125)" xlink:href="#DejaVuSans-116"/>
      <use transform="translate(156.933594 0.125)" xlink:href="#DejaVuSans-41"/>
     </g>
    </g>
    <g id="line2d_27">
     <path d="M 357.62 69.248562 
L 377.62 69.248562 
" style="fill:none;stroke:#008000;stroke-linecap:square;stroke-width:1.5;"/>
    </g>
    <g id="line2d_28"/>
    <g id="text_15">
     <!-- $\omega$(t) -->
     <defs>
      <path d="M 21.390625 -1.421875 
Q 1.125 -1.421875 6.78125 27.59375 
Q 8.984375 39.0625 19.625 54.6875 
L 29.296875 54.6875 
Q 19.234375 39.0625 17 27.34375 
Q 12.796875 6.203125 23.734375 6.203125 
Q 33.84375 6.203125 38.71875 32.46875 
L 47.015625 32.46875 
Q 41.703125 6.0625 51.8125 6.203125 
Q 62.703125 6.296875 66.796875 27.34375 
Q 69.046875 39.0625 65.140625 54.6875 
L 74.8125 54.6875 
Q 79.296875 39.0625 77.09375 27.59375 
Q 71.53125 -1.46875 51.21875 -1.421875 
Q 37.9375 -1.375 39.109375 13.1875 
Q 34.28125 -1.421875 21.390625 -1.421875 
z
" id="DejaVuSans-Oblique-969"/>
     </defs>
     <g transform="translate(385.62 72.748562)scale(0.1 -0.1)">
      <use transform="translate(0 0.125)" xlink:href="#DejaVuSans-Oblique-969"/>
      <use transform="translate(83.740234 0.125)" xlink:href="#DejaVuSans-40"/>
      <use transform="translate(122.753906 0.125)" xlink:href="#DejaVuSans-116"/>
      <use transform="translate(161.962891 0.125)" xlink:href="#DejaVuSans-41"/>
     </g>
    </g>
   </g>
  </g>
 </g>
 <defs>
  <clipPath id="pc0e184a6a8">
   <rect height="266.112" width="357.12" x="57.6" y="41.472"/>
  </clipPath>
 </defs>
</svg>
