<?xml version="1.0" encoding="utf-8" standalone="no"?>
<!DOCTYPE svg PUBLIC "-//W3C//DTD SVG 1.1//EN"
  "http://www.w3.org/Graphics/SVG/1.1/DTD/svg11.dtd">
<!-- Created with matplotlib (https://matplotlib.org/) -->
<svg height="345.6pt" version="1.1" viewBox="0 0 460.8 345.6" width="460.8pt" xmlns="http://www.w3.org/2000/svg" xmlns:xlink="http://www.w3.org/1999/xlink">
 <defs>
  <style type="text/css">
*{stroke-linecap:butt;stroke-linejoin:round;}
  </style>
 </defs>
 <g id="figure_1">
  <g id="patch_1">
   <path d="M 0 345.6 
L 460.8 345.6 
L 460.8 0 
L 0 0 
z
" style="fill:#ffffff;"/>
  </g>
  <g id="axes_1">
   <g id="patch_2">
    <path d="M 57.6 307.584 
L 414.72 307.584 
L 414.72 41.472 
L 57.6 41.472 
z
" style="fill:#ffffff;"/>
   </g>
   <g id="matplotlib.axis_1">
    <g id="xtick_1">
     <g id="line2d_1">
      <path clip-path="url(#p54c0ba9240)" d="M 73.832727 307.584 
L 73.832727 41.472 
" style="fill:none;stroke:#b0b0b0;stroke-linecap:square;stroke-width:0.8;"/>
     </g>
     <g id="line2d_2">
      <defs>
       <path d="M 0 0 
L 0 3.5 
" id="m34339ea0be" style="stroke:#000000;stroke-width:0.8;"/>
      </defs>
      <g>
       <use style="stroke:#000000;stroke-width:0.8;" x="73.832727" xlink:href="#m34339ea0be" y="307.584"/>
      </g>
     </g>
     <g id="text_1">
      <!-- 0 -->
      <defs>
       <path d="M 31.78125 66.40625 
Q 24.171875 66.40625 20.328125 58.90625 
Q 16.5 51.421875 16.5 36.375 
Q 16.5 21.390625 20.328125 13.890625 
Q 24.171875 6.390625 31.78125 6.390625 
Q 39.453125 6.390625 43.28125 13.890625 
Q 47.125 21.390625 47.125 36.375 
Q 47.125 51.421875 43.28125 58.90625 
Q 39.453125 66.40625 31.78125 66.40625 
z
M 31.78125 74.21875 
Q 44.046875 74.21875 50.515625 64.515625 
Q 56.984375 54.828125 56.984375 36.375 
Q 56.984375 17.96875 50.515625 8.265625 
Q 44.046875 -1.421875 31.78125 -1.421875 
Q 19.53125 -1.421875 13.0625 8.265625 
Q 6.59375 17.96875 6.59375 36.375 
Q 6.59375 54.828125 13.0625 64.515625 
Q 19.53125 74.21875 31.78125 74.21875 
z
" id="DejaVuSans-48"/>
      </defs>
      <g transform="translate(70.651477 322.182437)scale(0.1 -0.1)">
       <use xlink:href="#DejaVuSans-48"/>
      </g>
     </g>
    </g>
    <g id="xtick_2">
     <g id="line2d_3">
      <path clip-path="url(#p54c0ba9240)" d="M 127.950838 307.584 
L 127.950838 41.472 
" style="fill:none;stroke:#b0b0b0;stroke-linecap:square;stroke-width:0.8;"/>
     </g>
     <g id="line2d_4">
      <g>
       <use style="stroke:#000000;stroke-width:0.8;" x="127.950838" xlink:href="#m34339ea0be" y="307.584"/>
      </g>
     </g>
     <g id="text_2">
      <!-- 10 -->
      <defs>
       <path d="M 12.40625 8.296875 
L 28.515625 8.296875 
L 28.515625 63.921875 
L 10.984375 60.40625 
L 10.984375 69.390625 
L 28.421875 72.90625 
L 38.28125 72.90625 
L 38.28125 8.296875 
L 54.390625 8.296875 
L 54.390625 0 
L 12.40625 0 
z
" id="DejaVuSans-49"/>
      </defs>
      <g transform="translate(121.588338 322.182437)scale(0.1 -0.1)">
       <use xlink:href="#DejaVuSans-49"/>
       <use x="63.623047" xlink:href="#DejaVuSans-48"/>
      </g>
     </g>
    </g>
    <g id="xtick_3">
     <g id="line2d_5">
      <path clip-path="url(#p54c0ba9240)" d="M 182.068948 307.584 
L 182.068948 41.472 
" style="fill:none;stroke:#b0b0b0;stroke-linecap:square;stroke-width:0.8;"/>
     </g>
     <g id="line2d_6">
      <g>
       <use style="stroke:#000000;stroke-width:0.8;" x="182.068948" xlink:href="#m34339ea0be" y="307.584"/>
      </g>
     </g>
     <g id="text_3">
      <!-- 20 -->
      <defs>
       <path d="M 19.1875 8.296875 
L 53.609375 8.296875 
L 53.609375 0 
L 7.328125 0 
L 7.328125 8.296875 
Q 12.9375 14.109375 22.625 23.890625 
Q 32.328125 33.6875 34.8125 36.53125 
Q 39.546875 41.84375 41.421875 45.53125 
Q 43.3125 49.21875 43.3125 52.78125 
Q 43.3125 58.59375 39.234375 62.25 
Q 35.15625 65.921875 28.609375 65.921875 
Q 23.96875 65.921875 18.8125 64.3125 
Q 13.671875 62.703125 7.8125 59.421875 
L 7.8125 69.390625 
Q 13.765625 71.78125 18.9375 73 
Q 24.125 74.21875 28.421875 74.21875 
Q 39.75 74.21875 46.484375 68.546875 
Q 53.21875 62.890625 53.21875 53.421875 
Q 53.21875 48.921875 51.53125 44.890625 
Q 49.859375 40.875 45.40625 35.40625 
Q 44.1875 33.984375 37.640625 27.21875 
Q 31.109375 20.453125 19.1875 8.296875 
z
" id="DejaVuSans-50"/>
      </defs>
      <g transform="translate(175.706448 322.182437)scale(0.1 -0.1)">
       <use xlink:href="#DejaVuSans-50"/>
       <use x="63.623047" xlink:href="#DejaVuSans-48"/>
      </g>
     </g>
    </g>
    <g id="xtick_4">
     <g id="line2d_7">
      <path clip-path="url(#p54c0ba9240)" d="M 236.187059 307.584 
L 236.187059 41.472 
" style="fill:none;stroke:#b0b0b0;stroke-linecap:square;stroke-width:0.8;"/>
     </g>
     <g id="line2d_8">
      <g>
       <use style="stroke:#000000;stroke-width:0.8;" x="236.187059" xlink:href="#m34339ea0be" y="307.584"/>
      </g>
     </g>
     <g id="text_4">
      <!-- 30 -->
      <defs>
       <path d="M 40.578125 39.3125 
Q 47.65625 37.796875 51.625 33 
Q 55.609375 28.21875 55.609375 21.1875 
Q 55.609375 10.40625 48.1875 4.484375 
Q 40.765625 -1.421875 27.09375 -1.421875 
Q 22.515625 -1.421875 17.65625 -0.515625 
Q 12.796875 0.390625 7.625 2.203125 
L 7.625 11.71875 
Q 11.71875 9.328125 16.59375 8.109375 
Q 21.484375 6.890625 26.8125 6.890625 
Q 36.078125 6.890625 40.9375 10.546875 
Q 45.796875 14.203125 45.796875 21.1875 
Q 45.796875 27.640625 41.28125 31.265625 
Q 36.765625 34.90625 28.71875 34.90625 
L 20.21875 34.90625 
L 20.21875 43.015625 
L 29.109375 43.015625 
Q 36.375 43.015625 40.234375 45.921875 
Q 44.09375 48.828125 44.09375 54.296875 
Q 44.09375 59.90625 40.109375 62.90625 
Q 36.140625 65.921875 28.71875 65.921875 
Q 24.65625 65.921875 20.015625 65.03125 
Q 15.375 64.15625 9.8125 62.3125 
L 9.8125 71.09375 
Q 15.4375 72.65625 20.34375 73.4375 
Q 25.25 74.21875 29.59375 74.21875 
Q 40.828125 74.21875 47.359375 69.109375 
Q 53.90625 64.015625 53.90625 55.328125 
Q 53.90625 49.265625 50.4375 45.09375 
Q 46.96875 40.921875 40.578125 39.3125 
z
" id="DejaVuSans-51"/>
      </defs>
      <g transform="translate(229.824559 322.182437)scale(0.1 -0.1)">
       <use xlink:href="#DejaVuSans-51"/>
       <use x="63.623047" xlink:href="#DejaVuSans-48"/>
      </g>
     </g>
    </g>
    <g id="xtick_5">
     <g id="line2d_9">
      <path clip-path="url(#p54c0ba9240)" d="M 290.30517 307.584 
L 290.30517 41.472 
" style="fill:none;stroke:#b0b0b0;stroke-linecap:square;stroke-width:0.8;"/>
     </g>
     <g id="line2d_10">
      <g>
       <use style="stroke:#000000;stroke-width:0.8;" x="290.30517" xlink:href="#m34339ea0be" y="307.584"/>
      </g>
     </g>
     <g id="text_5">
      <!-- 40 -->
      <defs>
       <path d="M 37.796875 64.3125 
L 12.890625 25.390625 
L 37.796875 25.390625 
z
M 35.203125 72.90625 
L 47.609375 72.90625 
L 47.609375 25.390625 
L 58.015625 25.390625 
L 58.015625 17.1875 
L 47.609375 17.1875 
L 47.609375 0 
L 37.796875 0 
L 37.796875 17.1875 
L 4.890625 17.1875 
L 4.890625 26.703125 
z
" id="DejaVuSans-52"/>
      </defs>
      <g transform="translate(283.94267 322.182437)scale(0.1 -0.1)">
       <use xlink:href="#DejaVuSans-52"/>
       <use x="63.623047" xlink:href="#DejaVuSans-48"/>
      </g>
     </g>
    </g>
    <g id="xtick_6">
     <g id="line2d_11">
      <path clip-path="url(#p54c0ba9240)" d="M 344.42328 307.584 
L 344.42328 41.472 
" style="fill:none;stroke:#b0b0b0;stroke-linecap:square;stroke-width:0.8;"/>
     </g>
     <g id="line2d_12">
      <g>
       <use style="stroke:#000000;stroke-width:0.8;" x="344.42328" xlink:href="#m34339ea0be" y="307.584"/>
      </g>
     </g>
     <g id="text_6">
      <!-- 50 -->
      <defs>
       <path d="M 10.796875 72.90625 
L 49.515625 72.90625 
L 49.515625 64.59375 
L 19.828125 64.59375 
L 19.828125 46.734375 
Q 21.96875 47.46875 24.109375 47.828125 
Q 26.265625 48.1875 28.421875 48.1875 
Q 40.625 48.1875 47.75 41.5 
Q 54.890625 34.8125 54.890625 23.390625 
Q 54.890625 11.625 47.5625 5.09375 
Q 40.234375 -1.421875 26.90625 -1.421875 
Q 22.3125 -1.421875 17.546875 -0.640625 
Q 12.796875 0.140625 7.71875 1.703125 
L 7.71875 11.625 
Q 12.109375 9.234375 16.796875 8.0625 
Q 21.484375 6.890625 26.703125 6.890625 
Q 35.15625 6.890625 40.078125 11.328125 
Q 45.015625 15.765625 45.015625 23.390625 
Q 45.015625 31 40.078125 35.4375 
Q 35.15625 39.890625 26.703125 39.890625 
Q 22.75 39.890625 18.8125 39.015625 
Q 14.890625 38.140625 10.796875 36.28125 
z
" id="DejaVuSans-53"/>
      </defs>
      <g transform="translate(338.06078 322.182437)scale(0.1 -0.1)">
       <use xlink:href="#DejaVuSans-53"/>
       <use x="63.623047" xlink:href="#DejaVuSans-48"/>
      </g>
     </g>
    </g>
    <g id="xtick_7">
     <g id="line2d_13">
      <path clip-path="url(#p54c0ba9240)" d="M 398.541391 307.584 
L 398.541391 41.472 
" style="fill:none;stroke:#b0b0b0;stroke-linecap:square;stroke-width:0.8;"/>
     </g>
     <g id="line2d_14">
      <g>
       <use style="stroke:#000000;stroke-width:0.8;" x="398.541391" xlink:href="#m34339ea0be" y="307.584"/>
      </g>
     </g>
     <g id="text_7">
      <!-- 60 -->
      <defs>
       <path d="M 33.015625 40.375 
Q 26.375 40.375 22.484375 35.828125 
Q 18.609375 31.296875 18.609375 23.390625 
Q 18.609375 15.53125 22.484375 10.953125 
Q 26.375 6.390625 33.015625 6.390625 
Q 39.65625 6.390625 43.53125 10.953125 
Q 47.40625 15.53125 47.40625 23.390625 
Q 47.40625 31.296875 43.53125 35.828125 
Q 39.65625 40.375 33.015625 40.375 
z
M 52.59375 71.296875 
L 52.59375 62.3125 
Q 48.875 64.0625 45.09375 64.984375 
Q 41.3125 65.921875 37.59375 65.921875 
Q 27.828125 65.921875 22.671875 59.328125 
Q 17.53125 52.734375 16.796875 39.40625 
Q 19.671875 43.65625 24.015625 45.921875 
Q 28.375 48.1875 33.59375 48.1875 
Q 44.578125 48.1875 50.953125 41.515625 
Q 57.328125 34.859375 57.328125 23.390625 
Q 57.328125 12.15625 50.6875 5.359375 
Q 44.046875 -1.421875 33.015625 -1.421875 
Q 20.359375 -1.421875 13.671875 8.265625 
Q 6.984375 17.96875 6.984375 36.375 
Q 6.984375 53.65625 15.1875 63.9375 
Q 23.390625 74.21875 37.203125 74.21875 
Q 40.921875 74.21875 44.703125 73.484375 
Q 48.484375 72.75 52.59375 71.296875 
z
" id="DejaVuSans-54"/>
      </defs>
      <g transform="translate(392.178891 322.182437)scale(0.1 -0.1)">
       <use xlink:href="#DejaVuSans-54"/>
       <use x="63.623047" xlink:href="#DejaVuSans-48"/>
      </g>
     </g>
    </g>
    <g id="text_8">
     <!-- t -->
     <defs>
      <path d="M 18.3125 70.21875 
L 18.3125 54.6875 
L 36.8125 54.6875 
L 36.8125 47.703125 
L 18.3125 47.703125 
L 18.3125 18.015625 
Q 18.3125 11.328125 20.140625 9.421875 
Q 21.96875 7.515625 27.59375 7.515625 
L 36.8125 7.515625 
L 36.8125 0 
L 27.59375 0 
Q 17.1875 0 13.234375 3.875 
Q 9.28125 7.765625 9.28125 18.015625 
L 9.28125 47.703125 
L 2.6875 47.703125 
L 2.6875 54.6875 
L 9.28125 54.6875 
L 9.28125 70.21875 
z
" id="DejaVuSans-116"/>
     </defs>
     <g transform="translate(234.199844 335.860562)scale(0.1 -0.1)">
      <use xlink:href="#DejaVuSans-116"/>
     </g>
    </g>
   </g>
   <g id="matplotlib.axis_2">
    <g id="ytick_1">
     <g id="line2d_15">
      <path clip-path="url(#p54c0ba9240)" d="M 57.6 303.782117 
L 414.72 303.782117 
" style="fill:none;stroke:#b0b0b0;stroke-linecap:square;stroke-width:0.8;"/>
     </g>
     <g id="line2d_16">
      <defs>
       <path d="M 0 0 
L -3.5 0 
" id="m5622274692" style="stroke:#000000;stroke-width:0.8;"/>
      </defs>
      <g>
       <use style="stroke:#000000;stroke-width:0.8;" x="57.6" xlink:href="#m5622274692" y="303.782117"/>
      </g>
     </g>
     <g id="text_9">
      <!-- −1.25 -->
      <defs>
       <path d="M 10.59375 35.5 
L 73.1875 35.5 
L 73.1875 27.203125 
L 10.59375 27.203125 
z
" id="DejaVuSans-8722"/>
       <path d="M 10.6875 12.40625 
L 21 12.40625 
L 21 0 
L 10.6875 0 
z
" id="DejaVuSans-46"/>
      </defs>
      <g transform="translate(19.954687 307.581336)scale(0.1 -0.1)">
       <use xlink:href="#DejaVuSans-8722"/>
       <use x="83.789062" xlink:href="#DejaVuSans-49"/>
       <use x="147.412109" xlink:href="#DejaVuSans-46"/>
       <use x="179.199219" xlink:href="#DejaVuSans-50"/>
       <use x="242.822266" xlink:href="#DejaVuSans-53"/>
      </g>
     </g>
    </g>
    <g id="ytick_2">
     <g id="line2d_17">
      <path clip-path="url(#p54c0ba9240)" d="M 57.6 272.649594 
L 414.72 272.649594 
" style="fill:none;stroke:#b0b0b0;stroke-linecap:square;stroke-width:0.8;"/>
     </g>
     <g id="line2d_18">
      <g>
       <use style="stroke:#000000;stroke-width:0.8;" x="57.6" xlink:href="#m5622274692" y="272.649594"/>
      </g>
     </g>
     <g id="text_10">
      <!-- −1.00 -->
      <g transform="translate(19.954687 276.448813)scale(0.1 -0.1)">
       <use xlink:href="#DejaVuSans-8722"/>
       <use x="83.789062" xlink:href="#DejaVuSans-49"/>
       <use x="147.412109" xlink:href="#DejaVuSans-46"/>
       <use x="179.199219" xlink:href="#DejaVuSans-48"/>
       <use x="242.822266" xlink:href="#DejaVuSans-48"/>
      </g>
     </g>
    </g>
    <g id="ytick_3">
     <g id="line2d_19">
      <path clip-path="url(#p54c0ba9240)" d="M 57.6 241.517071 
L 414.72 241.517071 
" style="fill:none;stroke:#b0b0b0;stroke-linecap:square;stroke-width:0.8;"/>
     </g>
     <g id="line2d_20">
      <g>
       <use style="stroke:#000000;stroke-width:0.8;" x="57.6" xlink:href="#m5622274692" y="241.517071"/>
      </g>
     </g>
     <g id="text_11">
      <!-- −0.75 -->
      <defs>
       <path d="M 8.203125 72.90625 
L 55.078125 72.90625 
L 55.078125 68.703125 
L 28.609375 0 
L 18.3125 0 
L 43.21875 64.59375 
L 8.203125 64.59375 
z
" id="DejaVuSans-55"/>
      </defs>
      <g transform="translate(19.954687 245.31629)scale(0.1 -0.1)">
       <use xlink:href="#DejaVuSans-8722"/>
       <use x="83.789062" xlink:href="#DejaVuSans-48"/>
       <use x="147.412109" xlink:href="#DejaVuSans-46"/>
       <use x="179.199219" xlink:href="#DejaVuSans-55"/>
       <use x="242.822266" xlink:href="#DejaVuSans-53"/>
      </g>
     </g>
    </g>
    <g id="ytick_4">
     <g id="line2d_21">
      <path clip-path="url(#p54c0ba9240)" d="M 57.6 210.384548 
L 414.72 210.384548 
" style="fill:none;stroke:#b0b0b0;stroke-linecap:square;stroke-width:0.8;"/>
     </g>
     <g id="line2d_22">
      <g>
       <use style="stroke:#000000;stroke-width:0.8;" x="57.6" xlink:href="#m5622274692" y="210.384548"/>
      </g>
     </g>
     <g id="text_12">
      <!-- −0.50 -->
      <g transform="translate(19.954687 214.183767)scale(0.1 -0.1)">
       <use xlink:href="#DejaVuSans-8722"/>
       <use x="83.789062" xlink:href="#DejaVuSans-48"/>
       <use x="147.412109" xlink:href="#DejaVuSans-46"/>
       <use x="179.199219" xlink:href="#DejaVuSans-53"/>
       <use x="242.822266" xlink:href="#DejaVuSans-48"/>
      </g>
     </g>
    </g>
    <g id="ytick_5">
     <g id="line2d_23">
      <path clip-path="url(#p54c0ba9240)" d="M 57.6 179.252025 
L 414.72 179.252025 
" style="fill:none;stroke:#b0b0b0;stroke-linecap:square;stroke-width:0.8;"/>
     </g>
     <g id="line2d_24">
      <g>
       <use style="stroke:#000000;stroke-width:0.8;" x="57.6" xlink:href="#m5622274692" y="179.252025"/>
      </g>
     </g>
     <g id="text_13">
      <!-- −0.25 -->
      <g transform="translate(19.954687 183.051244)scale(0.1 -0.1)">
       <use xlink:href="#DejaVuSans-8722"/>
       <use x="83.789062" xlink:href="#DejaVuSans-48"/>
       <use x="147.412109" xlink:href="#DejaVuSans-46"/>
       <use x="179.199219" xlink:href="#DejaVuSans-50"/>
       <use x="242.822266" xlink:href="#DejaVuSans-53"/>
      </g>
     </g>
    </g>
    <g id="ytick_6">
     <g id="line2d_25">
      <path clip-path="url(#p54c0ba9240)" d="M 57.6 148.119502 
L 414.72 148.119502 
" style="fill:none;stroke:#b0b0b0;stroke-linecap:square;stroke-width:0.8;"/>
     </g>
     <g id="line2d_26">
      <g>
       <use style="stroke:#000000;stroke-width:0.8;" x="57.6" xlink:href="#m5622274692" y="148.119502"/>
      </g>
     </g>
     <g id="text_14">
      <!-- 0.00 -->
      <g transform="translate(28.334375 151.918721)scale(0.1 -0.1)">
       <use xlink:href="#DejaVuSans-48"/>
       <use x="63.623047" xlink:href="#DejaVuSans-46"/>
       <use x="95.410156" xlink:href="#DejaVuSans-48"/>
       <use x="159.033203" xlink:href="#DejaVuSans-48"/>
      </g>
     </g>
    </g>
    <g id="ytick_7">
     <g id="line2d_27">
      <path clip-path="url(#p54c0ba9240)" d="M 57.6 116.986979 
L 414.72 116.986979 
" style="fill:none;stroke:#b0b0b0;stroke-linecap:square;stroke-width:0.8;"/>
     </g>
     <g id="line2d_28">
      <g>
       <use style="stroke:#000000;stroke-width:0.8;" x="57.6" xlink:href="#m5622274692" y="116.986979"/>
      </g>
     </g>
     <g id="text_15">
      <!-- 0.25 -->
      <g transform="translate(28.334375 120.786198)scale(0.1 -0.1)">
       <use xlink:href="#DejaVuSans-48"/>
       <use x="63.623047" xlink:href="#DejaVuSans-46"/>
       <use x="95.410156" xlink:href="#DejaVuSans-50"/>
       <use x="159.033203" xlink:href="#DejaVuSans-53"/>
      </g>
     </g>
    </g>
    <g id="ytick_8">
     <g id="line2d_29">
      <path clip-path="url(#p54c0ba9240)" d="M 57.6 85.854456 
L 414.72 85.854456 
" style="fill:none;stroke:#b0b0b0;stroke-linecap:square;stroke-width:0.8;"/>
     </g>
     <g id="line2d_30">
      <g>
       <use style="stroke:#000000;stroke-width:0.8;" x="57.6" xlink:href="#m5622274692" y="85.854456"/>
      </g>
     </g>
     <g id="text_16">
      <!-- 0.50 -->
      <g transform="translate(28.334375 89.653675)scale(0.1 -0.1)">
       <use xlink:href="#DejaVuSans-48"/>
       <use x="63.623047" xlink:href="#DejaVuSans-46"/>
       <use x="95.410156" xlink:href="#DejaVuSans-53"/>
       <use x="159.033203" xlink:href="#DejaVuSans-48"/>
      </g>
     </g>
    </g>
    <g id="ytick_9">
     <g id="line2d_31">
      <path clip-path="url(#p54c0ba9240)" d="M 57.6 54.721933 
L 414.72 54.721933 
" style="fill:none;stroke:#b0b0b0;stroke-linecap:square;stroke-width:0.8;"/>
     </g>
     <g id="line2d_32">
      <g>
       <use style="stroke:#000000;stroke-width:0.8;" x="57.6" xlink:href="#m5622274692" y="54.721933"/>
      </g>
     </g>
     <g id="text_17">
      <!-- 0.75 -->
      <g transform="translate(28.334375 58.521152)scale(0.1 -0.1)">
       <use xlink:href="#DejaVuSans-48"/>
       <use x="63.623047" xlink:href="#DejaVuSans-46"/>
       <use x="95.410156" xlink:href="#DejaVuSans-55"/>
       <use x="159.033203" xlink:href="#DejaVuSans-53"/>
      </g>
     </g>
    </g>
   </g>
   <g id="line2d_33">
    <path clip-path="url(#p54c0ba9240)" d="M 73.832727 148.119502 
L 74.698617 217.409407 
L 75.239798 244.166381 
L 75.618625 253.391955 
L 75.835097 255.139706 
L 75.889215 255.192468 
L 75.943334 255.096674 
L 76.105688 253.949473 
L 76.376278 249.396244 
L 76.755105 238.433476 
L 77.458641 209.84967 
L 78.378649 174.479445 
L 78.811593 164.601784 
L 79.136302 161.197541 
L 79.298656 160.834103 
L 79.406893 161.07875 
L 79.623365 162.687705 
L 79.948074 167.640358 
L 80.435137 179.445296 
L 81.842208 216.557042 
L 82.166916 220.144089 
L 82.383389 220.719755 
L 82.491625 220.421526 
L 82.708097 218.615533 
L 82.978688 214.075895 
L 83.357515 203.623374 
L 83.898696 181.601496 
L 84.92694 127.797586 
L 85.79283 87.246231 
L 86.334011 70.826908 
L 86.712838 64.649488 
L 86.983428 62.997407 
L 87.091664 62.960709 
L 87.254019 63.543009 
L 87.470491 65.436312 
L 87.7952 70.386639 
L 88.336381 82.826756 
L 90.014042 124.973493 
L 90.501105 131.261465 
L 90.825814 133.31774 
L 91.042286 133.808188 
L 91.204641 133.765627 
L 91.421113 133.24015 
L 91.745822 131.686428 
L 92.93642 125.16853 
L 93.152893 125.010657 
L 93.315247 125.276244 
L 93.53172 126.20108 
L 93.856428 128.908205 
L 94.235255 134.132056 
L 94.776436 145.175623 
L 95.642326 168.694081 
L 96.778806 198.629079 
L 97.319987 207.777314 
L 97.698814 211.22802 
L 97.969405 212.095768 
L 98.077641 212.071031 
L 98.239995 211.645123 
L 98.510586 209.943744 
L 98.889412 205.685256 
L 99.430594 196.636244 
L 101.757672 153.7953 
L 102.298853 148.971592 
L 102.785916 146.51473 
L 103.218861 145.35043 
L 104.355342 142.938204 
L 104.788287 140.946813 
L 105.27535 137.456879 
L 105.870649 131.3926 
L 107.061247 116.136214 
L 107.818901 107.946368 
L 108.305964 104.808874 
L 108.630672 103.943856 
L 108.793027 103.911046 
L 108.955381 104.150552 
L 109.225972 105.152782 
L 109.604798 107.774795 
L 110.091861 112.999631 
L 110.849515 124.072734 
L 112.635413 151.214306 
L 113.338948 158.195596 
L 113.934247 161.987289 
L 114.475428 164.101403 
L 115.070728 165.54886 
L 116.315444 168.289576 
L 117.01898 170.610538 
L 118.480169 175.688783 
L 118.858995 176.303961 
L 119.129586 176.393544 
L 119.346058 176.221459 
L 119.616649 175.67391 
L 119.995476 174.25126 
L 120.42842 171.677839 
L 121.02372 166.623613 
L 121.889609 157.030563 
L 123.621389 137.572402 
L 124.324924 132.193997 
L 124.920224 129.254856 
L 125.407287 127.867536 
L 125.840232 127.268601 
L 126.219058 127.119808 
L 126.597885 127.219808 
L 127.139066 127.623331 
L 128.275547 128.833072 
L 129.087318 129.945875 
L 129.682617 131.153817 
L 130.223799 132.757938 
L 130.819098 135.253908 
L 131.522633 139.287796 
L 132.442641 146.062273 
L 134.499129 161.662712 
L 135.148547 164.884651 
L 135.689728 166.568383 
L 136.122673 167.251622 
L 136.447381 167.40096 
L 136.717972 167.309583 
L 137.096799 166.892311 
L 137.583862 165.949796 
L 138.287397 164.028596 
L 139.532114 159.86023 
L 141.155657 153.724895 
L 142.400373 148.106295 
L 145.160397 135.101728 
L 145.809814 133.310677 
L 146.296877 132.561672 
L 146.675704 132.353424 
L 147.000413 132.43368 
L 147.37924 132.815012 
L 147.812184 133.59655 
L 148.407484 135.174858 
L 149.273373 138.19027 
L 153.494586 153.873913 
L 154.685185 157.291257 
L 155.496956 159.032523 
L 156.092255 159.855131 
L 156.579318 160.178048 
L 156.958145 160.189723 
L 157.336972 159.98408 
L 157.769917 159.484347 
L 158.311098 158.484112 
L 159.014633 156.647131 
L 160.042877 153.223321 
L 162.478192 144.892327 
L 163.506437 142.267933 
L 164.372326 140.620428 
L 165.12998 139.613404 
L 165.779397 139.090131 
L 166.320578 138.911996 
L 166.807641 138.966603 
L 167.294704 139.235479 
L 167.835885 139.79188 
L 168.485303 140.811072 
L 169.242956 142.437239 
L 170.325318 145.350981 
L 172.706515 151.925035 
L 173.626523 153.736387 
L 174.384177 154.756511 
L 175.033594 155.281977 
L 175.628893 155.489889 
L 176.224193 155.44984 
L 176.819492 155.176468 
L 177.468909 154.628795 
L 178.226563 153.685359 
L 179.14657 152.151495 
L 180.391287 149.581045 
L 182.772484 144.56473 
L 183.692492 143.186007 
L 184.396027 142.489248 
L 185.045445 142.145412 
L 185.640744 142.081107 
L 186.236043 142.242868 
L 186.88546 142.651578 
L 187.697232 143.452005 
L 188.725476 144.822036 
L 190.240783 147.275026 
L 192.459626 150.843759 
L 193.433752 152.011871 
L 194.245523 152.658916 
L 194.949059 152.940048 
L 195.598476 152.959248 
L 196.247893 152.754819 
L 197.005547 152.260974 
L 197.925555 151.360283 
L 199.22439 149.726736 
L 202.146767 145.958184 
L 203.175012 145.016733 
L 204.040901 144.500485 
L 204.798555 144.288562 
L 205.556208 144.312708 
L 206.313862 144.568348 
L 207.179752 145.115926 
L 208.262114 146.098791 
L 210.37272 148.422494 
L 211.888027 149.904845 
L 212.97039 150.662906 
L 213.890397 151.048491 
L 214.756287 151.172775 
L 215.622177 151.062663 
L 216.542185 150.703807 
L 217.570429 150.052733 
L 219.031618 148.83134 
L 221.521051 146.735506 
L 222.657531 146.080862 
L 223.631657 145.760244 
L 224.551665 145.678703 
L 225.525791 145.821813 
L 226.554035 146.20211 
L 227.85287 146.942172 
L 232.290555 149.72182 
L 233.372917 150.0166 
L 234.401161 150.071508 
L 235.483524 149.89974 
L 236.674122 149.48031 
L 238.297665 148.652787 
L 241.32828 147.079813 
L 242.627114 146.682173 
L 243.817713 146.553321 
L 245.008311 146.658201 
L 246.307146 147.004661 
L 248.093043 147.735705 
L 251.069539 148.960759 
L 252.47661 149.287581 
L 253.775445 149.366537 
L 255.128398 149.218302 
L 256.697823 148.80752 
L 262.001398 147.20911 
L 263.462587 147.124123 
L 264.977894 147.265041 
L 266.81791 147.67892 
L 271.309713 148.798559 
L 272.987374 148.9162 
L 274.665036 148.803974 
L 276.721524 148.42781 
L 281.050973 147.573127 
L 282.890988 147.483987 
L 284.785122 147.619618 
L 287.491028 148.068297 
L 290.683996 148.549214 
L 292.740485 148.625231 
L 294.905209 148.475051 
L 302.481745 147.716114 
L 304.91706 147.864163 
L 311.898296 148.443934 
L 314.604201 148.324978 
L 321.910146 147.862297 
L 325.103115 148.008514 
L 331.110225 148.326494 
L 334.519666 148.224314 
L 341.392666 147.955867 
L 345.613879 148.100667 
L 351.02569 148.250637 
L 355.89632 148.112517 
L 361.308131 148.018967 
L 377.164737 148.075528 
L 383.009493 148.08467 
L 392.750753 148.146829 
L 398.487273 148.077592 
L 398.487273 148.077592 
" style="fill:none;stroke:#800080;stroke-linecap:square;stroke-width:1.5;"/>
   </g>
   <g id="line2d_34">
    <path clip-path="url(#p54c0ba9240)" d="M 73.832727 148.119502 
L 74.103318 148.201349 
L 74.31979 148.589442 
L 74.536263 149.508548 
L 74.806853 151.699263 
L 75.131562 156.244743 
L 75.564507 166.053909 
L 76.105688 184.400765 
L 76.91746 221.282729 
L 78.108058 275.013447 
L 78.649239 290.086142 
L 78.973948 294.584703 
L 79.19042 295.488 
L 79.298656 295.295571 
L 79.461011 294.201334 
L 79.731601 290.265801 
L 80.110428 280.573949 
L 80.651609 259.545986 
L 81.517499 215.121186 
L 82.816334 149.881159 
L 83.519869 125.475301 
L 84.115168 112.322954 
L 84.602231 105.820121 
L 85.143412 101.515546 
L 86.442247 92.979619 
L 86.983428 86.949426 
L 87.741082 75.576037 
L 88.93168 57.799621 
L 89.364625 54.319155 
L 89.635216 53.568878 
L 89.743452 53.619232 
L 89.905806 54.093984 
L 90.122279 55.501031 
L 90.446987 59.320271 
L 90.879932 67.584278 
L 91.421113 82.561237 
L 92.232885 112.017938 
L 94.018783 178.473703 
L 94.722318 195.912427 
L 95.263499 204.606855 
L 95.750562 209.243776 
L 96.129389 211.1457 
L 96.454098 211.872334 
L 96.724688 212.011919 
L 96.995279 211.859638 
L 97.428223 211.276277 
L 99.53883 207.733122 
L 99.917657 206.322638 
L 100.350601 203.757393 
L 100.837664 199.260789 
L 101.378846 191.885736 
L 102.028263 179.592184 
L 102.894153 158.396923 
L 104.950641 106.298433 
L 105.600058 95.666972 
L 106.141239 90.163453 
L 106.520066 88.118458 
L 106.790657 87.505738 
L 106.953011 87.45029 
L 107.115365 87.611198 
L 107.385956 88.316591 
L 107.764783 90.090108 
L 108.305964 93.819793 
L 109.225972 101.967112 
L 110.957751 119.533741 
L 112.040113 132.792514 
L 113.068357 148.291234 
L 115.666027 189.33464 
L 116.261326 194.974075 
L 116.748389 197.683604 
L 117.073098 198.486075 
L 117.28957 198.577741 
L 117.506043 198.324931 
L 117.776633 197.546092 
L 118.15546 195.658605 
L 118.696641 191.582434 
L 119.454295 183.896626 
L 121.077838 164.375796 
L 123.242562 139.483103 
L 124.974342 121.733174 
L 125.89435 114.385796 
L 126.489649 111.129543 
L 126.922594 109.717304 
L 127.247302 109.24807 
L 127.463775 109.229457 
L 127.680247 109.450116 
L 127.950838 110.062252 
L 128.329665 111.533734 
L 128.816728 114.414163 
L 129.466145 119.738687 
L 130.440271 129.900741 
L 132.983822 157.352282 
L 134.012066 165.707959 
L 134.932074 171.419088 
L 135.689728 174.821985 
L 136.285027 176.592197 
L 136.717972 177.323886 
L 137.04268 177.538456 
L 137.313271 177.48554 
L 137.63798 177.132266 
L 138.016806 176.308553 
L 138.503869 174.590087 
L 139.099169 171.509719 
L 139.856822 166.202985 
L 140.939184 156.741006 
L 143.103909 137.470652 
L 143.969799 131.725158 
L 144.727452 128.097012 
L 145.322751 126.192682 
L 145.809814 125.238894 
L 146.242759 124.830805 
L 146.567468 124.787227 
L 146.892177 124.962354 
L 147.271003 125.436445 
L 147.758066 126.462082 
L 148.353366 128.331268 
L 149.056901 131.368152 
L 149.922791 136.199627 
L 151.167507 144.634693 
L 153.223996 158.633782 
L 154.089885 163.018216 
L 154.793421 165.496567 
L 155.334602 166.678658 
L 155.767547 167.167506 
L 156.146373 167.271514 
L 156.471082 167.130536 
L 156.849909 166.712422 
L 157.336972 165.803276 
L 157.932271 164.184728 
L 158.689925 161.441295 
L 159.718169 156.776937 
L 161.39583 147.897127 
L 163.073492 139.412469 
L 163.9935 135.850138 
L 164.697035 133.950246 
L 165.238216 133.051333 
L 165.671161 132.702225 
L 166.049988 132.667347 
L 166.428814 132.879138 
L 166.861759 133.409198 
L 167.40294 134.469318 
L 168.106476 136.417248 
L 169.026484 139.70485 
L 170.595909 146.320164 
L 172.435925 153.843309 
L 173.464169 157.15644 
L 174.221822 158.934675 
L 174.817122 159.858466 
L 175.304185 160.27684 
L 175.73713 160.384616 
L 176.170074 160.242837 
L 176.603019 159.856865 
L 177.1442 159.049042 
L 177.793618 157.650443 
L 178.659507 155.198095 
L 180.01246 150.572767 
L 182.01483 143.809898 
L 183.043074 141.120955 
L 183.854846 139.59459 
L 184.504263 138.80989 
L 185.045445 138.471473 
L 185.532508 138.417646 
L 186.019571 138.600399 
L 186.560752 139.0729 
L 187.156051 139.900064 
L 187.913704 141.363435 
L 188.88783 143.765835 
L 192.62198 153.530389 
L 193.433752 154.8246 
L 194.137287 155.540469 
L 194.732586 155.836267 
L 195.273767 155.857528 
L 195.814949 155.648928 
L 196.410248 155.167992 
L 197.113783 154.291003 
L 197.979673 152.826035 
L 199.22439 150.211943 
L 201.822059 144.644157 
L 202.742067 143.21723 
L 203.49972 142.409827 
L 204.149138 142.012565 
L 204.744437 141.894785 
L 205.339736 142.008739 
L 205.989153 142.382674 
L 206.746807 143.114065 
L 207.666815 144.352347 
L 208.965649 146.527968 
L 211.509201 150.850553 
L 212.483327 152.055812 
L 213.295098 152.730622 
L 213.998634 153.040857 
L 214.648051 153.092597 
L 215.297468 152.923722 
L 216.001004 152.509238 
L 216.866894 151.713707 
L 217.949256 150.388643 
L 221.899878 145.233322 
L 222.819886 144.54278 
L 223.631657 144.212361 
L 224.389311 144.153865 
L 225.146964 144.333045 
L 225.958736 144.767725 
L 226.932862 145.5656 
L 228.285815 147.003784 
L 230.937602 149.882652 
L 232.019965 150.706701 
L 232.939972 151.136745 
L 233.751744 151.285964 
L 234.563516 151.216194 
L 235.429406 150.914238 
L 236.403531 150.333226 
L 237.702366 149.276584 
L 241.003571 146.462549 
L 242.085933 145.889986 
L 243.060059 145.624893 
L 243.980067 145.606648 
L 244.954193 145.823973 
L 246.036555 146.312254 
L 247.443626 147.220149 
L 250.798949 149.488193 
L 251.935429 149.945085 
L 252.963673 150.132208 
L 253.991917 150.093612 
L 255.07428 149.826095 
L 256.373114 149.260152 
L 258.646075 147.963356 
L 260.486091 147.034889 
L 261.784925 146.63005 
L 262.921406 146.502327 
L 264.057886 146.593367 
L 265.356721 146.934157 
L 267.034382 147.628617 
L 270.281469 149.014293 
L 271.68854 149.339205 
L 272.987374 149.406588 
L 274.286209 149.25124 
L 275.855634 148.824768 
L 281.105091 147.182173 
L 282.56628 147.088698 
L 284.027469 147.221127 
L 285.813366 147.624141 
L 290.629878 148.846334 
L 292.253422 148.943193 
L 293.931083 148.810394 
L 296.041689 148.396256 
L 300.04643 147.57153 
L 301.886445 147.460973 
L 303.726461 147.577888 
L 306.161776 147.97674 
L 309.787689 148.560575 
L 311.79006 148.643929 
L 313.900666 148.503815 
L 317.634815 147.970853 
L 320.286603 147.719747 
L 322.559564 147.736042 
L 325.373705 148.004034 
L 329.81139 148.432058 
L 332.354942 148.421798 
L 335.656146 148.155593 
L 339.769123 147.862578 
L 342.637383 147.903124 
L 352.432761 148.288741 
L 362.282257 147.989155 
L 372.077635 148.221115 
L 382.035367 148.044302 
L 391.830745 148.177794 
L 398.487273 148.050468 
L 398.487273 148.050468 
" style="fill:none;stroke:#008000;stroke-linecap:square;stroke-width:1.5;"/>
   </g>
   <g id="patch_3">
    <path d="M 57.6 307.584 
L 57.6 41.472 
" style="fill:none;stroke:#000000;stroke-linecap:square;stroke-linejoin:miter;stroke-width:0.8;"/>
   </g>
   <g id="patch_4">
    <path d="M 414.72 307.584 
L 414.72 41.472 
" style="fill:none;stroke:#000000;stroke-linecap:square;stroke-linejoin:miter;stroke-width:0.8;"/>
   </g>
   <g id="patch_5">
    <path d="M 57.6 307.584 
L 414.72 307.584 
" style="fill:none;stroke:#000000;stroke-linecap:square;stroke-linejoin:miter;stroke-width:0.8;"/>
   </g>
   <g id="patch_6">
    <path d="M 57.6 41.472 
L 414.72 41.472 
" style="fill:none;stroke:#000000;stroke-linecap:square;stroke-linejoin:miter;stroke-width:0.8;"/>
   </g>
   <g id="text_18">
    <!-- Mass Velocities for the -->
    <defs>
     <path d="M 9.8125 72.90625 
L 24.515625 72.90625 
L 43.109375 23.296875 
L 61.8125 72.90625 
L 76.515625 72.90625 
L 76.515625 0 
L 66.890625 0 
L 66.890625 64.015625 
L 48.09375 14.015625 
L 38.1875 14.015625 
L 19.390625 64.015625 
L 19.390625 0 
L 9.8125 0 
z
" id="DejaVuSans-77"/>
     <path d="M 34.28125 27.484375 
Q 23.390625 27.484375 19.1875 25 
Q 14.984375 22.515625 14.984375 16.5 
Q 14.984375 11.71875 18.140625 8.90625 
Q 21.296875 6.109375 26.703125 6.109375 
Q 34.1875 6.109375 38.703125 11.40625 
Q 43.21875 16.703125 43.21875 25.484375 
L 43.21875 27.484375 
z
M 52.203125 31.203125 
L 52.203125 0 
L 43.21875 0 
L 43.21875 8.296875 
Q 40.140625 3.328125 35.546875 0.953125 
Q 30.953125 -1.421875 24.3125 -1.421875 
Q 15.921875 -1.421875 10.953125 3.296875 
Q 6 8.015625 6 15.921875 
Q 6 25.140625 12.171875 29.828125 
Q 18.359375 34.515625 30.609375 34.515625 
L 43.21875 34.515625 
L 43.21875 35.40625 
Q 43.21875 41.609375 39.140625 45 
Q 35.0625 48.390625 27.6875 48.390625 
Q 23 48.390625 18.546875 47.265625 
Q 14.109375 46.140625 10.015625 43.890625 
L 10.015625 52.203125 
Q 14.9375 54.109375 19.578125 55.046875 
Q 24.21875 56 28.609375 56 
Q 40.484375 56 46.34375 49.84375 
Q 52.203125 43.703125 52.203125 31.203125 
z
" id="DejaVuSans-97"/>
     <path d="M 44.28125 53.078125 
L 44.28125 44.578125 
Q 40.484375 46.53125 36.375 47.5 
Q 32.28125 48.484375 27.875 48.484375 
Q 21.1875 48.484375 17.84375 46.4375 
Q 14.5 44.390625 14.5 40.28125 
Q 14.5 37.15625 16.890625 35.375 
Q 19.28125 33.59375 26.515625 31.984375 
L 29.59375 31.296875 
Q 39.15625 29.25 43.1875 25.515625 
Q 47.21875 21.78125 47.21875 15.09375 
Q 47.21875 7.46875 41.1875 3.015625 
Q 35.15625 -1.421875 24.609375 -1.421875 
Q 20.21875 -1.421875 15.453125 -0.5625 
Q 10.6875 0.296875 5.421875 2 
L 5.421875 11.28125 
Q 10.40625 8.6875 15.234375 7.390625 
Q 20.0625 6.109375 24.8125 6.109375 
Q 31.15625 6.109375 34.5625 8.28125 
Q 37.984375 10.453125 37.984375 14.40625 
Q 37.984375 18.0625 35.515625 20.015625 
Q 33.0625 21.96875 24.703125 23.78125 
L 21.578125 24.515625 
Q 13.234375 26.265625 9.515625 29.90625 
Q 5.8125 33.546875 5.8125 39.890625 
Q 5.8125 47.609375 11.28125 51.796875 
Q 16.75 56 26.8125 56 
Q 31.78125 56 36.171875 55.265625 
Q 40.578125 54.546875 44.28125 53.078125 
z
" id="DejaVuSans-115"/>
     <path id="DejaVuSans-32"/>
     <path d="M 28.609375 0 
L 0.78125 72.90625 
L 11.078125 72.90625 
L 34.1875 11.53125 
L 57.328125 72.90625 
L 67.578125 72.90625 
L 39.796875 0 
z
" id="DejaVuSans-86"/>
     <path d="M 56.203125 29.59375 
L 56.203125 25.203125 
L 14.890625 25.203125 
Q 15.484375 15.921875 20.484375 11.0625 
Q 25.484375 6.203125 34.421875 6.203125 
Q 39.59375 6.203125 44.453125 7.46875 
Q 49.3125 8.734375 54.109375 11.28125 
L 54.109375 2.78125 
Q 49.265625 0.734375 44.1875 -0.34375 
Q 39.109375 -1.421875 33.890625 -1.421875 
Q 20.796875 -1.421875 13.15625 6.1875 
Q 5.515625 13.8125 5.515625 26.8125 
Q 5.515625 40.234375 12.765625 48.109375 
Q 20.015625 56 32.328125 56 
Q 43.359375 56 49.78125 48.890625 
Q 56.203125 41.796875 56.203125 29.59375 
z
M 47.21875 32.234375 
Q 47.125 39.59375 43.09375 43.984375 
Q 39.0625 48.390625 32.421875 48.390625 
Q 24.90625 48.390625 20.390625 44.140625 
Q 15.875 39.890625 15.1875 32.171875 
z
" id="DejaVuSans-101"/>
     <path d="M 9.421875 75.984375 
L 18.40625 75.984375 
L 18.40625 0 
L 9.421875 0 
z
" id="DejaVuSans-108"/>
     <path d="M 30.609375 48.390625 
Q 23.390625 48.390625 19.1875 42.75 
Q 14.984375 37.109375 14.984375 27.296875 
Q 14.984375 17.484375 19.15625 11.84375 
Q 23.34375 6.203125 30.609375 6.203125 
Q 37.796875 6.203125 41.984375 11.859375 
Q 46.1875 17.53125 46.1875 27.296875 
Q 46.1875 37.015625 41.984375 42.703125 
Q 37.796875 48.390625 30.609375 48.390625 
z
M 30.609375 56 
Q 42.328125 56 49.015625 48.375 
Q 55.71875 40.765625 55.71875 27.296875 
Q 55.71875 13.875 49.015625 6.21875 
Q 42.328125 -1.421875 30.609375 -1.421875 
Q 18.84375 -1.421875 12.171875 6.21875 
Q 5.515625 13.875 5.515625 27.296875 
Q 5.515625 40.765625 12.171875 48.375 
Q 18.84375 56 30.609375 56 
z
" id="DejaVuSans-111"/>
     <path d="M 48.78125 52.59375 
L 48.78125 44.1875 
Q 44.96875 46.296875 41.140625 47.34375 
Q 37.3125 48.390625 33.40625 48.390625 
Q 24.65625 48.390625 19.8125 42.84375 
Q 14.984375 37.3125 14.984375 27.296875 
Q 14.984375 17.28125 19.8125 11.734375 
Q 24.65625 6.203125 33.40625 6.203125 
Q 37.3125 6.203125 41.140625 7.25 
Q 44.96875 8.296875 48.78125 10.40625 
L 48.78125 2.09375 
Q 45.015625 0.34375 40.984375 -0.53125 
Q 36.96875 -1.421875 32.421875 -1.421875 
Q 20.0625 -1.421875 12.78125 6.34375 
Q 5.515625 14.109375 5.515625 27.296875 
Q 5.515625 40.671875 12.859375 48.328125 
Q 20.21875 56 33.015625 56 
Q 37.15625 56 41.109375 55.140625 
Q 45.0625 54.296875 48.78125 52.59375 
z
" id="DejaVuSans-99"/>
     <path d="M 9.421875 54.6875 
L 18.40625 54.6875 
L 18.40625 0 
L 9.421875 0 
z
M 9.421875 75.984375 
L 18.40625 75.984375 
L 18.40625 64.59375 
L 9.421875 64.59375 
z
" id="DejaVuSans-105"/>
     <path d="M 37.109375 75.984375 
L 37.109375 68.5 
L 28.515625 68.5 
Q 23.6875 68.5 21.796875 66.546875 
Q 19.921875 64.59375 19.921875 59.515625 
L 19.921875 54.6875 
L 34.71875 54.6875 
L 34.71875 47.703125 
L 19.921875 47.703125 
L 19.921875 0 
L 10.890625 0 
L 10.890625 47.703125 
L 2.296875 47.703125 
L 2.296875 54.6875 
L 10.890625 54.6875 
L 10.890625 58.5 
Q 10.890625 67.625 15.140625 71.796875 
Q 19.390625 75.984375 28.609375 75.984375 
z
" id="DejaVuSans-102"/>
     <path d="M 41.109375 46.296875 
Q 39.59375 47.171875 37.8125 47.578125 
Q 36.03125 48 33.890625 48 
Q 26.265625 48 22.1875 43.046875 
Q 18.109375 38.09375 18.109375 28.8125 
L 18.109375 0 
L 9.078125 0 
L 9.078125 54.6875 
L 18.109375 54.6875 
L 18.109375 46.1875 
Q 20.953125 51.171875 25.484375 53.578125 
Q 30.03125 56 36.53125 56 
Q 37.453125 56 38.578125 55.875 
Q 39.703125 55.765625 41.0625 55.515625 
z
" id="DejaVuSans-114"/>
     <path d="M 54.890625 33.015625 
L 54.890625 0 
L 45.90625 0 
L 45.90625 32.71875 
Q 45.90625 40.484375 42.875 44.328125 
Q 39.84375 48.1875 33.796875 48.1875 
Q 26.515625 48.1875 22.3125 43.546875 
Q 18.109375 38.921875 18.109375 30.90625 
L 18.109375 0 
L 9.078125 0 
L 9.078125 75.984375 
L 18.109375 75.984375 
L 18.109375 46.1875 
Q 21.34375 51.125 25.703125 53.5625 
Q 30.078125 56 35.796875 56 
Q 45.21875 56 50.046875 50.171875 
Q 54.890625 44.34375 54.890625 33.015625 
z
" id="DejaVuSans-104"/>
    </defs>
    <g transform="translate(168.3075 22.034625)scale(0.12 -0.12)">
     <use xlink:href="#DejaVuSans-77"/>
     <use x="86.279297" xlink:href="#DejaVuSans-97"/>
     <use x="147.558594" xlink:href="#DejaVuSans-115"/>
     <use x="199.658203" xlink:href="#DejaVuSans-115"/>
     <use x="251.757812" xlink:href="#DejaVuSans-32"/>
     <use x="283.544922" xlink:href="#DejaVuSans-86"/>
     <use x="351.84375" xlink:href="#DejaVuSans-101"/>
     <use x="413.367188" xlink:href="#DejaVuSans-108"/>
     <use x="441.150391" xlink:href="#DejaVuSans-111"/>
     <use x="502.332031" xlink:href="#DejaVuSans-99"/>
     <use x="557.3125" xlink:href="#DejaVuSans-105"/>
     <use x="585.095703" xlink:href="#DejaVuSans-116"/>
     <use x="624.304688" xlink:href="#DejaVuSans-105"/>
     <use x="652.087891" xlink:href="#DejaVuSans-101"/>
     <use x="713.611328" xlink:href="#DejaVuSans-115"/>
     <use x="765.710938" xlink:href="#DejaVuSans-32"/>
     <use x="797.498047" xlink:href="#DejaVuSans-102"/>
     <use x="832.703125" xlink:href="#DejaVuSans-111"/>
     <use x="893.884766" xlink:href="#DejaVuSans-114"/>
     <use x="934.998047" xlink:href="#DejaVuSans-32"/>
     <use x="966.785156" xlink:href="#DejaVuSans-116"/>
     <use x="1005.994141" xlink:href="#DejaVuSans-104"/>
     <use x="1069.373047" xlink:href="#DejaVuSans-101"/>
    </g>
    <!-- Coupled Spring-Mass System -->
    <defs>
     <path d="M 64.40625 67.28125 
L 64.40625 56.890625 
Q 59.421875 61.53125 53.78125 63.8125 
Q 48.140625 66.109375 41.796875 66.109375 
Q 29.296875 66.109375 22.65625 58.46875 
Q 16.015625 50.828125 16.015625 36.375 
Q 16.015625 21.96875 22.65625 14.328125 
Q 29.296875 6.6875 41.796875 6.6875 
Q 48.140625 6.6875 53.78125 8.984375 
Q 59.421875 11.28125 64.40625 15.921875 
L 64.40625 5.609375 
Q 59.234375 2.09375 53.4375 0.328125 
Q 47.65625 -1.421875 41.21875 -1.421875 
Q 24.65625 -1.421875 15.125 8.703125 
Q 5.609375 18.84375 5.609375 36.375 
Q 5.609375 53.953125 15.125 64.078125 
Q 24.65625 74.21875 41.21875 74.21875 
Q 47.75 74.21875 53.53125 72.484375 
Q 59.328125 70.75 64.40625 67.28125 
z
" id="DejaVuSans-67"/>
     <path d="M 8.5 21.578125 
L 8.5 54.6875 
L 17.484375 54.6875 
L 17.484375 21.921875 
Q 17.484375 14.15625 20.5 10.265625 
Q 23.53125 6.390625 29.59375 6.390625 
Q 36.859375 6.390625 41.078125 11.03125 
Q 45.3125 15.671875 45.3125 23.6875 
L 45.3125 54.6875 
L 54.296875 54.6875 
L 54.296875 0 
L 45.3125 0 
L 45.3125 8.40625 
Q 42.046875 3.421875 37.71875 1 
Q 33.40625 -1.421875 27.6875 -1.421875 
Q 18.265625 -1.421875 13.375 4.4375 
Q 8.5 10.296875 8.5 21.578125 
z
M 31.109375 56 
z
" id="DejaVuSans-117"/>
     <path d="M 18.109375 8.203125 
L 18.109375 -20.796875 
L 9.078125 -20.796875 
L 9.078125 54.6875 
L 18.109375 54.6875 
L 18.109375 46.390625 
Q 20.953125 51.265625 25.265625 53.625 
Q 29.59375 56 35.59375 56 
Q 45.5625 56 51.78125 48.09375 
Q 58.015625 40.1875 58.015625 27.296875 
Q 58.015625 14.40625 51.78125 6.484375 
Q 45.5625 -1.421875 35.59375 -1.421875 
Q 29.59375 -1.421875 25.265625 0.953125 
Q 20.953125 3.328125 18.109375 8.203125 
z
M 48.6875 27.296875 
Q 48.6875 37.203125 44.609375 42.84375 
Q 40.53125 48.484375 33.40625 48.484375 
Q 26.265625 48.484375 22.1875 42.84375 
Q 18.109375 37.203125 18.109375 27.296875 
Q 18.109375 17.390625 22.1875 11.75 
Q 26.265625 6.109375 33.40625 6.109375 
Q 40.53125 6.109375 44.609375 11.75 
Q 48.6875 17.390625 48.6875 27.296875 
z
" id="DejaVuSans-112"/>
     <path d="M 45.40625 46.390625 
L 45.40625 75.984375 
L 54.390625 75.984375 
L 54.390625 0 
L 45.40625 0 
L 45.40625 8.203125 
Q 42.578125 3.328125 38.25 0.953125 
Q 33.9375 -1.421875 27.875 -1.421875 
Q 17.96875 -1.421875 11.734375 6.484375 
Q 5.515625 14.40625 5.515625 27.296875 
Q 5.515625 40.1875 11.734375 48.09375 
Q 17.96875 56 27.875 56 
Q 33.9375 56 38.25 53.625 
Q 42.578125 51.265625 45.40625 46.390625 
z
M 14.796875 27.296875 
Q 14.796875 17.390625 18.875 11.75 
Q 22.953125 6.109375 30.078125 6.109375 
Q 37.203125 6.109375 41.296875 11.75 
Q 45.40625 17.390625 45.40625 27.296875 
Q 45.40625 37.203125 41.296875 42.84375 
Q 37.203125 48.484375 30.078125 48.484375 
Q 22.953125 48.484375 18.875 42.84375 
Q 14.796875 37.203125 14.796875 27.296875 
z
" id="DejaVuSans-100"/>
     <path d="M 53.515625 70.515625 
L 53.515625 60.890625 
Q 47.90625 63.578125 42.921875 64.890625 
Q 37.9375 66.21875 33.296875 66.21875 
Q 25.25 66.21875 20.875 63.09375 
Q 16.5 59.96875 16.5 54.203125 
Q 16.5 49.359375 19.40625 46.890625 
Q 22.3125 44.4375 30.421875 42.921875 
L 36.375 41.703125 
Q 47.40625 39.59375 52.65625 34.296875 
Q 57.90625 29 57.90625 20.125 
Q 57.90625 9.515625 50.796875 4.046875 
Q 43.703125 -1.421875 29.984375 -1.421875 
Q 24.8125 -1.421875 18.96875 -0.25 
Q 13.140625 0.921875 6.890625 3.21875 
L 6.890625 13.375 
Q 12.890625 10.015625 18.65625 8.296875 
Q 24.421875 6.59375 29.984375 6.59375 
Q 38.421875 6.59375 43.015625 9.90625 
Q 47.609375 13.234375 47.609375 19.390625 
Q 47.609375 24.75 44.3125 27.78125 
Q 41.015625 30.8125 33.5 32.328125 
L 27.484375 33.5 
Q 16.453125 35.6875 11.515625 40.375 
Q 6.59375 45.0625 6.59375 53.421875 
Q 6.59375 63.09375 13.40625 68.65625 
Q 20.21875 74.21875 32.171875 74.21875 
Q 37.3125 74.21875 42.625 73.28125 
Q 47.953125 72.359375 53.515625 70.515625 
z
" id="DejaVuSans-83"/>
     <path d="M 54.890625 33.015625 
L 54.890625 0 
L 45.90625 0 
L 45.90625 32.71875 
Q 45.90625 40.484375 42.875 44.328125 
Q 39.84375 48.1875 33.796875 48.1875 
Q 26.515625 48.1875 22.3125 43.546875 
Q 18.109375 38.921875 18.109375 30.90625 
L 18.109375 0 
L 9.078125 0 
L 9.078125 54.6875 
L 18.109375 54.6875 
L 18.109375 46.1875 
Q 21.34375 51.125 25.703125 53.5625 
Q 30.078125 56 35.796875 56 
Q 45.21875 56 50.046875 50.171875 
Q 54.890625 44.34375 54.890625 33.015625 
z
" id="DejaVuSans-110"/>
     <path d="M 45.40625 27.984375 
Q 45.40625 37.75 41.375 43.109375 
Q 37.359375 48.484375 30.078125 48.484375 
Q 22.859375 48.484375 18.828125 43.109375 
Q 14.796875 37.75 14.796875 27.984375 
Q 14.796875 18.265625 18.828125 12.890625 
Q 22.859375 7.515625 30.078125 7.515625 
Q 37.359375 7.515625 41.375 12.890625 
Q 45.40625 18.265625 45.40625 27.984375 
z
M 54.390625 6.78125 
Q 54.390625 -7.171875 48.1875 -13.984375 
Q 42 -20.796875 29.203125 -20.796875 
Q 24.46875 -20.796875 20.265625 -20.09375 
Q 16.0625 -19.390625 12.109375 -17.921875 
L 12.109375 -9.1875 
Q 16.0625 -11.328125 19.921875 -12.34375 
Q 23.78125 -13.375 27.78125 -13.375 
Q 36.625 -13.375 41.015625 -8.765625 
Q 45.40625 -4.15625 45.40625 5.171875 
L 45.40625 9.625 
Q 42.625 4.78125 38.28125 2.390625 
Q 33.9375 0 27.875 0 
Q 17.828125 0 11.671875 7.65625 
Q 5.515625 15.328125 5.515625 27.984375 
Q 5.515625 40.671875 11.671875 48.328125 
Q 17.828125 56 27.875 56 
Q 33.9375 56 38.28125 53.609375 
Q 42.625 51.21875 45.40625 46.390625 
L 45.40625 54.6875 
L 54.390625 54.6875 
z
" id="DejaVuSans-103"/>
     <path d="M 4.890625 31.390625 
L 31.203125 31.390625 
L 31.203125 23.390625 
L 4.890625 23.390625 
z
" id="DejaVuSans-45"/>
     <path d="M 32.171875 -5.078125 
Q 28.375 -14.84375 24.75 -17.8125 
Q 21.140625 -20.796875 15.09375 -20.796875 
L 7.90625 -20.796875 
L 7.90625 -13.28125 
L 13.1875 -13.28125 
Q 16.890625 -13.28125 18.9375 -11.515625 
Q 21 -9.765625 23.484375 -3.21875 
L 25.09375 0.875 
L 2.984375 54.6875 
L 12.5 54.6875 
L 29.59375 11.921875 
L 46.6875 54.6875 
L 56.203125 54.6875 
z
" id="DejaVuSans-121"/>
     <path d="M 52 44.1875 
Q 55.375 50.25 60.0625 53.125 
Q 64.75 56 71.09375 56 
Q 79.640625 56 84.28125 50.015625 
Q 88.921875 44.046875 88.921875 33.015625 
L 88.921875 0 
L 79.890625 0 
L 79.890625 32.71875 
Q 79.890625 40.578125 77.09375 44.375 
Q 74.3125 48.1875 68.609375 48.1875 
Q 61.625 48.1875 57.5625 43.546875 
Q 53.515625 38.921875 53.515625 30.90625 
L 53.515625 0 
L 44.484375 0 
L 44.484375 32.71875 
Q 44.484375 40.625 41.703125 44.40625 
Q 38.921875 48.1875 33.109375 48.1875 
Q 26.21875 48.1875 22.15625 43.53125 
Q 18.109375 38.875 18.109375 30.90625 
L 18.109375 0 
L 9.078125 0 
L 9.078125 54.6875 
L 18.109375 54.6875 
L 18.109375 46.1875 
Q 21.1875 51.21875 25.484375 53.609375 
Q 29.78125 56 35.6875 56 
Q 41.65625 56 45.828125 52.96875 
Q 50 49.953125 52 44.1875 
z
" id="DejaVuSans-109"/>
    </defs>
    <g transform="translate(148.69875 35.472)scale(0.12 -0.12)">
     <use xlink:href="#DejaVuSans-67"/>
     <use x="69.824219" xlink:href="#DejaVuSans-111"/>
     <use x="131.005859" xlink:href="#DejaVuSans-117"/>
     <use x="194.384766" xlink:href="#DejaVuSans-112"/>
     <use x="257.861328" xlink:href="#DejaVuSans-108"/>
     <use x="285.644531" xlink:href="#DejaVuSans-101"/>
     <use x="347.167969" xlink:href="#DejaVuSans-100"/>
     <use x="410.644531" xlink:href="#DejaVuSans-32"/>
     <use x="442.431641" xlink:href="#DejaVuSans-83"/>
     <use x="505.908203" xlink:href="#DejaVuSans-112"/>
     <use x="569.384766" xlink:href="#DejaVuSans-114"/>
     <use x="610.498047" xlink:href="#DejaVuSans-105"/>
     <use x="638.28125" xlink:href="#DejaVuSans-110"/>
     <use x="701.660156" xlink:href="#DejaVuSans-103"/>
     <use x="765.136719" xlink:href="#DejaVuSans-45"/>
     <use x="801.220703" xlink:href="#DejaVuSans-77"/>
     <use x="887.5" xlink:href="#DejaVuSans-97"/>
     <use x="948.779297" xlink:href="#DejaVuSans-115"/>
     <use x="1000.878906" xlink:href="#DejaVuSans-115"/>
     <use x="1052.978516" xlink:href="#DejaVuSans-32"/>
     <use x="1084.765625" xlink:href="#DejaVuSans-83"/>
     <use x="1148.242188" xlink:href="#DejaVuSans-121"/>
     <use x="1207.421875" xlink:href="#DejaVuSans-115"/>
     <use x="1259.521484" xlink:href="#DejaVuSans-116"/>
     <use x="1298.730469" xlink:href="#DejaVuSans-101"/>
     <use x="1360.253906" xlink:href="#DejaVuSans-109"/>
    </g>
   </g>
   <g id="legend_1">
    <g id="patch_7">
     <path d="M 353.32 78.82825 
L 407.72 78.82825 
Q 409.72 78.82825 409.72 76.82825 
L 409.72 48.472 
Q 409.72 46.472 407.72 46.472 
L 353.32 46.472 
Q 351.32 46.472 351.32 48.472 
L 351.32 76.82825 
Q 351.32 78.82825 353.32 78.82825 
z
" style="fill:#ffffff;opacity:0.8;stroke:#cccccc;stroke-linejoin:miter;"/>
    </g>
    <g id="line2d_35">
     <path d="M 355.32 54.570437 
L 375.32 54.570437 
" style="fill:none;stroke:#800080;stroke-linecap:square;stroke-width:1.5;"/>
    </g>
    <g id="line2d_36"/>
    <g id="text_19">
     <!-- $v_1(t)$ -->
     <defs>
      <path d="M 7.171875 54.6875 
L 16.703125 54.6875 
L 24.703125 8.203125 
L 50.875 54.6875 
L 60.40625 54.6875 
L 29.296875 0 
L 17.1875 0 
z
" id="DejaVuSans-Oblique-118"/>
      <path d="M 31 75.875 
Q 24.46875 64.65625 21.28125 53.65625 
Q 18.109375 42.671875 18.109375 31.390625 
Q 18.109375 20.125 21.3125 9.0625 
Q 24.515625 -2 31 -13.1875 
L 23.1875 -13.1875 
Q 15.875 -1.703125 12.234375 9.375 
Q 8.59375 20.453125 8.59375 31.390625 
Q 8.59375 42.28125 12.203125 53.3125 
Q 15.828125 64.359375 23.1875 75.875 
z
" id="DejaVuSans-40"/>
      <path d="M 42.28125 54.6875 
L 40.921875 47.703125 
L 23 47.703125 
L 17.1875 18.015625 
Q 16.890625 16.359375 16.75 15.234375 
Q 16.609375 14.109375 16.609375 13.484375 
Q 16.609375 10.359375 18.484375 8.9375 
Q 20.359375 7.515625 24.515625 7.515625 
L 33.59375 7.515625 
L 32.078125 0 
L 23.484375 0 
Q 15.484375 0 11.546875 3.125 
Q 7.625 6.25 7.625 12.59375 
Q 7.625 13.71875 7.765625 15.0625 
Q 7.90625 16.40625 8.203125 18.015625 
L 14.015625 47.703125 
L 6.390625 47.703125 
L 7.8125 54.6875 
L 15.28125 54.6875 
L 18.3125 70.21875 
L 27.296875 70.21875 
L 24.3125 54.6875 
z
" id="DejaVuSans-Oblique-116"/>
      <path d="M 8.015625 75.875 
L 15.828125 75.875 
Q 23.140625 64.359375 26.78125 53.3125 
Q 30.421875 42.28125 30.421875 31.390625 
Q 30.421875 20.453125 26.78125 9.375 
Q 23.140625 -1.703125 15.828125 -13.1875 
L 8.015625 -13.1875 
Q 14.5 -2 17.703125 9.0625 
Q 20.90625 20.125 20.90625 31.390625 
Q 20.90625 42.671875 17.703125 53.65625 
Q 14.5 64.65625 8.015625 75.875 
z
" id="DejaVuSans-41"/>
     </defs>
     <g transform="translate(383.32 58.070437)scale(0.1 -0.1)">
      <use transform="translate(0 0.125)" xlink:href="#DejaVuSans-Oblique-118"/>
      <use transform="translate(59.179688 -16.28125)scale(0.7)" xlink:href="#DejaVuSans-49"/>
      <use transform="translate(106.450195 0.125)" xlink:href="#DejaVuSans-40"/>
      <use transform="translate(145.463867 0.125)" xlink:href="#DejaVuSans-Oblique-116"/>
      <use transform="translate(184.672852 0.125)" xlink:href="#DejaVuSans-41"/>
     </g>
    </g>
    <g id="line2d_37">
     <path d="M 355.32 69.248562 
L 375.32 69.248562 
" style="fill:none;stroke:#008000;stroke-linecap:square;stroke-width:1.5;"/>
    </g>
    <g id="line2d_38"/>
    <g id="text_20">
     <!-- $v_2(t)$ -->
     <g transform="translate(383.32 72.748562)scale(0.1 -0.1)">
      <use transform="translate(0 0.125)" xlink:href="#DejaVuSans-Oblique-118"/>
      <use transform="translate(59.179688 -16.28125)scale(0.7)" xlink:href="#DejaVuSans-50"/>
      <use transform="translate(106.450195 0.125)" xlink:href="#DejaVuSans-40"/>
      <use transform="translate(145.463867 0.125)" xlink:href="#DejaVuSans-Oblique-116"/>
      <use transform="translate(184.672852 0.125)" xlink:href="#DejaVuSans-41"/>
     </g>
    </g>
   </g>
  </g>
 </g>
 <defs>
  <clipPath id="p54c0ba9240">
   <rect height="266.112" width="357.12" x="57.6" y="41.472"/>
  </clipPath>
 </defs>
</svg>
