<?xml version="1.0" encoding="utf-8" standalone="no"?>
<!DOCTYPE svg PUBLIC "-//W3C//DTD SVG 1.1//EN"
  "http://www.w3.org/Graphics/SVG/1.1/DTD/svg11.dtd">
<!-- Created with matplotlib (https://matplotlib.org/) -->
<svg height="345.6pt" version="1.1" viewBox="0 0 460.8 345.6" width="460.8pt" xmlns="http://www.w3.org/2000/svg" xmlns:xlink="http://www.w3.org/1999/xlink">
 <defs>
  <style type="text/css">
*{stroke-linecap:butt;stroke-linejoin:round;}
  </style>
 </defs>
 <g id="figure_1">
  <g id="patch_1">
   <path d="M 0 345.6 
L 460.8 345.6 
L 460.8 0 
L 0 0 
z
" style="fill:#ffffff;"/>
  </g>
  <g id="axes_1">
   <g id="patch_2">
    <path d="M 57.6 307.584 
L 414.72 307.584 
L 414.72 41.472 
L 57.6 41.472 
z
" style="fill:#ffffff;"/>
   </g>
   <g id="matplotlib.axis_1">
    <g id="xtick_1">
     <g id="line2d_1">
      <path clip-path="url(#pbf4728a322)" d="M 98.78372 307.584 
L 98.78372 41.472 
" style="fill:none;stroke:#b0b0b0;stroke-linecap:square;stroke-width:0.8;"/>
     </g>
     <g id="line2d_2">
      <defs>
       <path d="M 0 0 
L 0 3.5 
" id="mf94ba2dc16" style="stroke:#000000;stroke-width:0.8;"/>
      </defs>
      <g>
       <use style="stroke:#000000;stroke-width:0.8;" x="98.78372" xlink:href="#mf94ba2dc16" y="307.584"/>
      </g>
     </g>
     <g id="text_1">
      <!-- 0.6 -->
      <defs>
       <path d="M 31.78125 66.40625 
Q 24.171875 66.40625 20.328125 58.90625 
Q 16.5 51.421875 16.5 36.375 
Q 16.5 21.390625 20.328125 13.890625 
Q 24.171875 6.390625 31.78125 6.390625 
Q 39.453125 6.390625 43.28125 13.890625 
Q 47.125 21.390625 47.125 36.375 
Q 47.125 51.421875 43.28125 58.90625 
Q 39.453125 66.40625 31.78125 66.40625 
z
M 31.78125 74.21875 
Q 44.046875 74.21875 50.515625 64.515625 
Q 56.984375 54.828125 56.984375 36.375 
Q 56.984375 17.96875 50.515625 8.265625 
Q 44.046875 -1.421875 31.78125 -1.421875 
Q 19.53125 -1.421875 13.0625 8.265625 
Q 6.59375 17.96875 6.59375 36.375 
Q 6.59375 54.828125 13.0625 64.515625 
Q 19.53125 74.21875 31.78125 74.21875 
z
" id="DejaVuSans-48"/>
       <path d="M 10.6875 12.40625 
L 21 12.40625 
L 21 0 
L 10.6875 0 
z
" id="DejaVuSans-46"/>
       <path d="M 33.015625 40.375 
Q 26.375 40.375 22.484375 35.828125 
Q 18.609375 31.296875 18.609375 23.390625 
Q 18.609375 15.53125 22.484375 10.953125 
Q 26.375 6.390625 33.015625 6.390625 
Q 39.65625 6.390625 43.53125 10.953125 
Q 47.40625 15.53125 47.40625 23.390625 
Q 47.40625 31.296875 43.53125 35.828125 
Q 39.65625 40.375 33.015625 40.375 
z
M 52.59375 71.296875 
L 52.59375 62.3125 
Q 48.875 64.0625 45.09375 64.984375 
Q 41.3125 65.921875 37.59375 65.921875 
Q 27.828125 65.921875 22.671875 59.328125 
Q 17.53125 52.734375 16.796875 39.40625 
Q 19.671875 43.65625 24.015625 45.921875 
Q 28.375 48.1875 33.59375 48.1875 
Q 44.578125 48.1875 50.953125 41.515625 
Q 57.328125 34.859375 57.328125 23.390625 
Q 57.328125 12.15625 50.6875 5.359375 
Q 44.046875 -1.421875 33.015625 -1.421875 
Q 20.359375 -1.421875 13.671875 8.265625 
Q 6.984375 17.96875 6.984375 36.375 
Q 6.984375 53.65625 15.1875 63.9375 
Q 23.390625 74.21875 37.203125 74.21875 
Q 40.921875 74.21875 44.703125 73.484375 
Q 48.484375 72.75 52.59375 71.296875 
z
" id="DejaVuSans-54"/>
      </defs>
      <g transform="translate(90.832158 322.182437)scale(0.1 -0.1)">
       <use xlink:href="#DejaVuSans-48"/>
       <use x="63.623047" xlink:href="#DejaVuSans-46"/>
       <use x="95.410156" xlink:href="#DejaVuSans-54"/>
      </g>
     </g>
    </g>
    <g id="xtick_2">
     <g id="line2d_3">
      <path clip-path="url(#pbf4728a322)" d="M 165.38451 307.584 
L 165.38451 41.472 
" style="fill:none;stroke:#b0b0b0;stroke-linecap:square;stroke-width:0.8;"/>
     </g>
     <g id="line2d_4">
      <g>
       <use style="stroke:#000000;stroke-width:0.8;" x="165.38451" xlink:href="#mf94ba2dc16" y="307.584"/>
      </g>
     </g>
     <g id="text_2">
      <!-- 0.8 -->
      <defs>
       <path d="M 31.78125 34.625 
Q 24.75 34.625 20.71875 30.859375 
Q 16.703125 27.09375 16.703125 20.515625 
Q 16.703125 13.921875 20.71875 10.15625 
Q 24.75 6.390625 31.78125 6.390625 
Q 38.8125 6.390625 42.859375 10.171875 
Q 46.921875 13.96875 46.921875 20.515625 
Q 46.921875 27.09375 42.890625 30.859375 
Q 38.875 34.625 31.78125 34.625 
z
M 21.921875 38.8125 
Q 15.578125 40.375 12.03125 44.71875 
Q 8.5 49.078125 8.5 55.328125 
Q 8.5 64.0625 14.71875 69.140625 
Q 20.953125 74.21875 31.78125 74.21875 
Q 42.671875 74.21875 48.875 69.140625 
Q 55.078125 64.0625 55.078125 55.328125 
Q 55.078125 49.078125 51.53125 44.71875 
Q 48 40.375 41.703125 38.8125 
Q 48.828125 37.15625 52.796875 32.3125 
Q 56.78125 27.484375 56.78125 20.515625 
Q 56.78125 9.90625 50.3125 4.234375 
Q 43.84375 -1.421875 31.78125 -1.421875 
Q 19.734375 -1.421875 13.25 4.234375 
Q 6.78125 9.90625 6.78125 20.515625 
Q 6.78125 27.484375 10.78125 32.3125 
Q 14.796875 37.15625 21.921875 38.8125 
z
M 18.3125 54.390625 
Q 18.3125 48.734375 21.84375 45.5625 
Q 25.390625 42.390625 31.78125 42.390625 
Q 38.140625 42.390625 41.71875 45.5625 
Q 45.3125 48.734375 45.3125 54.390625 
Q 45.3125 60.0625 41.71875 63.234375 
Q 38.140625 66.40625 31.78125 66.40625 
Q 25.390625 66.40625 21.84375 63.234375 
Q 18.3125 60.0625 18.3125 54.390625 
z
" id="DejaVuSans-56"/>
      </defs>
      <g transform="translate(157.432947 322.182437)scale(0.1 -0.1)">
       <use xlink:href="#DejaVuSans-48"/>
       <use x="63.623047" xlink:href="#DejaVuSans-46"/>
       <use x="95.410156" xlink:href="#DejaVuSans-56"/>
      </g>
     </g>
    </g>
    <g id="xtick_3">
     <g id="line2d_5">
      <path clip-path="url(#pbf4728a322)" d="M 231.985299 307.584 
L 231.985299 41.472 
" style="fill:none;stroke:#b0b0b0;stroke-linecap:square;stroke-width:0.8;"/>
     </g>
     <g id="line2d_6">
      <g>
       <use style="stroke:#000000;stroke-width:0.8;" x="231.985299" xlink:href="#mf94ba2dc16" y="307.584"/>
      </g>
     </g>
     <g id="text_3">
      <!-- 1.0 -->
      <defs>
       <path d="M 12.40625 8.296875 
L 28.515625 8.296875 
L 28.515625 63.921875 
L 10.984375 60.40625 
L 10.984375 69.390625 
L 28.421875 72.90625 
L 38.28125 72.90625 
L 38.28125 8.296875 
L 54.390625 8.296875 
L 54.390625 0 
L 12.40625 0 
z
" id="DejaVuSans-49"/>
      </defs>
      <g transform="translate(224.033737 322.182437)scale(0.1 -0.1)">
       <use xlink:href="#DejaVuSans-49"/>
       <use x="63.623047" xlink:href="#DejaVuSans-46"/>
       <use x="95.410156" xlink:href="#DejaVuSans-48"/>
      </g>
     </g>
    </g>
    <g id="xtick_4">
     <g id="line2d_7">
      <path clip-path="url(#pbf4728a322)" d="M 298.586089 307.584 
L 298.586089 41.472 
" style="fill:none;stroke:#b0b0b0;stroke-linecap:square;stroke-width:0.8;"/>
     </g>
     <g id="line2d_8">
      <g>
       <use style="stroke:#000000;stroke-width:0.8;" x="298.586089" xlink:href="#mf94ba2dc16" y="307.584"/>
      </g>
     </g>
     <g id="text_4">
      <!-- 1.2 -->
      <defs>
       <path d="M 19.1875 8.296875 
L 53.609375 8.296875 
L 53.609375 0 
L 7.328125 0 
L 7.328125 8.296875 
Q 12.9375 14.109375 22.625 23.890625 
Q 32.328125 33.6875 34.8125 36.53125 
Q 39.546875 41.84375 41.421875 45.53125 
Q 43.3125 49.21875 43.3125 52.78125 
Q 43.3125 58.59375 39.234375 62.25 
Q 35.15625 65.921875 28.609375 65.921875 
Q 23.96875 65.921875 18.8125 64.3125 
Q 13.671875 62.703125 7.8125 59.421875 
L 7.8125 69.390625 
Q 13.765625 71.78125 18.9375 73 
Q 24.125 74.21875 28.421875 74.21875 
Q 39.75 74.21875 46.484375 68.546875 
Q 53.21875 62.890625 53.21875 53.421875 
Q 53.21875 48.921875 51.53125 44.890625 
Q 49.859375 40.875 45.40625 35.40625 
Q 44.1875 33.984375 37.640625 27.21875 
Q 31.109375 20.453125 19.1875 8.296875 
z
" id="DejaVuSans-50"/>
      </defs>
      <g transform="translate(290.634526 322.182437)scale(0.1 -0.1)">
       <use xlink:href="#DejaVuSans-49"/>
       <use x="63.623047" xlink:href="#DejaVuSans-46"/>
       <use x="95.410156" xlink:href="#DejaVuSans-50"/>
      </g>
     </g>
    </g>
    <g id="xtick_5">
     <g id="line2d_9">
      <path clip-path="url(#pbf4728a322)" d="M 365.186878 307.584 
L 365.186878 41.472 
" style="fill:none;stroke:#b0b0b0;stroke-linecap:square;stroke-width:0.8;"/>
     </g>
     <g id="line2d_10">
      <g>
       <use style="stroke:#000000;stroke-width:0.8;" x="365.186878" xlink:href="#mf94ba2dc16" y="307.584"/>
      </g>
     </g>
     <g id="text_5">
      <!-- 1.4 -->
      <defs>
       <path d="M 37.796875 64.3125 
L 12.890625 25.390625 
L 37.796875 25.390625 
z
M 35.203125 72.90625 
L 47.609375 72.90625 
L 47.609375 25.390625 
L 58.015625 25.390625 
L 58.015625 17.1875 
L 47.609375 17.1875 
L 47.609375 0 
L 37.796875 0 
L 37.796875 17.1875 
L 4.890625 17.1875 
L 4.890625 26.703125 
z
" id="DejaVuSans-52"/>
      </defs>
      <g transform="translate(357.235316 322.182437)scale(0.1 -0.1)">
       <use xlink:href="#DejaVuSans-49"/>
       <use x="63.623047" xlink:href="#DejaVuSans-46"/>
       <use x="95.410156" xlink:href="#DejaVuSans-52"/>
      </g>
     </g>
    </g>
    <g id="text_6">
     <!-- $x_2(t)$ -->
     <defs>
      <path d="M 60.015625 54.6875 
L 34.90625 27.875 
L 50.296875 0 
L 39.984375 0 
L 28.421875 21.6875 
L 8.296875 0 
L -2.59375 0 
L 24.3125 28.8125 
L 10.015625 54.6875 
L 20.3125 54.6875 
L 30.8125 34.90625 
L 49.125 54.6875 
z
" id="DejaVuSans-Oblique-120"/>
      <path d="M 31 75.875 
Q 24.46875 64.65625 21.28125 53.65625 
Q 18.109375 42.671875 18.109375 31.390625 
Q 18.109375 20.125 21.3125 9.0625 
Q 24.515625 -2 31 -13.1875 
L 23.1875 -13.1875 
Q 15.875 -1.703125 12.234375 9.375 
Q 8.59375 20.453125 8.59375 31.390625 
Q 8.59375 42.28125 12.203125 53.3125 
Q 15.828125 64.359375 23.1875 75.875 
z
" id="DejaVuSans-40"/>
      <path d="M 42.28125 54.6875 
L 40.921875 47.703125 
L 23 47.703125 
L 17.1875 18.015625 
Q 16.890625 16.359375 16.75 15.234375 
Q 16.609375 14.109375 16.609375 13.484375 
Q 16.609375 10.359375 18.484375 8.9375 
Q 20.359375 7.515625 24.515625 7.515625 
L 33.59375 7.515625 
L 32.078125 0 
L 23.484375 0 
Q 15.484375 0 11.546875 3.125 
Q 7.625 6.25 7.625 12.59375 
Q 7.625 13.71875 7.765625 15.0625 
Q 7.90625 16.40625 8.203125 18.015625 
L 14.015625 47.703125 
L 6.390625 47.703125 
L 7.8125 54.6875 
L 15.28125 54.6875 
L 18.3125 70.21875 
L 27.296875 70.21875 
L 24.3125 54.6875 
z
" id="DejaVuSans-Oblique-116"/>
      <path d="M 8.015625 75.875 
L 15.828125 75.875 
Q 23.140625 64.359375 26.78125 53.3125 
Q 30.421875 42.28125 30.421875 31.390625 
Q 30.421875 20.453125 26.78125 9.375 
Q 23.140625 -1.703125 15.828125 -13.1875 
L 8.015625 -13.1875 
Q 14.5 -2 17.703125 9.0625 
Q 20.90625 20.125 20.90625 31.390625 
Q 20.90625 42.671875 17.703125 53.65625 
Q 14.5 64.65625 8.015625 75.875 
z
" id="DejaVuSans-41"/>
     </defs>
     <g transform="translate(224.96 335.860562)scale(0.1 -0.1)">
      <use transform="translate(0 0.125)" xlink:href="#DejaVuSans-Oblique-120"/>
      <use transform="translate(59.179688 -16.28125)scale(0.7)" xlink:href="#DejaVuSans-50"/>
      <use transform="translate(106.450195 0.125)" xlink:href="#DejaVuSans-40"/>
      <use transform="translate(145.463867 0.125)" xlink:href="#DejaVuSans-Oblique-116"/>
      <use transform="translate(184.672852 0.125)" xlink:href="#DejaVuSans-41"/>
     </g>
    </g>
   </g>
   <g id="matplotlib.axis_2">
    <g id="ytick_1">
     <g id="line2d_11">
      <path clip-path="url(#pbf4728a322)" d="M 57.6 303.782117 
L 414.72 303.782117 
" style="fill:none;stroke:#b0b0b0;stroke-linecap:square;stroke-width:0.8;"/>
     </g>
     <g id="line2d_12">
      <defs>
       <path d="M 0 0 
L -3.5 0 
" id="m809955124e" style="stroke:#000000;stroke-width:0.8;"/>
      </defs>
      <g>
       <use style="stroke:#000000;stroke-width:0.8;" x="57.6" xlink:href="#m809955124e" y="303.782117"/>
      </g>
     </g>
     <g id="text_7">
      <!-- −1.25 -->
      <defs>
       <path d="M 10.59375 35.5 
L 73.1875 35.5 
L 73.1875 27.203125 
L 10.59375 27.203125 
z
" id="DejaVuSans-8722"/>
       <path d="M 10.796875 72.90625 
L 49.515625 72.90625 
L 49.515625 64.59375 
L 19.828125 64.59375 
L 19.828125 46.734375 
Q 21.96875 47.46875 24.109375 47.828125 
Q 26.265625 48.1875 28.421875 48.1875 
Q 40.625 48.1875 47.75 41.5 
Q 54.890625 34.8125 54.890625 23.390625 
Q 54.890625 11.625 47.5625 5.09375 
Q 40.234375 -1.421875 26.90625 -1.421875 
Q 22.3125 -1.421875 17.546875 -0.640625 
Q 12.796875 0.140625 7.71875 1.703125 
L 7.71875 11.625 
Q 12.109375 9.234375 16.796875 8.0625 
Q 21.484375 6.890625 26.703125 6.890625 
Q 35.15625 6.890625 40.078125 11.328125 
Q 45.015625 15.765625 45.015625 23.390625 
Q 45.015625 31 40.078125 35.4375 
Q 35.15625 39.890625 26.703125 39.890625 
Q 22.75 39.890625 18.8125 39.015625 
Q 14.890625 38.140625 10.796875 36.28125 
z
" id="DejaVuSans-53"/>
      </defs>
      <g transform="translate(19.954687 307.581336)scale(0.1 -0.1)">
       <use xlink:href="#DejaVuSans-8722"/>
       <use x="83.789062" xlink:href="#DejaVuSans-49"/>
       <use x="147.412109" xlink:href="#DejaVuSans-46"/>
       <use x="179.199219" xlink:href="#DejaVuSans-50"/>
       <use x="242.822266" xlink:href="#DejaVuSans-53"/>
      </g>
     </g>
    </g>
    <g id="ytick_2">
     <g id="line2d_13">
      <path clip-path="url(#pbf4728a322)" d="M 57.6 272.649594 
L 414.72 272.649594 
" style="fill:none;stroke:#b0b0b0;stroke-linecap:square;stroke-width:0.8;"/>
     </g>
     <g id="line2d_14">
      <g>
       <use style="stroke:#000000;stroke-width:0.8;" x="57.6" xlink:href="#m809955124e" y="272.649594"/>
      </g>
     </g>
     <g id="text_8">
      <!-- −1.00 -->
      <g transform="translate(19.954687 276.448813)scale(0.1 -0.1)">
       <use xlink:href="#DejaVuSans-8722"/>
       <use x="83.789062" xlink:href="#DejaVuSans-49"/>
       <use x="147.412109" xlink:href="#DejaVuSans-46"/>
       <use x="179.199219" xlink:href="#DejaVuSans-48"/>
       <use x="242.822266" xlink:href="#DejaVuSans-48"/>
      </g>
     </g>
    </g>
    <g id="ytick_3">
     <g id="line2d_15">
      <path clip-path="url(#pbf4728a322)" d="M 57.6 241.517071 
L 414.72 241.517071 
" style="fill:none;stroke:#b0b0b0;stroke-linecap:square;stroke-width:0.8;"/>
     </g>
     <g id="line2d_16">
      <g>
       <use style="stroke:#000000;stroke-width:0.8;" x="57.6" xlink:href="#m809955124e" y="241.517071"/>
      </g>
     </g>
     <g id="text_9">
      <!-- −0.75 -->
      <defs>
       <path d="M 8.203125 72.90625 
L 55.078125 72.90625 
L 55.078125 68.703125 
L 28.609375 0 
L 18.3125 0 
L 43.21875 64.59375 
L 8.203125 64.59375 
z
" id="DejaVuSans-55"/>
      </defs>
      <g transform="translate(19.954687 245.31629)scale(0.1 -0.1)">
       <use xlink:href="#DejaVuSans-8722"/>
       <use x="83.789062" xlink:href="#DejaVuSans-48"/>
       <use x="147.412109" xlink:href="#DejaVuSans-46"/>
       <use x="179.199219" xlink:href="#DejaVuSans-55"/>
       <use x="242.822266" xlink:href="#DejaVuSans-53"/>
      </g>
     </g>
    </g>
    <g id="ytick_4">
     <g id="line2d_17">
      <path clip-path="url(#pbf4728a322)" d="M 57.6 210.384548 
L 414.72 210.384548 
" style="fill:none;stroke:#b0b0b0;stroke-linecap:square;stroke-width:0.8;"/>
     </g>
     <g id="line2d_18">
      <g>
       <use style="stroke:#000000;stroke-width:0.8;" x="57.6" xlink:href="#m809955124e" y="210.384548"/>
      </g>
     </g>
     <g id="text_10">
      <!-- −0.50 -->
      <g transform="translate(19.954687 214.183767)scale(0.1 -0.1)">
       <use xlink:href="#DejaVuSans-8722"/>
       <use x="83.789062" xlink:href="#DejaVuSans-48"/>
       <use x="147.412109" xlink:href="#DejaVuSans-46"/>
       <use x="179.199219" xlink:href="#DejaVuSans-53"/>
       <use x="242.822266" xlink:href="#DejaVuSans-48"/>
      </g>
     </g>
    </g>
    <g id="ytick_5">
     <g id="line2d_19">
      <path clip-path="url(#pbf4728a322)" d="M 57.6 179.252025 
L 414.72 179.252025 
" style="fill:none;stroke:#b0b0b0;stroke-linecap:square;stroke-width:0.8;"/>
     </g>
     <g id="line2d_20">
      <g>
       <use style="stroke:#000000;stroke-width:0.8;" x="57.6" xlink:href="#m809955124e" y="179.252025"/>
      </g>
     </g>
     <g id="text_11">
      <!-- −0.25 -->
      <g transform="translate(19.954687 183.051244)scale(0.1 -0.1)">
       <use xlink:href="#DejaVuSans-8722"/>
       <use x="83.789062" xlink:href="#DejaVuSans-48"/>
       <use x="147.412109" xlink:href="#DejaVuSans-46"/>
       <use x="179.199219" xlink:href="#DejaVuSans-50"/>
       <use x="242.822266" xlink:href="#DejaVuSans-53"/>
      </g>
     </g>
    </g>
    <g id="ytick_6">
     <g id="line2d_21">
      <path clip-path="url(#pbf4728a322)" d="M 57.6 148.119502 
L 414.72 148.119502 
" style="fill:none;stroke:#b0b0b0;stroke-linecap:square;stroke-width:0.8;"/>
     </g>
     <g id="line2d_22">
      <g>
       <use style="stroke:#000000;stroke-width:0.8;" x="57.6" xlink:href="#m809955124e" y="148.119502"/>
      </g>
     </g>
     <g id="text_12">
      <!-- 0.00 -->
      <g transform="translate(28.334375 151.918721)scale(0.1 -0.1)">
       <use xlink:href="#DejaVuSans-48"/>
       <use x="63.623047" xlink:href="#DejaVuSans-46"/>
       <use x="95.410156" xlink:href="#DejaVuSans-48"/>
       <use x="159.033203" xlink:href="#DejaVuSans-48"/>
      </g>
     </g>
    </g>
    <g id="ytick_7">
     <g id="line2d_23">
      <path clip-path="url(#pbf4728a322)" d="M 57.6 116.986979 
L 414.72 116.986979 
" style="fill:none;stroke:#b0b0b0;stroke-linecap:square;stroke-width:0.8;"/>
     </g>
     <g id="line2d_24">
      <g>
       <use style="stroke:#000000;stroke-width:0.8;" x="57.6" xlink:href="#m809955124e" y="116.986979"/>
      </g>
     </g>
     <g id="text_13">
      <!-- 0.25 -->
      <g transform="translate(28.334375 120.786198)scale(0.1 -0.1)">
       <use xlink:href="#DejaVuSans-48"/>
       <use x="63.623047" xlink:href="#DejaVuSans-46"/>
       <use x="95.410156" xlink:href="#DejaVuSans-50"/>
       <use x="159.033203" xlink:href="#DejaVuSans-53"/>
      </g>
     </g>
    </g>
    <g id="ytick_8">
     <g id="line2d_25">
      <path clip-path="url(#pbf4728a322)" d="M 57.6 85.854456 
L 414.72 85.854456 
" style="fill:none;stroke:#b0b0b0;stroke-linecap:square;stroke-width:0.8;"/>
     </g>
     <g id="line2d_26">
      <g>
       <use style="stroke:#000000;stroke-width:0.8;" x="57.6" xlink:href="#m809955124e" y="85.854456"/>
      </g>
     </g>
     <g id="text_14">
      <!-- 0.50 -->
      <g transform="translate(28.334375 89.653675)scale(0.1 -0.1)">
       <use xlink:href="#DejaVuSans-48"/>
       <use x="63.623047" xlink:href="#DejaVuSans-46"/>
       <use x="95.410156" xlink:href="#DejaVuSans-53"/>
       <use x="159.033203" xlink:href="#DejaVuSans-48"/>
      </g>
     </g>
    </g>
    <g id="ytick_9">
     <g id="line2d_27">
      <path clip-path="url(#pbf4728a322)" d="M 57.6 54.721933 
L 414.72 54.721933 
" style="fill:none;stroke:#b0b0b0;stroke-linecap:square;stroke-width:0.8;"/>
     </g>
     <g id="line2d_28">
      <g>
       <use style="stroke:#000000;stroke-width:0.8;" x="57.6" xlink:href="#m809955124e" y="54.721933"/>
      </g>
     </g>
     <g id="text_15">
      <!-- 0.75 -->
      <g transform="translate(28.334375 58.521152)scale(0.1 -0.1)">
       <use xlink:href="#DejaVuSans-48"/>
       <use x="63.623047" xlink:href="#DejaVuSans-46"/>
       <use x="95.410156" xlink:href="#DejaVuSans-55"/>
       <use x="159.033203" xlink:href="#DejaVuSans-53"/>
      </g>
     </g>
    </g>
    <g id="text_16">
     <!-- $v_2(t)$ -->
     <defs>
      <path d="M 7.171875 54.6875 
L 16.703125 54.6875 
L 24.703125 8.203125 
L 50.875 54.6875 
L 60.40625 54.6875 
L 29.296875 0 
L 17.1875 0 
z
" id="DejaVuSans-Oblique-118"/>
     </defs>
     <g transform="translate(13.875 185.728)rotate(-90)scale(0.1 -0.1)">
      <use transform="translate(0 0.125)" xlink:href="#DejaVuSans-Oblique-118"/>
      <use transform="translate(59.179688 -16.28125)scale(0.7)" xlink:href="#DejaVuSans-50"/>
      <use transform="translate(106.450195 0.125)" xlink:href="#DejaVuSans-40"/>
      <use transform="translate(145.463867 0.125)" xlink:href="#DejaVuSans-Oblique-116"/>
      <use transform="translate(184.672852 0.125)" xlink:href="#DejaVuSans-41"/>
     </g>
    </g>
   </g>
   <g id="line2d_29">
    <path clip-path="url(#pbf4728a322)" d="M 398.487273 148.119502 
L 398.398187 149.217728 
L 397.943717 152.301826 
L 397.138721 156.244743 
L 396.046782 160.594369 
L 394.430385 166.053909 
L 392.802377 170.874778 
L 390.763317 176.297105 
L 388.266246 182.286336 
L 385.267532 188.794243 
L 381.727928 195.759902 
L 379.050714 200.622653 
L 376.109378 205.632865 
L 372.896715 210.764747 
L 369.406942 215.990935 
L 365.635775 221.282729 
L 361.5805 226.610323 
L 357.240016 231.943063 
L 352.614883 237.249687 
L 347.707349 242.498586 
L 342.521344 247.658063 
L 337.062494 252.696582 
L 331.338109 257.583021 
L 325.357136 262.286915 
L 319.13013 266.778689 
L 312.669208 271.029901 
L 305.987967 275.013447 
L 299.101414 278.703773 
L 292.025876 282.077061 
L 284.7789 285.111406 
L 277.379152 287.786972 
L 269.846302 290.086142 
L 262.2009 291.993631 
L 254.464249 293.496592 
L 246.658272 294.584703 
L 238.805373 295.250215 
L 230.928301 295.488 
L 223.050012 295.295571 
L 215.193521 294.673084 
L 207.381767 293.623311 
L 199.637468 292.151596 
L 191.982993 290.265801 
L 184.440223 287.976216 
L 177.030424 285.295465 
L 169.774132 282.238393 
L 162.691027 278.821928 
L 155.799835 275.064937 
L 149.118224 270.988069 
L 142.662712 266.613585 
L 136.448588 261.965171 
L 130.489842 257.067752 
L 124.799099 251.947293 
L 119.387577 246.630596 
L 114.265045 241.145098 
L 109.439782 235.518663 
L 104.918583 229.779367 
L 100.706722 223.955303 
L 96.807984 218.074365 
L 93.224682 212.164061 
L 89.957648 206.251303 
L 87.006321 200.362243 
L 84.368753 194.522087 
L 82.041675 188.754922 
L 80.020576 183.083591 
L 78.299741 177.529512 
L 76.872364 172.112583 
L 75.730609 166.851048 
L 74.865717 161.761416 
L 74.268098 156.85838 
L 73.927422 152.154738 
L 73.832727 147.661346 
L 73.972521 143.38709 
L 74.334891 139.338872 
L 74.907608 135.521606 
L 75.678233 131.938233 
L 76.634222 128.58976 
L 77.763027 125.475301 
L 79.052196 122.592146 
L 80.489472 119.935832 
L 82.062879 117.500235 
L 83.760811 115.277676 
L 85.572112 113.259028 
L 87.48615 111.433845 
L 89.492884 109.790489 
L 91.582926 108.316271 
L 93.747589 106.997596 
L 97.117348 105.279681 
L 100.613874 103.828546 
L 104.217868 102.591584 
L 109.164974 101.18348 
L 115.545396 99.637089 
L 127.546693 96.785118 
L 133.117176 95.258424 
L 138.864355 93.472269 
L 144.818495 91.383298 
L 151.013305 88.970729 
L 157.483482 86.236799 
L 167.776789 81.593765 
L 188.735788 72.00003 
L 197.068538 68.446084 
L 203.564509 65.860673 
L 210.263316 63.397488 
L 217.153188 61.105712 
L 224.218406 59.034354 
L 231.439348 57.23129 
L 236.328423 56.20103 
L 241.268575 55.323307 
L 246.251308 54.610299 
L 251.267509 54.073392 
L 256.307477 53.723081 
L 261.360977 53.568878 
L 266.41729 53.619232 
L 271.465274 53.881457 
L 276.49343 54.361675 
L 281.48996 55.064751 
L 286.442845 55.994266 
L 291.339908 57.152482 
L 296.168889 58.540322 
L 300.917513 60.157361 
L 305.573562 62.001823 
L 310.124951 64.070592 
L 314.559795 66.359238 
L 318.866484 68.862046 
L 323.033744 71.572062 
L 327.050705 74.48114 
L 330.906965 77.58 
L 334.592645 80.858301 
L 338.098449 84.304712 
L 341.415708 87.906998 
L 344.536431 91.652102 
L 347.453347 95.526249 
L 350.159935 99.515033 
L 352.650463 103.603526 
L 354.920003 107.776382 
L 356.964464 112.017938 
L 358.780592 116.312332 
L 360.365991 120.643598 
L 361.719118 124.995786 
L 362.839273 129.35306 
L 363.72661 133.699806 
L 364.382099 138.020732 
L 364.807519 142.300958 
L 365.005439 146.526123 
L 364.979174 150.682456 
L 364.732756 154.756861 
L 364.270899 158.736996 
L 363.598957 162.611338 
L 362.722877 166.369244 
L 361.64915 170.001004 
L 360.384762 173.497886 
L 358.937135 176.852167 
L 357.314081 180.057168 
L 355.523737 183.107269 
L 353.574514 185.997921 
L 351.475039 188.725648 
L 349.234093 191.288041 
L 346.86056 193.683743 
L 344.363368 195.912427 
L 341.751435 197.974767 
L 339.033619 199.872398 
L 336.218663 201.607873 
L 333.315153 203.184614 
L 330.331469 204.606855 
L 327.275743 205.879577 
L 324.155823 207.008447 
L 319.371954 208.445912 
L 314.484406 209.597342 
L 309.515113 210.488256 
L 304.483898 211.1457 
L 299.408376 211.597636 
L 292.598306 211.92937 
L 285.766663 212.011919 
L 277.231577 211.859638 
L 265.343418 211.361854 
L 204.309099 208.164404 
L 196.329486 207.393978 
L 190.031659 206.565385 
L 183.83485 205.497401 
L 179.270229 204.512065 
L 174.791675 203.34886 
L 170.414116 201.991605 
L 166.153713 200.426108 
L 162.02766 198.640508 
L 158.053998 196.625593 
L 154.251396 194.375064 
L 150.638906 191.885736 
L 147.235705 189.157689 
L 144.060828 186.194338 
L 142.080312 184.091258 
L 140.214929 181.889379 
L 138.469872 179.592184 
L 136.850132 177.203786 
L 135.360462 174.728905 
L 134.005349 172.172844 
L 132.788979 169.541457 
L 131.715214 166.841112 
L 130.787561 164.078656 
L 130.009148 161.26137 
L 129.382704 158.396923 
L 128.910539 155.493325 
L 128.594526 152.558876 
L 128.436088 149.602113 
L 128.436185 146.631756 
L 128.595308 143.656651 
L 128.913474 140.685719 
L 129.39022 137.727894 
L 130.024607 134.792074 
L 130.815223 131.887059 
L 131.760187 129.021504 
L 132.857161 126.203862 
L 134.103361 123.442335 
L 135.495574 120.744826 
L 137.030173 118.118895 
L 138.703137 115.571718 
L 140.510071 113.110043 
L 142.446232 110.74016 
L 144.506553 108.467864 
L 146.685672 106.298433 
L 148.977958 104.2366 
L 151.377542 102.286536 
L 153.87835 100.451834 
L 156.474126 98.735498 
L 160.531834 96.388042 
L 164.766767 94.317816 
L 169.156561 92.527458 
L 173.678755 91.016697 
L 178.311024 89.782472 
L 183.031395 88.819096 
L 187.81845 88.118458 
L 192.65151 87.670259 
L 197.510803 87.462276 
L 202.3776 87.480652 
L 207.234345 87.710191 
L 212.064744 88.13468 
L 216.853834 88.737212 
L 223.151736 89.787659 
L 229.323824 91.082907 
L 235.346063 92.583036 
L 241.198581 94.250346 
L 248.251507 96.517457 
L 254.990732 98.934086 
L 261.399501 101.453926 
L 267.466391 104.043654 
L 274.284459 107.216309 
L 279.573981 109.907306 
L 284.500548 112.647525 
L 289.056609 115.452832 
L 292.427972 117.759058 
L 295.549048 120.135068 
L 298.411607 122.595223 
L 301.005888 125.153606 
L 303.320681 127.823069 
L 304.865894 129.904614 
L 306.241248 132.058199 
L 307.440862 134.286196 
L 308.458714 136.589729 
L 309.288743 138.968554 
L 309.924969 141.420977 
L 310.361605 143.943782 
L 310.593187 146.53221 
L 310.614692 149.179954 
L 310.421668 151.879191 
L 310.010344 154.620648 
L 309.377752 157.393684 
L 308.521823 160.186409 
L 307.441494 162.985822 
L 306.136785 165.777981 
L 304.608864 168.548175 
L 302.860101 171.281111 
L 300.89411 173.961132 
L 298.715772 176.572418 
L 296.331235 179.099213 
L 293.747901 181.52603 
L 290.974394 183.837867 
L 288.020518 186.02041 
L 284.897188 188.060222 
L 281.616363 189.944923 
L 278.190942 191.663352 
L 274.634667 193.2057 
L 270.962009 194.563631 
L 267.188043 195.730376 
L 263.328324 196.700804 
L 259.398751 197.471462 
L 255.415432 198.040595 
L 251.394548 198.408134 
L 247.352218 198.575663 
L 243.304371 198.546364 
L 239.266618 198.324931 
L 235.254137 197.917473 
L 231.281562 197.331392 
L 227.362887 196.575247 
L 223.511377 195.658605 
L 218.501927 194.204853 
L 213.661068 192.510847 
L 209.013025 190.604492 
L 204.578984 188.514389 
L 200.377053 186.26913 
L 196.422321 183.896626 
L 192.726967 181.423512 
L 189.300411 178.874625 
L 186.149527 176.272567 
L 183.278905 173.63737 
L 180.69114 170.986269 
L 178.387144 168.33359 
L 176.36645 165.690742 
L 174.627522 163.066315 
L 173.168048 160.466271 
L 171.985208 157.894226 
L 171.075904 155.351803 
L 170.436954 152.839041 
L 170.065237 150.354842 
L 169.957786 147.897444 
L 170.111845 145.464898 
L 170.524848 143.05553 
L 171.194373 140.66837 
L 172.118048 138.303538 
L 173.293418 135.962585 
L 174.717772 133.64874 
L 176.387954 131.367103 
L 178.300159 129.124739 
L 180.449721 126.930695 
L 182.8309 124.79593 
L 185.436692 122.733161 
L 188.258646 120.756634 
L 191.286718 118.881831 
L 194.509159 117.125124 
L 197.912437 115.503366 
L 201.481213 114.033476 
L 205.198358 112.731987 
L 209.045011 111.614612 
L 213.000686 110.695802 
L 217.043435 109.988337 
L 221.150056 109.502961 
L 225.29633 109.24807 
L 229.457272 109.229457 
L 233.607421 109.450116 
L 237.721153 109.910125 
L 241.772993 110.606601 
L 245.737934 111.533734 
L 249.591742 112.682897 
L 253.311248 114.04281 
L 256.874621 115.599782 
L 260.261612 117.337998 
L 263.453761 119.239856 
L 266.434571 121.286337 
L 269.189637 123.457392 
L 271.706732 125.732349 
L 273.975862 128.090303 
L 275.989262 130.510512 
L 277.741373 132.972768 
L 279.228738 135.457713 
L 280.449909 137.947131 
L 281.405319 140.424189 
L 282.097124 142.873624 
L 282.529021 145.281879 
L 282.706058 147.637169 
L 282.634452 149.92949 
L 282.321395 152.150594 
L 281.77487 154.293896 
L 281.003484 156.354338 
L 280.016308 158.328217 
L 278.822746 160.212988 
L 277.432425 162.007038 
L 275.855102 163.709455 
L 274.100607 165.31979 
L 271.673365 167.202892 
L 269.004009 168.941331 
L 266.111933 170.534112 
L 263.016735 171.97924 
L 259.738366 173.273379 
L 256.297321 174.411681 
L 252.714844 175.387757 
L 249.013133 176.193826 
L 245.215503 176.82099 
L 241.346511 177.259642 
L 237.432017 177.499983 
L 233.499174 177.532594 
L 229.576333 177.349055 
L 225.692874 176.942568 
L 221.878937 176.308553 
L 218.165101 175.445166 
L 214.581984 174.353737 
L 211.159793 173.039087 
L 207.927848 171.509719 
L 205.498099 170.139719 
L 203.221477 168.647992 
L 201.110516 167.043892 
L 199.176676 165.338074 
L 197.430215 163.542356 
L 195.880072 161.669548 
L 194.53377 159.733265 
L 193.397343 157.747711 
L 192.475285 155.727467 
L 191.770518 153.687264 
L 191.284391 151.641758 
L 191.016698 149.605315 
L 190.965722 147.59181 
L 191.128299 145.61444 
L 191.499893 143.685561 
L 192.074702 141.816555 
L 192.84576 140.017713 
L 193.805063 138.298167 
L 194.943695 136.665833 
L 196.251959 135.127398 
L 197.719509 133.688336 
L 199.761341 132.035688 
L 202.012969 130.550914 
L 204.451685 129.237547 
L 207.054454 128.097012 
L 209.798169 127.128997 
L 212.659863 126.331832 
L 216.217729 125.596995 
L 219.874445 125.098704 
L 223.592548 124.830805 
L 227.335559 124.787227 
L 231.067946 124.962354 
L 234.75503 125.351184 
L 238.362888 125.949235 
L 241.858289 126.752273 
L 245.208697 127.755855 
L 248.382339 128.954766 
L 251.348383 130.342391 
L 253.640093 131.636746 
L 255.750724 133.049855 
L 257.664901 134.573932 
L 259.368395 136.199627 
L 260.848335 137.915954 
L 262.09343 139.710289 
L 263.094182 141.568432 
L 263.84309 143.474749 
L 264.334828 145.412381 
L 264.566391 147.363499 
L 264.537208 149.309619 
L 264.249202 151.23195 
L 263.706808 153.111756 
L 262.916942 154.930734 
L 261.888918 156.671374 
L 260.634319 158.317304 
L 259.166824 159.853595 
L 257.501998 161.267019 
L 255.657048 162.546249 
L 253.65056 163.682002 
L 251.502219 164.667118 
L 249.232528 165.496567 
L 246.37835 166.282418 
L 243.416518 166.838613 
L 240.383738 167.167506 
L 237.316071 167.274667 
L 234.248463 167.16832 
L 231.21437 166.858761 
L 228.245466 166.357783 
L 225.371447 165.67816 
L 222.175051 164.677256 
L 219.185397 163.472781 
L 216.81486 162.294559 
L 214.643209 160.995796 
L 212.688725 159.589687 
L 210.967574 158.089431 
L 209.493792 156.5084 
L 208.279243 154.860349 
L 207.333537 153.159625 
L 206.663925 151.421345 
L 206.320328 149.955616 
L 206.173165 148.484683 
L 206.222453 147.018764 
L 206.466816 145.568482 
L 206.903434 144.144785 
L 207.528007 142.758838 
L 208.517326 141.161363 
L 209.756003 139.653694 
L 211.228121 138.254476 
L 212.914853 136.981281 
L 214.794669 135.850138 
L 216.843622 134.87509 
L 219.035699 134.06781 
L 221.343221 133.437282 
L 223.7373 132.98958 
L 226.18832 132.727749 
L 229.079977 132.657035 
L 231.961556 132.834138 
L 234.78754 133.248953 
L 237.51473 133.886943 
L 240.103004 134.72989 
L 242.515931 135.756732 
L 244.721222 136.944413 
L 246.691034 138.268692 
L 248.402103 139.70485 
L 249.835795 141.228266 
L 250.833122 142.585214 
L 251.609999 143.973832 
L 252.162494 145.379894 
L 252.488914 146.789681 
L 252.58973 148.189956 
L 252.4675 149.567926 
L 252.126802 150.911185 
L 251.574179 152.20767 
L 250.81808 153.445639 
L 249.868815 154.613676 
L 248.533454 155.873283 
L 246.973941 157.005927 
L 245.215527 157.995959 
L 243.286259 158.829188 
L 241.216676 159.493296 
L 239.039411 159.978272 
L 236.788718 160.27684 
L 234.171942 160.384616 
L 231.558845 160.242837 
L 229.002353 159.856865 
L 226.553584 159.238172 
L 224.26057 158.404048 
L 222.167078 157.376997 
L 220.52933 156.341092 
L 219.095838 155.198095 
L 217.884659 153.969469 
L 216.909748 152.677434 
L 216.180868 151.344394 
L 215.703623 149.992419 
L 215.479552 148.642814 
L 215.506302 147.315767 
L 215.777865 146.030088 
L 216.284858 144.803053 
L 217.014811 143.650319 
L 217.952479 142.585902 
L 219.080147 141.622198 
L 220.575959 140.657949 
L 222.26123 139.853016 
L 224.100644 139.218514 
L 226.056782 138.762957 
L 228.34842 138.471473 
L 230.68164 138.417646 
L 232.999272 138.600399 
L 235.245044 139.013287 
L 237.364908 139.644218 
L 239.308421 140.475358 
L 240.85104 141.363435 
L 242.190461 142.371503 
L 243.30338 143.477061 
L 244.17154 144.655489 
L 244.782121 145.880751 
L 245.127953 147.126158 
L 245.212091 148.211518 
L 245.094882 149.274692 
L 244.782027 150.299291 
L 244.19615 151.40358 
L 243.383389 152.417264 
L 242.365062 153.322718 
L 241.165942 154.105311 
L 239.63525 154.8246 
L 237.953145 155.362019 
L 236.164346 155.710455 
L 234.107478 155.872867 
L 232.038605 155.801144 
L 230.019358 155.503545 
L 228.108418 154.993841 
L 226.360077 154.291003 
L 224.822897 153.418902 
L 223.654492 152.512678 
L 222.715589 151.515807 
L 222.02495 150.453994 
L 221.594939 149.354577 
L 221.436236 148.368596 
L 221.487468 147.395209 
L 221.743835 146.453984 
L 222.19644 145.563597 
L 222.924166 144.644157 
L 223.860573 143.83279 
L 224.977365 143.147851 
L 226.390491 142.552401 
L 227.938043 142.144125 
L 229.568912 141.92984 
L 231.396977 141.918415 
L 233.194706 142.13409 
L 234.897434 142.561138 
L 236.446128 143.177181 
L 237.789173 143.954374 
L 238.795495 144.773748 
L 239.57139 145.673208 
L 240.099175 146.624624 
L 240.36883 147.598932 
L 240.388838 148.471148 
L 240.201676 149.317108 
L 239.81612 150.116561 
L 239.171616 150.927301 
L 238.323752 151.633913 
L 237.192865 152.267397 
L 235.900262 152.730622 
L 234.367163 153.026362 
L 232.775267 153.096847 
L 231.196521 152.945922 
L 229.699983 152.587618 
L 228.348726 152.044942 
L 227.197218 151.348224 
L 226.289268 150.533245 
L 225.698251 149.715818 
L 225.35358 148.86357 
L 225.260834 148.008124 
L 225.392269 147.253533 
L 225.763053 146.4757 
L 226.351434 145.778188 
L 227.209434 145.135942 
L 228.250429 144.641186 
L 229.526143 144.29203 
L 230.887568 144.14927 
L 232.366589 144.228003 
L 233.772675 144.535672 
L 235.02458 145.046286 
L 235.988252 145.669297 
L 236.71588 146.39768 
L 237.15225 147.127831 
L 237.350096 147.878666 
L 237.308183 148.616697 
L 237.035762 149.310299 
L 236.551764 149.930963 
L 235.820672 150.492884 
L 234.842583 150.942531 
L 233.729604 151.210966 
L 232.467013 151.286738 
L 231.217787 151.145951 
L 230.065898 150.805335 
L 229.085934 150.294654 
L 228.33829 149.654482 
L 227.887833 148.982714 
L 227.700524 148.332784 
L 227.738383 147.69294 
L 227.992145 147.095859 
L 228.483635 146.534127 
L 229.219708 146.059053 
L 230.179294 145.72616 
L 231.239564 145.590083 
L 232.381079 145.663472 
L 233.440823 145.945706 
L 234.330714 146.404026 
L 234.950169 146.954767 
L 235.317601 147.573927 
L 235.416343 148.171891 
L 235.278951 148.744619 
L 234.923349 149.253961 
L 234.339989 149.690974 
L 233.548234 150.003141 
L 232.600218 150.141016 
L 231.582493 150.067556 
L 230.655728 149.787999 
L 229.915291 149.342236 
L 229.450275 148.816855 
L 229.254952 148.278907 
L 229.294582 147.779404 
L 229.561069 147.299287 
L 230.059118 146.890599 
L 230.7623 146.608394 
L 231.607942 146.501778 
L 232.497873 146.602872 
L 233.307318 146.915718 
L 233.863596 147.360602 
L 234.138619 147.856295 
L 234.149973 148.334589 
L 233.927771 148.767521 
L 233.480035 149.125614 
L 232.810141 149.360246 
L 232.02339 149.401842 
L 231.244785 149.229231 
L 230.637418 148.877957 
L 230.30282 148.43854 
L 230.24341 148.013447 
L 230.415194 147.624178 
L 230.805298 147.308071 
L 231.397086 147.116014 
L 232.108321 147.112717 
L 232.771936 147.320241 
L 233.212574 147.669514 
L 233.379319 148.053692 
L 233.307504 148.412168 
L 233.017125 148.715229 
L 232.505351 148.912513 
L 231.873087 148.921635 
L 231.280228 148.714955 
L 230.941162 148.38358 
L 230.876281 148.035731 
L 231.041945 147.738312 
L 231.4318 147.519754 
L 231.982321 147.467299 
L 232.518059 147.626125 
L 232.828299 147.925347 
L 232.860002 148.232556 
L 232.660904 148.488038 
L 232.258581 148.635083 
L 231.73828 148.590414 
L 231.36633 148.357073 
L 231.276661 148.071721 
L 231.427498 147.838321 
L 231.78516 147.705398 
L 232.237942 147.763162 
L 232.524216 147.997503 
L 232.521829 148.242066 
L 232.300098 148.414253 
L 231.90859 148.440739 
L 231.585211 148.264727 
L 231.548639 148.037589 
L 231.744272 147.880354 
L 232.104332 147.877321 
L 232.338624 148.063809 
L 232.288015 148.247402 
L 232.030673 148.333729 
L 231.737032 148.220696 
L 231.725292 148.036943 
L 231.938279 147.9485 
L 232.194739 148.052997 
L 232.168599 148.209502 
L 231.938262 148.246741 
L 231.8029 148.099072 
L 231.803474 148.097025 
L 231.944494 148.010906 
L 232.13241 148.109871 
L 232.034788 148.204342 
L 231.867874 148.127681 
L 231.867242 148.118105 
L 231.956107 148.050468 
L 231.956107 148.050468 
" style="fill:none;stroke:#800000;stroke-linecap:square;stroke-width:1.5;"/>
   </g>
   <g id="patch_3">
    <path d="M 57.6 307.584 
L 57.6 41.472 
" style="fill:none;stroke:#000000;stroke-linecap:square;stroke-linejoin:miter;stroke-width:0.8;"/>
   </g>
   <g id="patch_4">
    <path d="M 414.72 307.584 
L 414.72 41.472 
" style="fill:none;stroke:#000000;stroke-linecap:square;stroke-linejoin:miter;stroke-width:0.8;"/>
   </g>
   <g id="patch_5">
    <path d="M 57.6 307.584 
L 414.72 307.584 
" style="fill:none;stroke:#000000;stroke-linecap:square;stroke-linejoin:miter;stroke-width:0.8;"/>
   </g>
   <g id="patch_6">
    <path d="M 57.6 41.472 
L 414.72 41.472 
" style="fill:none;stroke:#000000;stroke-linecap:square;stroke-linejoin:miter;stroke-width:0.8;"/>
   </g>
   <g id="text_17">
    <!-- Phase Space of Mass 2 -->
    <defs>
     <path d="M 19.671875 64.796875 
L 19.671875 37.40625 
L 32.078125 37.40625 
Q 38.96875 37.40625 42.71875 40.96875 
Q 46.484375 44.53125 46.484375 51.125 
Q 46.484375 57.671875 42.71875 61.234375 
Q 38.96875 64.796875 32.078125 64.796875 
z
M 9.8125 72.90625 
L 32.078125 72.90625 
Q 44.34375 72.90625 50.609375 67.359375 
Q 56.890625 61.8125 56.890625 51.125 
Q 56.890625 40.328125 50.609375 34.8125 
Q 44.34375 29.296875 32.078125 29.296875 
L 19.671875 29.296875 
L 19.671875 0 
L 9.8125 0 
z
" id="DejaVuSans-80"/>
     <path d="M 54.890625 33.015625 
L 54.890625 0 
L 45.90625 0 
L 45.90625 32.71875 
Q 45.90625 40.484375 42.875 44.328125 
Q 39.84375 48.1875 33.796875 48.1875 
Q 26.515625 48.1875 22.3125 43.546875 
Q 18.109375 38.921875 18.109375 30.90625 
L 18.109375 0 
L 9.078125 0 
L 9.078125 75.984375 
L 18.109375 75.984375 
L 18.109375 46.1875 
Q 21.34375 51.125 25.703125 53.5625 
Q 30.078125 56 35.796875 56 
Q 45.21875 56 50.046875 50.171875 
Q 54.890625 44.34375 54.890625 33.015625 
z
" id="DejaVuSans-104"/>
     <path d="M 34.28125 27.484375 
Q 23.390625 27.484375 19.1875 25 
Q 14.984375 22.515625 14.984375 16.5 
Q 14.984375 11.71875 18.140625 8.90625 
Q 21.296875 6.109375 26.703125 6.109375 
Q 34.1875 6.109375 38.703125 11.40625 
Q 43.21875 16.703125 43.21875 25.484375 
L 43.21875 27.484375 
z
M 52.203125 31.203125 
L 52.203125 0 
L 43.21875 0 
L 43.21875 8.296875 
Q 40.140625 3.328125 35.546875 0.953125 
Q 30.953125 -1.421875 24.3125 -1.421875 
Q 15.921875 -1.421875 10.953125 3.296875 
Q 6 8.015625 6 15.921875 
Q 6 25.140625 12.171875 29.828125 
Q 18.359375 34.515625 30.609375 34.515625 
L 43.21875 34.515625 
L 43.21875 35.40625 
Q 43.21875 41.609375 39.140625 45 
Q 35.0625 48.390625 27.6875 48.390625 
Q 23 48.390625 18.546875 47.265625 
Q 14.109375 46.140625 10.015625 43.890625 
L 10.015625 52.203125 
Q 14.9375 54.109375 19.578125 55.046875 
Q 24.21875 56 28.609375 56 
Q 40.484375 56 46.34375 49.84375 
Q 52.203125 43.703125 52.203125 31.203125 
z
" id="DejaVuSans-97"/>
     <path d="M 44.28125 53.078125 
L 44.28125 44.578125 
Q 40.484375 46.53125 36.375 47.5 
Q 32.28125 48.484375 27.875 48.484375 
Q 21.1875 48.484375 17.84375 46.4375 
Q 14.5 44.390625 14.5 40.28125 
Q 14.5 37.15625 16.890625 35.375 
Q 19.28125 33.59375 26.515625 31.984375 
L 29.59375 31.296875 
Q 39.15625 29.25 43.1875 25.515625 
Q 47.21875 21.78125 47.21875 15.09375 
Q 47.21875 7.46875 41.1875 3.015625 
Q 35.15625 -1.421875 24.609375 -1.421875 
Q 20.21875 -1.421875 15.453125 -0.5625 
Q 10.6875 0.296875 5.421875 2 
L 5.421875 11.28125 
Q 10.40625 8.6875 15.234375 7.390625 
Q 20.0625 6.109375 24.8125 6.109375 
Q 31.15625 6.109375 34.5625 8.28125 
Q 37.984375 10.453125 37.984375 14.40625 
Q 37.984375 18.0625 35.515625 20.015625 
Q 33.0625 21.96875 24.703125 23.78125 
L 21.578125 24.515625 
Q 13.234375 26.265625 9.515625 29.90625 
Q 5.8125 33.546875 5.8125 39.890625 
Q 5.8125 47.609375 11.28125 51.796875 
Q 16.75 56 26.8125 56 
Q 31.78125 56 36.171875 55.265625 
Q 40.578125 54.546875 44.28125 53.078125 
z
" id="DejaVuSans-115"/>
     <path d="M 56.203125 29.59375 
L 56.203125 25.203125 
L 14.890625 25.203125 
Q 15.484375 15.921875 20.484375 11.0625 
Q 25.484375 6.203125 34.421875 6.203125 
Q 39.59375 6.203125 44.453125 7.46875 
Q 49.3125 8.734375 54.109375 11.28125 
L 54.109375 2.78125 
Q 49.265625 0.734375 44.1875 -0.34375 
Q 39.109375 -1.421875 33.890625 -1.421875 
Q 20.796875 -1.421875 13.15625 6.1875 
Q 5.515625 13.8125 5.515625 26.8125 
Q 5.515625 40.234375 12.765625 48.109375 
Q 20.015625 56 32.328125 56 
Q 43.359375 56 49.78125 48.890625 
Q 56.203125 41.796875 56.203125 29.59375 
z
M 47.21875 32.234375 
Q 47.125 39.59375 43.09375 43.984375 
Q 39.0625 48.390625 32.421875 48.390625 
Q 24.90625 48.390625 20.390625 44.140625 
Q 15.875 39.890625 15.1875 32.171875 
z
" id="DejaVuSans-101"/>
     <path id="DejaVuSans-32"/>
     <path d="M 53.515625 70.515625 
L 53.515625 60.890625 
Q 47.90625 63.578125 42.921875 64.890625 
Q 37.9375 66.21875 33.296875 66.21875 
Q 25.25 66.21875 20.875 63.09375 
Q 16.5 59.96875 16.5 54.203125 
Q 16.5 49.359375 19.40625 46.890625 
Q 22.3125 44.4375 30.421875 42.921875 
L 36.375 41.703125 
Q 47.40625 39.59375 52.65625 34.296875 
Q 57.90625 29 57.90625 20.125 
Q 57.90625 9.515625 50.796875 4.046875 
Q 43.703125 -1.421875 29.984375 -1.421875 
Q 24.8125 -1.421875 18.96875 -0.25 
Q 13.140625 0.921875 6.890625 3.21875 
L 6.890625 13.375 
Q 12.890625 10.015625 18.65625 8.296875 
Q 24.421875 6.59375 29.984375 6.59375 
Q 38.421875 6.59375 43.015625 9.90625 
Q 47.609375 13.234375 47.609375 19.390625 
Q 47.609375 24.75 44.3125 27.78125 
Q 41.015625 30.8125 33.5 32.328125 
L 27.484375 33.5 
Q 16.453125 35.6875 11.515625 40.375 
Q 6.59375 45.0625 6.59375 53.421875 
Q 6.59375 63.09375 13.40625 68.65625 
Q 20.21875 74.21875 32.171875 74.21875 
Q 37.3125 74.21875 42.625 73.28125 
Q 47.953125 72.359375 53.515625 70.515625 
z
" id="DejaVuSans-83"/>
     <path d="M 18.109375 8.203125 
L 18.109375 -20.796875 
L 9.078125 -20.796875 
L 9.078125 54.6875 
L 18.109375 54.6875 
L 18.109375 46.390625 
Q 20.953125 51.265625 25.265625 53.625 
Q 29.59375 56 35.59375 56 
Q 45.5625 56 51.78125 48.09375 
Q 58.015625 40.1875 58.015625 27.296875 
Q 58.015625 14.40625 51.78125 6.484375 
Q 45.5625 -1.421875 35.59375 -1.421875 
Q 29.59375 -1.421875 25.265625 0.953125 
Q 20.953125 3.328125 18.109375 8.203125 
z
M 48.6875 27.296875 
Q 48.6875 37.203125 44.609375 42.84375 
Q 40.53125 48.484375 33.40625 48.484375 
Q 26.265625 48.484375 22.1875 42.84375 
Q 18.109375 37.203125 18.109375 27.296875 
Q 18.109375 17.390625 22.1875 11.75 
Q 26.265625 6.109375 33.40625 6.109375 
Q 40.53125 6.109375 44.609375 11.75 
Q 48.6875 17.390625 48.6875 27.296875 
z
" id="DejaVuSans-112"/>
     <path d="M 48.78125 52.59375 
L 48.78125 44.1875 
Q 44.96875 46.296875 41.140625 47.34375 
Q 37.3125 48.390625 33.40625 48.390625 
Q 24.65625 48.390625 19.8125 42.84375 
Q 14.984375 37.3125 14.984375 27.296875 
Q 14.984375 17.28125 19.8125 11.734375 
Q 24.65625 6.203125 33.40625 6.203125 
Q 37.3125 6.203125 41.140625 7.25 
Q 44.96875 8.296875 48.78125 10.40625 
L 48.78125 2.09375 
Q 45.015625 0.34375 40.984375 -0.53125 
Q 36.96875 -1.421875 32.421875 -1.421875 
Q 20.0625 -1.421875 12.78125 6.34375 
Q 5.515625 14.109375 5.515625 27.296875 
Q 5.515625 40.671875 12.859375 48.328125 
Q 20.21875 56 33.015625 56 
Q 37.15625 56 41.109375 55.140625 
Q 45.0625 54.296875 48.78125 52.59375 
z
" id="DejaVuSans-99"/>
     <path d="M 30.609375 48.390625 
Q 23.390625 48.390625 19.1875 42.75 
Q 14.984375 37.109375 14.984375 27.296875 
Q 14.984375 17.484375 19.15625 11.84375 
Q 23.34375 6.203125 30.609375 6.203125 
Q 37.796875 6.203125 41.984375 11.859375 
Q 46.1875 17.53125 46.1875 27.296875 
Q 46.1875 37.015625 41.984375 42.703125 
Q 37.796875 48.390625 30.609375 48.390625 
z
M 30.609375 56 
Q 42.328125 56 49.015625 48.375 
Q 55.71875 40.765625 55.71875 27.296875 
Q 55.71875 13.875 49.015625 6.21875 
Q 42.328125 -1.421875 30.609375 -1.421875 
Q 18.84375 -1.421875 12.171875 6.21875 
Q 5.515625 13.875 5.515625 27.296875 
Q 5.515625 40.765625 12.171875 48.375 
Q 18.84375 56 30.609375 56 
z
" id="DejaVuSans-111"/>
     <path d="M 37.109375 75.984375 
L 37.109375 68.5 
L 28.515625 68.5 
Q 23.6875 68.5 21.796875 66.546875 
Q 19.921875 64.59375 19.921875 59.515625 
L 19.921875 54.6875 
L 34.71875 54.6875 
L 34.71875 47.703125 
L 19.921875 47.703125 
L 19.921875 0 
L 10.890625 0 
L 10.890625 47.703125 
L 2.296875 47.703125 
L 2.296875 54.6875 
L 10.890625 54.6875 
L 10.890625 58.5 
Q 10.890625 67.625 15.140625 71.796875 
Q 19.390625 75.984375 28.609375 75.984375 
z
" id="DejaVuSans-102"/>
     <path d="M 9.8125 72.90625 
L 24.515625 72.90625 
L 43.109375 23.296875 
L 61.8125 72.90625 
L 76.515625 72.90625 
L 76.515625 0 
L 66.890625 0 
L 66.890625 64.015625 
L 48.09375 14.015625 
L 38.1875 14.015625 
L 19.390625 64.015625 
L 19.390625 0 
L 9.8125 0 
z
" id="DejaVuSans-77"/>
    </defs>
    <g transform="translate(167.625937 35.472)scale(0.12 -0.12)">
     <use xlink:href="#DejaVuSans-80"/>
     <use x="60.302734" xlink:href="#DejaVuSans-104"/>
     <use x="123.681641" xlink:href="#DejaVuSans-97"/>
     <use x="184.960938" xlink:href="#DejaVuSans-115"/>
     <use x="237.060547" xlink:href="#DejaVuSans-101"/>
     <use x="298.583984" xlink:href="#DejaVuSans-32"/>
     <use x="330.371094" xlink:href="#DejaVuSans-83"/>
     <use x="393.847656" xlink:href="#DejaVuSans-112"/>
     <use x="457.324219" xlink:href="#DejaVuSans-97"/>
     <use x="518.603516" xlink:href="#DejaVuSans-99"/>
     <use x="573.583984" xlink:href="#DejaVuSans-101"/>
     <use x="635.107422" xlink:href="#DejaVuSans-32"/>
     <use x="666.894531" xlink:href="#DejaVuSans-111"/>
     <use x="728.076172" xlink:href="#DejaVuSans-102"/>
     <use x="763.28125" xlink:href="#DejaVuSans-32"/>
     <use x="795.068359" xlink:href="#DejaVuSans-77"/>
     <use x="881.347656" xlink:href="#DejaVuSans-97"/>
     <use x="942.626953" xlink:href="#DejaVuSans-115"/>
     <use x="994.726562" xlink:href="#DejaVuSans-115"/>
     <use x="1046.826172" xlink:href="#DejaVuSans-32"/>
     <use x="1078.613281" xlink:href="#DejaVuSans-50"/>
    </g>
   </g>
   <g id="legend_1">
    <g id="patch_7">
     <path d="M 64.6 64.150125 
L 160.1 64.150125 
Q 162.1 64.150125 162.1 62.150125 
L 162.1 48.472 
Q 162.1 46.472 160.1 46.472 
L 64.6 46.472 
Q 62.6 46.472 62.6 48.472 
L 62.6 62.150125 
Q 62.6 64.150125 64.6 64.150125 
z
" style="fill:#ffffff;opacity:0.8;stroke:#cccccc;stroke-linejoin:miter;"/>
    </g>
    <g id="line2d_30">
     <path d="M 66.6 54.570438 
L 86.6 54.570438 
" style="fill:none;stroke:#800000;stroke-linecap:square;stroke-width:1.5;"/>
    </g>
    <g id="line2d_31"/>
    <g id="text_18">
     <!-- $\Gamma_2(t) = v_2(x_2)$ -->
     <defs>
      <path d="M 9.8125 0 
L 9.8125 72.90625 
L 55.171875 72.90625 
L 55.171875 64.59375 
L 19.671875 64.59375 
L 19.671875 0 
z
" id="DejaVuSans-915"/>
      <path d="M 10.59375 45.40625 
L 73.1875 45.40625 
L 73.1875 37.203125 
L 10.59375 37.203125 
z
M 10.59375 25.484375 
L 73.1875 25.484375 
L 73.1875 17.1875 
L 10.59375 17.1875 
z
" id="DejaVuSans-61"/>
     </defs>
     <g transform="translate(94.6 58.070438)scale(0.1 -0.1)">
      <use transform="translate(0 0.125)" xlink:href="#DejaVuSans-915"/>
      <use transform="translate(56.669922 -16.28125)scale(0.7)" xlink:href="#DejaVuSans-50"/>
      <use transform="translate(103.94043 0.125)" xlink:href="#DejaVuSans-40"/>
      <use transform="translate(142.954102 0.125)" xlink:href="#DejaVuSans-Oblique-116"/>
      <use transform="translate(182.163086 0.125)" xlink:href="#DejaVuSans-41"/>
      <use transform="translate(240.65918 0.125)" xlink:href="#DejaVuSans-61"/>
      <use transform="translate(343.930664 0.125)" xlink:href="#DejaVuSans-Oblique-118"/>
      <use transform="translate(403.110352 -16.28125)scale(0.7)" xlink:href="#DejaVuSans-50"/>
      <use transform="translate(450.380859 0.125)" xlink:href="#DejaVuSans-40"/>
      <use transform="translate(489.394531 0.125)" xlink:href="#DejaVuSans-Oblique-120"/>
      <use transform="translate(548.574219 -16.28125)scale(0.7)" xlink:href="#DejaVuSans-50"/>
      <use transform="translate(595.844727 0.125)" xlink:href="#DejaVuSans-41"/>
     </g>
    </g>
   </g>
  </g>
 </g>
 <defs>
  <clipPath id="pbf4728a322">
   <rect height="266.112" width="357.12" x="57.6" y="41.472"/>
  </clipPath>
 </defs>
</svg>
