<?xml version="1.0" encoding="utf-8" standalone="no"?>
<!DOCTYPE svg PUBLIC "-//W3C//DTD SVG 1.1//EN"
  "http://www.w3.org/Graphics/SVG/1.1/DTD/svg11.dtd">
<!-- Created with matplotlib (https://matplotlib.org/) -->
<svg height="345.6pt" version="1.1" viewBox="0 0 460.8 345.6" width="460.8pt" xmlns="http://www.w3.org/2000/svg" xmlns:xlink="http://www.w3.org/1999/xlink">
 <defs>
  <style type="text/css">
*{stroke-linecap:butt;stroke-linejoin:round;}
  </style>
 </defs>
 <g id="figure_1">
  <g id="patch_1">
   <path d="M 0 345.6 
L 460.8 345.6 
L 460.8 0 
L 0 0 
z
" style="fill:#ffffff;"/>
  </g>
  <g id="axes_1">
   <g id="patch_2">
    <path d="M 57.6 307.584 
L 414.72 307.584 
L 414.72 41.472 
L 57.6 41.472 
z
" style="fill:#ffffff;"/>
   </g>
   <g id="matplotlib.axis_1">
    <g id="xtick_1">
     <g id="line2d_1">
      <path clip-path="url(#pdd217101b3)" d="M 93.908927 307.584 
L 93.908927 41.472 
" style="fill:none;stroke:#b0b0b0;stroke-linecap:square;stroke-width:0.8;"/>
     </g>
     <g id="line2d_2">
      <defs>
       <path d="M 0 0 
L 0 3.5 
" id="maf8f7e82b0" style="stroke:#000000;stroke-width:0.8;"/>
      </defs>
      <g>
       <use style="stroke:#000000;stroke-width:0.8;" x="93.908927" xlink:href="#maf8f7e82b0" y="307.584"/>
      </g>
     </g>
     <g id="text_1">
      <!-- 0.2 -->
      <defs>
       <path d="M 31.78125 66.40625 
Q 24.171875 66.40625 20.328125 58.90625 
Q 16.5 51.421875 16.5 36.375 
Q 16.5 21.390625 20.328125 13.890625 
Q 24.171875 6.390625 31.78125 6.390625 
Q 39.453125 6.390625 43.28125 13.890625 
Q 47.125 21.390625 47.125 36.375 
Q 47.125 51.421875 43.28125 58.90625 
Q 39.453125 66.40625 31.78125 66.40625 
z
M 31.78125 74.21875 
Q 44.046875 74.21875 50.515625 64.515625 
Q 56.984375 54.828125 56.984375 36.375 
Q 56.984375 17.96875 50.515625 8.265625 
Q 44.046875 -1.421875 31.78125 -1.421875 
Q 19.53125 -1.421875 13.0625 8.265625 
Q 6.59375 17.96875 6.59375 36.375 
Q 6.59375 54.828125 13.0625 64.515625 
Q 19.53125 74.21875 31.78125 74.21875 
z
" id="DejaVuSans-48"/>
       <path d="M 10.6875 12.40625 
L 21 12.40625 
L 21 0 
L 10.6875 0 
z
" id="DejaVuSans-46"/>
       <path d="M 19.1875 8.296875 
L 53.609375 8.296875 
L 53.609375 0 
L 7.328125 0 
L 7.328125 8.296875 
Q 12.9375 14.109375 22.625 23.890625 
Q 32.328125 33.6875 34.8125 36.53125 
Q 39.546875 41.84375 41.421875 45.53125 
Q 43.3125 49.21875 43.3125 52.78125 
Q 43.3125 58.59375 39.234375 62.25 
Q 35.15625 65.921875 28.609375 65.921875 
Q 23.96875 65.921875 18.8125 64.3125 
Q 13.671875 62.703125 7.8125 59.421875 
L 7.8125 69.390625 
Q 13.765625 71.78125 18.9375 73 
Q 24.125 74.21875 28.421875 74.21875 
Q 39.75 74.21875 46.484375 68.546875 
Q 53.21875 62.890625 53.21875 53.421875 
Q 53.21875 48.921875 51.53125 44.890625 
Q 49.859375 40.875 45.40625 35.40625 
Q 44.1875 33.984375 37.640625 27.21875 
Q 31.109375 20.453125 19.1875 8.296875 
z
" id="DejaVuSans-50"/>
      </defs>
      <g transform="translate(85.957365 322.182437)scale(0.1 -0.1)">
       <use xlink:href="#DejaVuSans-48"/>
       <use x="63.623047" xlink:href="#DejaVuSans-46"/>
       <use x="95.410156" xlink:href="#DejaVuSans-50"/>
      </g>
     </g>
    </g>
    <g id="xtick_2">
     <g id="line2d_3">
      <path clip-path="url(#pdd217101b3)" d="M 170.053514 307.584 
L 170.053514 41.472 
" style="fill:none;stroke:#b0b0b0;stroke-linecap:square;stroke-width:0.8;"/>
     </g>
     <g id="line2d_4">
      <g>
       <use style="stroke:#000000;stroke-width:0.8;" x="170.053514" xlink:href="#maf8f7e82b0" y="307.584"/>
      </g>
     </g>
     <g id="text_2">
      <!-- 0.4 -->
      <defs>
       <path d="M 37.796875 64.3125 
L 12.890625 25.390625 
L 37.796875 25.390625 
z
M 35.203125 72.90625 
L 47.609375 72.90625 
L 47.609375 25.390625 
L 58.015625 25.390625 
L 58.015625 17.1875 
L 47.609375 17.1875 
L 47.609375 0 
L 37.796875 0 
L 37.796875 17.1875 
L 4.890625 17.1875 
L 4.890625 26.703125 
z
" id="DejaVuSans-52"/>
      </defs>
      <g transform="translate(162.101951 322.182437)scale(0.1 -0.1)">
       <use xlink:href="#DejaVuSans-48"/>
       <use x="63.623047" xlink:href="#DejaVuSans-46"/>
       <use x="95.410156" xlink:href="#DejaVuSans-52"/>
      </g>
     </g>
    </g>
    <g id="xtick_3">
     <g id="line2d_5">
      <path clip-path="url(#pdd217101b3)" d="M 246.1981 307.584 
L 246.1981 41.472 
" style="fill:none;stroke:#b0b0b0;stroke-linecap:square;stroke-width:0.8;"/>
     </g>
     <g id="line2d_6">
      <g>
       <use style="stroke:#000000;stroke-width:0.8;" x="246.1981" xlink:href="#maf8f7e82b0" y="307.584"/>
      </g>
     </g>
     <g id="text_3">
      <!-- 0.6 -->
      <defs>
       <path d="M 33.015625 40.375 
Q 26.375 40.375 22.484375 35.828125 
Q 18.609375 31.296875 18.609375 23.390625 
Q 18.609375 15.53125 22.484375 10.953125 
Q 26.375 6.390625 33.015625 6.390625 
Q 39.65625 6.390625 43.53125 10.953125 
Q 47.40625 15.53125 47.40625 23.390625 
Q 47.40625 31.296875 43.53125 35.828125 
Q 39.65625 40.375 33.015625 40.375 
z
M 52.59375 71.296875 
L 52.59375 62.3125 
Q 48.875 64.0625 45.09375 64.984375 
Q 41.3125 65.921875 37.59375 65.921875 
Q 27.828125 65.921875 22.671875 59.328125 
Q 17.53125 52.734375 16.796875 39.40625 
Q 19.671875 43.65625 24.015625 45.921875 
Q 28.375 48.1875 33.59375 48.1875 
Q 44.578125 48.1875 50.953125 41.515625 
Q 57.328125 34.859375 57.328125 23.390625 
Q 57.328125 12.15625 50.6875 5.359375 
Q 44.046875 -1.421875 33.015625 -1.421875 
Q 20.359375 -1.421875 13.671875 8.265625 
Q 6.984375 17.96875 6.984375 36.375 
Q 6.984375 53.65625 15.1875 63.9375 
Q 23.390625 74.21875 37.203125 74.21875 
Q 40.921875 74.21875 44.703125 73.484375 
Q 48.484375 72.75 52.59375 71.296875 
z
" id="DejaVuSans-54"/>
      </defs>
      <g transform="translate(238.246538 322.182437)scale(0.1 -0.1)">
       <use xlink:href="#DejaVuSans-48"/>
       <use x="63.623047" xlink:href="#DejaVuSans-46"/>
       <use x="95.410156" xlink:href="#DejaVuSans-54"/>
      </g>
     </g>
    </g>
    <g id="xtick_4">
     <g id="line2d_7">
      <path clip-path="url(#pdd217101b3)" d="M 322.342686 307.584 
L 322.342686 41.472 
" style="fill:none;stroke:#b0b0b0;stroke-linecap:square;stroke-width:0.8;"/>
     </g>
     <g id="line2d_8">
      <g>
       <use style="stroke:#000000;stroke-width:0.8;" x="322.342686" xlink:href="#maf8f7e82b0" y="307.584"/>
      </g>
     </g>
     <g id="text_4">
      <!-- 0.8 -->
      <defs>
       <path d="M 31.78125 34.625 
Q 24.75 34.625 20.71875 30.859375 
Q 16.703125 27.09375 16.703125 20.515625 
Q 16.703125 13.921875 20.71875 10.15625 
Q 24.75 6.390625 31.78125 6.390625 
Q 38.8125 6.390625 42.859375 10.171875 
Q 46.921875 13.96875 46.921875 20.515625 
Q 46.921875 27.09375 42.890625 30.859375 
Q 38.875 34.625 31.78125 34.625 
z
M 21.921875 38.8125 
Q 15.578125 40.375 12.03125 44.71875 
Q 8.5 49.078125 8.5 55.328125 
Q 8.5 64.0625 14.71875 69.140625 
Q 20.953125 74.21875 31.78125 74.21875 
Q 42.671875 74.21875 48.875 69.140625 
Q 55.078125 64.0625 55.078125 55.328125 
Q 55.078125 49.078125 51.53125 44.71875 
Q 48 40.375 41.703125 38.8125 
Q 48.828125 37.15625 52.796875 32.3125 
Q 56.78125 27.484375 56.78125 20.515625 
Q 56.78125 9.90625 50.3125 4.234375 
Q 43.84375 -1.421875 31.78125 -1.421875 
Q 19.734375 -1.421875 13.25 4.234375 
Q 6.78125 9.90625 6.78125 20.515625 
Q 6.78125 27.484375 10.78125 32.3125 
Q 14.796875 37.15625 21.921875 38.8125 
z
M 18.3125 54.390625 
Q 18.3125 48.734375 21.84375 45.5625 
Q 25.390625 42.390625 31.78125 42.390625 
Q 38.140625 42.390625 41.71875 45.5625 
Q 45.3125 48.734375 45.3125 54.390625 
Q 45.3125 60.0625 41.71875 63.234375 
Q 38.140625 66.40625 31.78125 66.40625 
Q 25.390625 66.40625 21.84375 63.234375 
Q 18.3125 60.0625 18.3125 54.390625 
z
" id="DejaVuSans-56"/>
      </defs>
      <g transform="translate(314.391124 322.182437)scale(0.1 -0.1)">
       <use xlink:href="#DejaVuSans-48"/>
       <use x="63.623047" xlink:href="#DejaVuSans-46"/>
       <use x="95.410156" xlink:href="#DejaVuSans-56"/>
      </g>
     </g>
    </g>
    <g id="xtick_5">
     <g id="line2d_9">
      <path clip-path="url(#pdd217101b3)" d="M 398.487273 307.584 
L 398.487273 41.472 
" style="fill:none;stroke:#b0b0b0;stroke-linecap:square;stroke-width:0.8;"/>
     </g>
     <g id="line2d_10">
      <g>
       <use style="stroke:#000000;stroke-width:0.8;" x="398.487273" xlink:href="#maf8f7e82b0" y="307.584"/>
      </g>
     </g>
     <g id="text_5">
      <!-- 1.0 -->
      <defs>
       <path d="M 12.40625 8.296875 
L 28.515625 8.296875 
L 28.515625 63.921875 
L 10.984375 60.40625 
L 10.984375 69.390625 
L 28.421875 72.90625 
L 38.28125 72.90625 
L 38.28125 8.296875 
L 54.390625 8.296875 
L 54.390625 0 
L 12.40625 0 
z
" id="DejaVuSans-49"/>
      </defs>
      <g transform="translate(390.53571 322.182437)scale(0.1 -0.1)">
       <use xlink:href="#DejaVuSans-49"/>
       <use x="63.623047" xlink:href="#DejaVuSans-46"/>
       <use x="95.410156" xlink:href="#DejaVuSans-48"/>
      </g>
     </g>
    </g>
    <g id="text_6">
     <!-- $x_1(t)$ -->
     <defs>
      <path d="M 60.015625 54.6875 
L 34.90625 27.875 
L 50.296875 0 
L 39.984375 0 
L 28.421875 21.6875 
L 8.296875 0 
L -2.59375 0 
L 24.3125 28.8125 
L 10.015625 54.6875 
L 20.3125 54.6875 
L 30.8125 34.90625 
L 49.125 54.6875 
z
" id="DejaVuSans-Oblique-120"/>
      <path d="M 31 75.875 
Q 24.46875 64.65625 21.28125 53.65625 
Q 18.109375 42.671875 18.109375 31.390625 
Q 18.109375 20.125 21.3125 9.0625 
Q 24.515625 -2 31 -13.1875 
L 23.1875 -13.1875 
Q 15.875 -1.703125 12.234375 9.375 
Q 8.59375 20.453125 8.59375 31.390625 
Q 8.59375 42.28125 12.203125 53.3125 
Q 15.828125 64.359375 23.1875 75.875 
z
" id="DejaVuSans-40"/>
      <path d="M 42.28125 54.6875 
L 40.921875 47.703125 
L 23 47.703125 
L 17.1875 18.015625 
Q 16.890625 16.359375 16.75 15.234375 
Q 16.609375 14.109375 16.609375 13.484375 
Q 16.609375 10.359375 18.484375 8.9375 
Q 20.359375 7.515625 24.515625 7.515625 
L 33.59375 7.515625 
L 32.078125 0 
L 23.484375 0 
Q 15.484375 0 11.546875 3.125 
Q 7.625 6.25 7.625 12.59375 
Q 7.625 13.71875 7.765625 15.0625 
Q 7.90625 16.40625 8.203125 18.015625 
L 14.015625 47.703125 
L 6.390625 47.703125 
L 7.8125 54.6875 
L 15.28125 54.6875 
L 18.3125 70.21875 
L 27.296875 70.21875 
L 24.3125 54.6875 
z
" id="DejaVuSans-Oblique-116"/>
      <path d="M 8.015625 75.875 
L 15.828125 75.875 
Q 23.140625 64.359375 26.78125 53.3125 
Q 30.421875 42.28125 30.421875 31.390625 
Q 30.421875 20.453125 26.78125 9.375 
Q 23.140625 -1.703125 15.828125 -13.1875 
L 8.015625 -13.1875 
Q 14.5 -2 17.703125 9.0625 
Q 20.90625 20.125 20.90625 31.390625 
Q 20.90625 42.671875 17.703125 53.65625 
Q 14.5 64.65625 8.015625 75.875 
z
" id="DejaVuSans-41"/>
     </defs>
     <g transform="translate(224.96 335.860562)scale(0.1 -0.1)">
      <use transform="translate(0 0.125)" xlink:href="#DejaVuSans-Oblique-120"/>
      <use transform="translate(59.179688 -16.28125)scale(0.7)" xlink:href="#DejaVuSans-49"/>
      <use transform="translate(106.450195 0.125)" xlink:href="#DejaVuSans-40"/>
      <use transform="translate(145.463867 0.125)" xlink:href="#DejaVuSans-Oblique-116"/>
      <use transform="translate(184.672852 0.125)" xlink:href="#DejaVuSans-41"/>
     </g>
    </g>
   </g>
   <g id="matplotlib.axis_2">
    <g id="ytick_1">
     <g id="line2d_11">
      <path clip-path="url(#pdd217101b3)" d="M 57.6 286.114936 
L 414.72 286.114936 
" style="fill:none;stroke:#b0b0b0;stroke-linecap:square;stroke-width:0.8;"/>
     </g>
     <g id="line2d_12">
      <defs>
       <path d="M 0 0 
L -3.5 0 
" id="me188c22de8" style="stroke:#000000;stroke-width:0.8;"/>
      </defs>
      <g>
       <use style="stroke:#000000;stroke-width:0.8;" x="57.6" xlink:href="#me188c22de8" y="286.114936"/>
      </g>
     </g>
     <g id="text_7">
      <!-- −0.8 -->
      <defs>
       <path d="M 10.59375 35.5 
L 73.1875 35.5 
L 73.1875 27.203125 
L 10.59375 27.203125 
z
" id="DejaVuSans-8722"/>
      </defs>
      <g transform="translate(26.317187 289.914155)scale(0.1 -0.1)">
       <use xlink:href="#DejaVuSans-8722"/>
       <use x="83.789062" xlink:href="#DejaVuSans-48"/>
       <use x="147.412109" xlink:href="#DejaVuSans-46"/>
       <use x="179.199219" xlink:href="#DejaVuSans-56"/>
      </g>
     </g>
    </g>
    <g id="ytick_2">
     <g id="line2d_13">
      <path clip-path="url(#pdd217101b3)" d="M 57.6 254.775283 
L 414.72 254.775283 
" style="fill:none;stroke:#b0b0b0;stroke-linecap:square;stroke-width:0.8;"/>
     </g>
     <g id="line2d_14">
      <g>
       <use style="stroke:#000000;stroke-width:0.8;" x="57.6" xlink:href="#me188c22de8" y="254.775283"/>
      </g>
     </g>
     <g id="text_8">
      <!-- −0.6 -->
      <g transform="translate(26.317187 258.574502)scale(0.1 -0.1)">
       <use xlink:href="#DejaVuSans-8722"/>
       <use x="83.789062" xlink:href="#DejaVuSans-48"/>
       <use x="147.412109" xlink:href="#DejaVuSans-46"/>
       <use x="179.199219" xlink:href="#DejaVuSans-54"/>
      </g>
     </g>
    </g>
    <g id="ytick_3">
     <g id="line2d_15">
      <path clip-path="url(#pdd217101b3)" d="M 57.6 223.435629 
L 414.72 223.435629 
" style="fill:none;stroke:#b0b0b0;stroke-linecap:square;stroke-width:0.8;"/>
     </g>
     <g id="line2d_16">
      <g>
       <use style="stroke:#000000;stroke-width:0.8;" x="57.6" xlink:href="#me188c22de8" y="223.435629"/>
      </g>
     </g>
     <g id="text_9">
      <!-- −0.4 -->
      <g transform="translate(26.317187 227.234848)scale(0.1 -0.1)">
       <use xlink:href="#DejaVuSans-8722"/>
       <use x="83.789062" xlink:href="#DejaVuSans-48"/>
       <use x="147.412109" xlink:href="#DejaVuSans-46"/>
       <use x="179.199219" xlink:href="#DejaVuSans-52"/>
      </g>
     </g>
    </g>
    <g id="ytick_4">
     <g id="line2d_17">
      <path clip-path="url(#pdd217101b3)" d="M 57.6 192.095975 
L 414.72 192.095975 
" style="fill:none;stroke:#b0b0b0;stroke-linecap:square;stroke-width:0.8;"/>
     </g>
     <g id="line2d_18">
      <g>
       <use style="stroke:#000000;stroke-width:0.8;" x="57.6" xlink:href="#me188c22de8" y="192.095975"/>
      </g>
     </g>
     <g id="text_10">
      <!-- −0.2 -->
      <g transform="translate(26.317187 195.895194)scale(0.1 -0.1)">
       <use xlink:href="#DejaVuSans-8722"/>
       <use x="83.789062" xlink:href="#DejaVuSans-48"/>
       <use x="147.412109" xlink:href="#DejaVuSans-46"/>
       <use x="179.199219" xlink:href="#DejaVuSans-50"/>
      </g>
     </g>
    </g>
    <g id="ytick_5">
     <g id="line2d_19">
      <path clip-path="url(#pdd217101b3)" d="M 57.6 160.756322 
L 414.72 160.756322 
" style="fill:none;stroke:#b0b0b0;stroke-linecap:square;stroke-width:0.8;"/>
     </g>
     <g id="line2d_20">
      <g>
       <use style="stroke:#000000;stroke-width:0.8;" x="57.6" xlink:href="#me188c22de8" y="160.756322"/>
      </g>
     </g>
     <g id="text_11">
      <!-- 0.0 -->
      <g transform="translate(34.696875 164.555541)scale(0.1 -0.1)">
       <use xlink:href="#DejaVuSans-48"/>
       <use x="63.623047" xlink:href="#DejaVuSans-46"/>
       <use x="95.410156" xlink:href="#DejaVuSans-48"/>
      </g>
     </g>
    </g>
    <g id="ytick_6">
     <g id="line2d_21">
      <path clip-path="url(#pdd217101b3)" d="M 57.6 129.416668 
L 414.72 129.416668 
" style="fill:none;stroke:#b0b0b0;stroke-linecap:square;stroke-width:0.8;"/>
     </g>
     <g id="line2d_22">
      <g>
       <use style="stroke:#000000;stroke-width:0.8;" x="57.6" xlink:href="#me188c22de8" y="129.416668"/>
      </g>
     </g>
     <g id="text_12">
      <!-- 0.2 -->
      <g transform="translate(34.696875 133.215887)scale(0.1 -0.1)">
       <use xlink:href="#DejaVuSans-48"/>
       <use x="63.623047" xlink:href="#DejaVuSans-46"/>
       <use x="95.410156" xlink:href="#DejaVuSans-50"/>
      </g>
     </g>
    </g>
    <g id="ytick_7">
     <g id="line2d_23">
      <path clip-path="url(#pdd217101b3)" d="M 57.6 98.077014 
L 414.72 98.077014 
" style="fill:none;stroke:#b0b0b0;stroke-linecap:square;stroke-width:0.8;"/>
     </g>
     <g id="line2d_24">
      <g>
       <use style="stroke:#000000;stroke-width:0.8;" x="57.6" xlink:href="#me188c22de8" y="98.077014"/>
      </g>
     </g>
     <g id="text_13">
      <!-- 0.4 -->
      <g transform="translate(34.696875 101.876233)scale(0.1 -0.1)">
       <use xlink:href="#DejaVuSans-48"/>
       <use x="63.623047" xlink:href="#DejaVuSans-46"/>
       <use x="95.410156" xlink:href="#DejaVuSans-52"/>
      </g>
     </g>
    </g>
    <g id="ytick_8">
     <g id="line2d_25">
      <path clip-path="url(#pdd217101b3)" d="M 57.6 66.737361 
L 414.72 66.737361 
" style="fill:none;stroke:#b0b0b0;stroke-linecap:square;stroke-width:0.8;"/>
     </g>
     <g id="line2d_26">
      <g>
       <use style="stroke:#000000;stroke-width:0.8;" x="57.6" xlink:href="#me188c22de8" y="66.737361"/>
      </g>
     </g>
     <g id="text_14">
      <!-- 0.6 -->
      <g transform="translate(34.696875 70.53658)scale(0.1 -0.1)">
       <use xlink:href="#DejaVuSans-48"/>
       <use x="63.623047" xlink:href="#DejaVuSans-46"/>
       <use x="95.410156" xlink:href="#DejaVuSans-54"/>
      </g>
     </g>
    </g>
    <g id="text_15">
     <!-- $v_1(t)$ -->
     <defs>
      <path d="M 7.171875 54.6875 
L 16.703125 54.6875 
L 24.703125 8.203125 
L 50.875 54.6875 
L 60.40625 54.6875 
L 29.296875 0 
L 17.1875 0 
z
" id="DejaVuSans-Oblique-118"/>
     </defs>
     <g transform="translate(20.2375 185.728)rotate(-90)scale(0.1 -0.1)">
      <use transform="translate(0 0.125)" xlink:href="#DejaVuSans-Oblique-118"/>
      <use transform="translate(59.179688 -16.28125)scale(0.7)" xlink:href="#DejaVuSans-49"/>
      <use transform="translate(106.450195 0.125)" xlink:href="#DejaVuSans-40"/>
      <use transform="translate(145.463867 0.125)" xlink:href="#DejaVuSans-Oblique-116"/>
      <use transform="translate(184.672852 0.125)" xlink:href="#DejaVuSans-41"/>
     </g>
    </g>
   </g>
   <g id="line2d_27">
    <path clip-path="url(#pdd217101b3)" d="M 398.487273 160.756322 
L 398.411366 166.994472 
L 398.184675 173.166792 
L 397.808911 179.264052 
L 397.286007 185.277226 
L 396.618115 191.197515 
L 395.807596 197.016363 
L 394.857015 202.725472 
L 393.769138 208.316816 
L 392.546918 213.782651 
L 391.193498 219.115538 
L 389.712195 224.308349 
L 388.106494 229.354276 
L 386.380045 234.246849 
L 384.536648 238.97994 
L 382.58025 243.547777 
L 380.514931 247.944952 
L 378.344902 252.166427 
L 376.074489 256.207544 
L 373.708126 260.064029 
L 371.250347 263.731999 
L 368.705773 267.207967 
L 366.079108 270.488842 
L 363.375127 273.571934 
L 360.598664 276.454959 
L 357.754603 279.136037 
L 354.84787 281.613693 
L 351.883422 283.886862 
L 348.866234 285.954876 
L 345.801297 287.817478 
L 342.693599 289.4748 
L 339.548122 290.92738 
L 336.369832 292.176137 
L 333.163664 293.222385 
L 329.934519 294.067809 
L 326.687253 294.714477 
L 323.426666 295.164814 
L 320.157494 295.42161 
L 316.884403 295.488 
L 313.611977 295.367462 
L 310.344712 295.063801 
L 307.087009 294.581143 
L 303.843163 293.923919 
L 300.61736 293.096859 
L 297.413663 292.104979 
L 294.236016 290.953557 
L 291.088225 289.648143 
L 287.973967 288.194516 
L 284.896765 286.598697 
L 281.86 284.866916 
L 278.8669 283.005605 
L 275.920528 281.021384 
L 273.023793 278.921037 
L 270.179427 276.711511 
L 264.657909 271.993364 
L 259.374417 266.924966 
L 254.344525 261.565799 
L 249.580903 255.976261 
L 245.093265 250.217162 
L 240.888363 244.34919 
L 236.970031 238.43241 
L 233.339207 232.525772 
L 229.993987 226.686615 
L 226.929745 220.970232 
L 222.843654 212.740579 
L 219.337965 205.070844 
L 215.484994 195.968629 
L 209.533135 181.496249 
L 208.126703 178.792938 
L 207.280918 177.614113 
L 206.480242 176.936135 
L 206.089227 176.783999 
L 205.700407 176.755314 
L 205.310796 176.848867 
L 204.517432 177.396393 
L 203.686037 178.411157 
L 202.794371 179.87336 
L 201.297881 182.852149 
L 192.285537 202.102624 
L 189.055481 208.078781 
L 186.656881 212.163549 
L 184.058977 216.273887 
L 181.261672 220.36246 
L 178.267162 224.382189 
L 175.079924 228.286649 
L 171.70668 232.030476 
L 168.156293 235.569724 
L 164.439764 238.86227 
L 160.57005 241.868121 
L 156.562 244.549745 
L 152.432239 246.872407 
L 148.198978 248.804373 
L 143.881916 250.317228 
L 141.69847 250.908553 
L 139.502039 251.386048 
L 137.29541 251.747143 
L 135.081447 251.989562 
L 132.863062 252.111262 
L 130.643206 252.110418 
L 128.424878 251.985482 
L 126.211109 251.73515 
L 124.004956 251.358366 
L 121.809503 250.854338 
L 119.627848 250.222522 
L 117.463099 249.46264 
L 115.318368 248.574672 
L 113.196766 247.558845 
L 111.101394 246.415648 
L 109.035337 245.145817 
L 107.001662 243.750338 
L 105.003407 242.230447 
L 103.043576 240.587621 
L 101.125136 238.823578 
L 99.25101 236.940274 
L 97.424068 234.939892 
L 95.647128 232.824844 
L 92.254199 228.26148 
L 89.093433 223.273743 
L 86.184812 217.888404 
L 83.546946 212.135196 
L 81.196932 206.046561 
L 79.150233 199.657365 
L 77.420563 193.004605 
L 76.019796 186.127102 
L 74.957877 179.065183 
L 74.242761 171.860351 
L 73.880368 164.554947 
L 73.874546 157.191813 
L 74.227051 149.813957 
L 74.937558 142.464214 
L 76.00367 135.18492 
L 77.420955 128.017589 
L 79.18298 121.002601 
L 81.28139 114.178903 
L 83.70598 107.583727 
L 86.444781 101.252326 
L 89.48416 95.217716 
L 92.808944 89.510465 
L 96.402536 84.158481 
L 100.247053 79.186837 
L 104.323462 74.617606 
L 106.442401 72.489942 
L 108.611735 70.469745 
L 110.828828 68.558875 
L 113.091002 66.758988 
L 115.395545 65.071544 
L 117.739707 63.497776 
L 120.120715 62.03872 
L 122.53577 60.695199 
L 124.982059 59.467817 
L 127.456753 58.356984 
L 129.957018 57.362886 
L 132.480018 56.485505 
L 135.022919 55.724627 
L 137.582896 55.079817 
L 140.157135 54.550452 
L 142.742841 54.135706 
L 145.337243 53.834552 
L 150.541177 53.568 
L 155.747381 53.738854 
L 160.934949 54.332327 
L 166.083758 55.330937 
L 171.174597 56.7147 
L 176.18928 58.461324 
L 181.110763 60.546427 
L 185.923223 62.943779 
L 190.612163 65.625527 
L 195.164469 68.56246 
L 199.56847 71.724273 
L 203.813993 75.079819 
L 207.892395 78.597383 
L 211.796578 82.24495 
L 215.520992 85.990465 
L 219.061668 89.8021 
L 222.416134 93.648502 
L 227.097078 99.416585 
L 231.360271 105.095232 
L 235.215649 110.592019 
L 239.75096 117.493802 
L 245.373982 126.591609 
L 250.446086 134.809542 
L 252.794773 138.207922 
L 254.365299 140.121127 
L 255.815969 141.499277 
L 256.735473 142.13102 
L 257.629647 142.543556 
L 258.508877 142.74816 
L 259.382952 142.75805 
L 260.260978 142.58824 
L 261.603424 142.033388 
L 262.997807 141.174077 
L 264.971167 139.672934 
L 270.01548 135.665934 
L 272.535933 134.019833 
L 274.523536 132.992948 
L 276.577128 132.219967 
L 277.972754 131.876736 
L 279.381296 131.690999 
L 280.794718 131.678081 
L 282.204284 131.851698 
L 283.600635 132.223841 
L 284.97387 132.804676 
L 286.313638 133.602463 
L 287.609237 134.623493 
L 288.849705 135.872049 
L 290.023923 137.350373 
L 291.120714 139.058658 
L 292.128941 140.995053 
L 293.037603 143.155688 
L 293.83594 145.534712 
L 294.513519 148.124351 
L 295.060334 150.914981 
L 295.466887 153.895212 
L 295.724275 157.05199 
L 295.824269 160.370708 
L 295.759385 163.835335 
L 295.522947 167.42855 
L 295.10915 171.131885 
L 294.513114 174.925876 
L 293.730922 178.790228 
L 292.759662 182.703975 
L 291.597452 186.645654 
L 290.243466 190.593466 
L 288.697939 194.525461 
L 286.962173 198.419699 
L 285.038532 202.254429 
L 282.930429 206.008248 
L 280.642304 209.660268 
L 278.179594 213.19027 
L 275.548703 216.578854 
L 272.756964 219.80759 
L 269.812559 222.859122 
L 266.724514 225.717345 
L 263.502575 228.367444 
L 260.157197 230.796066 
L 256.699429 232.991344 
L 253.140868 234.94301 
L 249.493569 236.642456 
L 245.769958 238.082734 
L 241.982769 239.258677 
L 238.144933 240.16681 
L 234.269516 240.805461 
L 230.369617 241.174664 
L 226.458294 241.276188 
L 222.548475 241.113498 
L 218.652885 240.691659 
L 214.783958 240.017363 
L 210.953772 239.098753 
L 207.173969 237.945432 
L 203.455695 236.5683 
L 199.809538 234.979491 
L 196.24546 233.192259 
L 192.772772 231.220829 
L 189.400047 229.080327 
L 186.13513 226.786589 
L 182.985061 224.356085 
L 179.956081 221.805738 
L 177.053595 219.152815 
L 172.946779 215.019319 
L 169.146438 210.753368 
L 165.660092 206.413284 
L 162.491071 202.055684 
L 159.638662 197.734551 
L 157.098342 193.500374 
L 154.862053 189.399368 
L 152.333428 184.20909 
L 150.290771 179.41077 
L 148.692756 175.067673 
L 147.492882 171.222751 
L 146.477129 167.149127 
L 145.906762 163.886049 
L 145.685766 161.385755 
L 145.726495 159.559324 
L 145.954241 158.284017 
L 146.310819 157.412109 
L 146.854979 156.668482 
L 148.542759 154.686729 
L 149.72226 152.813907 
L 152.761482 147.339368 
L 155.86677 142.010787 
L 158.377844 138.096696 
L 161.38577 133.850587 
L 164.172371 130.301054 
L 167.307195 126.697791 
L 169.887902 124.00926 
L 172.662918 121.372421 
L 175.627154 118.823476 
L 178.772888 116.398296 
L 182.089817 114.131782 
L 185.565151 112.057242 
L 189.183747 110.205804 
L 192.928291 108.605884 
L 196.77951 107.2827 
L 200.716419 106.257844 
L 204.716608 105.548942 
L 207.406966 105.258659 
L 210.107813 105.11772 
L 212.811835 105.128092 
L 215.511653 105.290856 
L 218.199854 105.60617 
L 220.869038 106.073289 
L 223.511865 106.690589 
L 226.121095 107.455546 
L 228.689631 108.364811 
L 232.45107 109.989912 
L 236.083086 111.91274 
L 239.564723 114.112312 
L 242.876672 116.56441 
L 246.001496 119.242022 
L 248.923811 122.115824 
L 251.630445 125.154684 
L 254.110544 128.326195 
L 256.355644 131.597213 
L 258.359707 134.934398 
L 260.119117 138.304744 
L 261.632635 141.676096 
L 262.90132 145.017633 
L 263.928416 148.300323 
L 264.719213 151.497336 
L 265.280852 154.584387 
L 265.622146 157.540046 
L 265.753357 160.345991 
L 265.685968 162.987184 
L 265.432431 165.451993 
L 265.005922 167.732247 
L 264.420086 169.823224 
L 263.688785 171.723586 
L 262.825863 173.435237 
L 261.844915 174.963143 
L 260.759068 176.315091 
L 259.580791 177.501411 
L 257.885926 178.847466 
L 256.072069 179.956225 
L 254.160425 180.866611 
L 251.659293 181.788917 
L 248.525652 182.687971 
L 235.370486 186.136659 
L 230.276654 187.842781 
L 214.313488 193.431067 
L 210.274721 194.543871 
L 206.112733 195.447203 
L 202.714241 195.969609 
L 199.275201 196.275751 
L 195.818205 196.334016 
L 192.368722 196.117478 
L 189.803186 195.761678 
L 187.26987 195.232513 
L 184.781585 194.525481 
L 182.351393 193.638344 
L 179.992434 192.571185 
L 177.717757 191.326426 
L 175.540149 189.908804 
L 173.471967 188.325302 
L 171.524981 186.585044 
L 169.710223 184.699154 
L 168.037848 182.68059 
L 166.517004 180.543943 
L 165.155721 178.305208 
L 163.960823 175.98153 
L 162.937846 173.59095 
L 162.090992 171.152123 
L 161.423086 168.684043 
L 160.935564 166.20576 
L 160.628481 163.736102 
L 160.500536 161.293407 
L 160.549112 158.895264 
L 160.770354 156.558288 
L 161.159238 154.2979 
L 161.70966 152.128135 
L 162.414547 150.061475 
L 163.265981 148.108724 
L 164.255319 146.278905 
L 165.373328 144.579193 
L 166.61032 143.014881 
L 167.956291 141.589376 
L 169.902826 139.907051 
L 172.000772 138.472826 
L 174.22629 137.280233 
L 176.556403 136.318115 
L 178.96942 135.571283 
L 181.445294 135.02129 
L 184.601103 134.578661 
L 187.796192 134.366974 
L 191.64687 134.354505 
L 196.120949 134.57953 
L 202.414663 135.160384 
L 211.548643 136.251693 
L 218.550267 137.266761 
L 223.03622 138.12246 
L 226.278885 138.932044 
L 229.389677 139.939723 
L 231.858176 140.964125 
L 234.190762 142.18076 
L 236.362961 143.606725 
L 237.967716 144.905308 
L 239.439352 146.346114 
L 240.764115 147.927252 
L 241.9286 149.643241 
L 242.920111 151.48503 
L 243.727006 153.440132 
L 244.339009 155.49288 
L 244.747507 157.624753 
L 244.94581 159.814803 
L 244.929363 162.04016 
L 244.695903 164.27659 
L 244.245566 166.499086 
L 243.580931 168.682477 
L 242.707003 170.802037 
L 241.631146 172.834069 
L 240.362955 174.756462 
L 238.914083 176.549179 
L 237.298007 178.194692 
L 235.529777 179.678327 
L 233.625709 180.988506 
L 231.603088 182.116917 
L 229.479848 183.058589 
L 227.274247 183.811861 
L 225.004545 184.378258 
L 222.688708 184.762283 
L 219.755458 184.997057 
L 216.809359 184.97743 
L 213.879921 184.727025 
L 210.993582 184.272607 
L 207.61909 183.498165 
L 204.372893 182.520603 
L 200.782307 181.185919 
L 197.432074 179.703971 
L 193.923439 177.894979 
L 190.77438 176.009929 
L 187.997164 174.07015 
L 185.880435 172.325701 
L 184.065077 170.523268 
L 182.757511 168.917704 
L 181.688891 167.24313 
L 180.870052 165.489545 
L 180.387122 163.963743 
L 180.093136 162.379251 
L 179.99504 160.739704 
L 180.099106 159.052576 
L 180.410462 157.329256 
L 180.932622 155.584909 
L 181.667042 153.838114 
L 182.612744 152.110321 
L 183.766003 150.42514 
L 185.120136 148.807518 
L 186.665393 147.282819 
L 188.388973 145.875894 
L 190.275129 144.610146 
L 192.305397 143.506663 
L 194.458932 142.583442 
L 196.712921 141.854734 
L 199.043084 141.33061 
L 201.424187 141.016649 
L 203.830591 140.913826 
L 206.236817 141.018593 
L 208.618079 141.323152 
L 210.950777 141.815873 
L 213.655094 142.634335 
L 216.223751 143.671583 
L 218.627307 144.893485 
L 220.841444 146.264249 
L 222.84707 147.748274 
L 224.63017 149.311829 
L 226.417001 151.196078 
L 227.880642 153.106342 
L 228.876617 154.740053 
L 229.635667 156.354826 
L 230.161319 157.940849 
L 230.45823 159.492348 
L 230.531659 161.006632 
L 230.387099 162.482969 
L 230.030084 163.921384 
L 229.466159 165.321496 
L 228.701018 166.681472 
L 227.562243 168.211731 
L 226.169113 169.670154 
L 224.535226 171.039537 
L 222.677578 172.297292 
L 220.617388 173.416551 
L 218.38069 174.367905 
L 215.998582 175.121602 
L 213.507083 175.649965 
L 211.314954 175.905743 
L 209.099539 175.96799 
L 206.889577 175.830255 
L 204.714396 175.491016 
L 202.603166 174.953963 
L 200.584138 174.227984 
L 198.683905 173.326875 
L 196.926723 172.268782 
L 195.333931 171.075423 
L 193.923499 169.771161 
L 192.709714 168.381961 
L 191.703026 166.934329 
L 190.910047 165.454293 
L 190.333678 163.96647 
L 189.973389 162.493307 
L 189.825572 161.054499 
L 189.883972 159.666638 
L 190.140149 158.343074 
L 190.583951 157.093989 
L 191.323566 155.740443 
L 192.283378 154.505508 
L 193.442832 153.393196 
L 194.780893 152.405415 
L 196.501507 151.430373 
L 198.395541 150.621441 
L 200.430367 149.982605 
L 202.572323 149.520471 
L 205.066186 149.223134 
L 207.316538 149.168346 
L 209.557493 149.321401 
L 211.74784 149.69006 
L 213.845273 150.277538 
L 215.807446 151.080659 
L 217.381101 151.951923 
L 218.794085 152.967549 
L 220.023256 154.110194 
L 221.048799 155.35812 
L 221.854923 156.685967 
L 222.430382 158.065783 
L 222.768824 159.468226 
L 222.868911 160.863846 
L 222.734237 162.224339 
L 222.373029 163.523663 
L 221.797685 164.738963 
L 221.024172 165.85121 
L 220.071339 166.845556 
L 218.960201 167.711377 
L 217.525361 168.535175 
L 215.947934 169.178261 
L 214.263062 169.641139 
L 212.282315 169.951463 
L 210.257328 170.047404 
L 208.233888 169.938969 
L 206.04037 169.591009 
L 203.959185 169.016477 
L 202.226388 168.316822 
L 200.664455 167.455772 
L 199.307211 166.447315 
L 198.297229 165.441723 
L 197.491359 164.350114 
L 196.904465 163.192173 
L 196.547249 161.990932 
L 196.425653 160.772256 
L 196.540386 159.563962 
L 196.886652 158.394644 
L 197.454131 157.292362 
L 198.227209 156.283294 
L 199.185467 155.390491 
L 200.30439 154.632866 
L 201.720612 153.95943 
L 203.262269 153.486925 
L 204.88484 153.219371 
L 206.728428 153.15811 
L 208.557973 153.33206 
L 210.318679 153.720952 
L 211.961233 154.300303 
L 213.442566 155.043616 
L 214.726122 155.923851 
L 215.781904 156.914097 
L 216.58644 157.987534 
L 217.081589 159.002233 
L 217.351775 160.041567 
L 217.393969 161.083768 
L 217.210032 162.105878 
L 216.806961 163.083982 
L 216.197034 163.993803 
L 215.397797 164.811595 
L 214.315344 165.585553 
L 213.064644 166.192674 
L 211.688775 166.613212 
L 210.234696 166.835191 
L 208.60316 166.846254 
L 207.000594 166.620683 
L 205.487937 166.17746 
L 204.119766 165.544785 
L 202.942204 164.757243 
L 201.9916 163.852868 
L 201.293973 162.87057 
L 200.892715 161.941877 
L 200.718364 161.007101 
L 200.769297 160.091487 
L 201.037966 159.218554 
L 201.51131 158.410218 
L 202.246519 157.619915 
L 203.176429 156.957117 
L 204.263992 156.443462 
L 205.580403 156.07361 
L 206.973797 155.917169 
L 208.380888 155.979685 
L 209.738358 156.255663 
L 210.986164 156.728188 
L 212.07077 157.369773 
L 212.947967 158.144359 
L 213.584969 159.010157 
L 213.940436 159.846096 
L 214.071004 160.687653 
L 213.979474 161.503092 
L 213.676714 162.263912 
L 213.180697 162.945545 
L 212.447491 163.575018 
L 211.469793 164.099425 
L 210.354798 164.441917 
L 209.068663 164.595002 
L 207.769064 164.521491 
L 206.531982 164.229841 
L 205.42845 163.740739 
L 204.520379 163.087022 
L 203.895136 162.370573 
L 203.507325 161.590807 
L 203.371612 160.853028 
L 203.449143 160.13369 
L 203.729722 159.465317 
L 204.240439 158.831686 
L 204.932634 158.320353 
L 205.83258 157.93007 
L 206.908693 157.712423 
L 208.025539 157.70611 
L 209.176429 157.922201 
L 210.202373 158.343635 
L 210.985711 158.891687 
L 211.548438 159.547008 
L 211.847204 160.21442 
L 211.915732 160.893799 
L 211.757016 161.543762 
L 211.387798 162.125364 
L 210.791963 162.634581 
L 209.982194 163.013598 
L 209.061815 163.201308 
L 208.047727 163.185168 
L 207.030951 162.940719 
L 206.166062 162.498069 
L 205.557316 161.944593 
L 205.209268 161.350935 
L 205.097971 160.734489 
L 205.223094 160.142325 
L 205.566448 159.618696 
L 206.131755 159.180017 
L 206.892565 158.884749 
L 207.788013 158.785649 
L 208.678201 158.905521 
L 209.503763 159.2415 
L 210.098834 159.713011 
L 210.453308 160.273384 
L 210.543051 160.827915 
L 210.409448 161.323317 
L 210.059819 161.771677 
L 209.505544 162.117479 
L 208.790455 162.30655 
L 207.992958 162.296611 
L 207.221132 162.069766 
L 206.620604 161.665398 
L 206.278704 161.176577 
L 206.194661 160.682742 
L 206.344704 160.222736 
L 206.699153 159.849256 
L 207.262261 159.585027 
L 207.949332 159.502758 
L 208.68059 159.639417 
L 209.265976 159.973428 
L 209.59819 160.412385 
L 209.665905 160.846045 
L 209.508796 161.243346 
L 209.142294 161.559943 
L 208.589933 161.740213 
L 207.939021 161.719925 
L 207.352673 161.484508 
L 206.991126 161.113851 
L 206.892688 160.721742 
L 207.027047 160.359433 
L 207.371697 160.084136 
L 207.883023 159.957256 
L 208.467999 160.03952 
L 208.913935 160.314705 
L 209.103705 160.666648 
L 209.047127 161.00501 
L 208.771132 161.270818 
L 208.309896 161.395193 
L 207.802556 161.310221 
L 207.437007 161.038975 
L 207.339919 160.721155 
L 207.47485 160.445695 
L 207.815991 160.268222 
L 208.279143 160.278488 
L 208.64408 160.490753 
L 208.753896 160.781641 
L 208.622881 161.025727 
L 208.299518 161.159076 
L 207.891832 161.097716 
L 207.643697 160.860252 
L 207.665775 160.613065 
L 207.900381 160.451906 
L 208.262116 160.463319 
L 208.508063 160.666409 
L 208.482466 160.886372 
L 208.247303 161.011958 
L 207.925426 160.945966 
L 207.806441 160.735694 
L 207.937881 160.578019 
L 208.22309 160.573073 
L 208.381888 160.752272 
L 208.273681 160.899735 
L 208.018689 160.889507 
L 207.928543 160.717564 
L 208.086041 160.62384 
L 208.283574 160.725071 
L 208.210413 160.851701 
L 208.012593 160.804522 
L 208.029059 160.69535 
L 208.05757 160.680378 
L 208.226601 160.736767 
L 208.177868 160.817842 
L 208.139606 160.824021 
L 208.04252 160.756343 
L 208.071396 160.712797 
L 208.098691 160.703585 
L 208.098691 160.703585 
" style="fill:none;stroke:#000080;stroke-linecap:square;stroke-width:1.5;"/>
   </g>
   <g id="patch_3">
    <path d="M 57.6 307.584 
L 57.6 41.472 
" style="fill:none;stroke:#000000;stroke-linecap:square;stroke-linejoin:miter;stroke-width:0.8;"/>
   </g>
   <g id="patch_4">
    <path d="M 414.72 307.584 
L 414.72 41.472 
" style="fill:none;stroke:#000000;stroke-linecap:square;stroke-linejoin:miter;stroke-width:0.8;"/>
   </g>
   <g id="patch_5">
    <path d="M 57.6 307.584 
L 414.72 307.584 
" style="fill:none;stroke:#000000;stroke-linecap:square;stroke-linejoin:miter;stroke-width:0.8;"/>
   </g>
   <g id="patch_6">
    <path d="M 57.6 41.472 
L 414.72 41.472 
" style="fill:none;stroke:#000000;stroke-linecap:square;stroke-linejoin:miter;stroke-width:0.8;"/>
   </g>
   <g id="text_16">
    <!-- Phase Space of Mass 1 -->
    <defs>
     <path d="M 19.671875 64.796875 
L 19.671875 37.40625 
L 32.078125 37.40625 
Q 38.96875 37.40625 42.71875 40.96875 
Q 46.484375 44.53125 46.484375 51.125 
Q 46.484375 57.671875 42.71875 61.234375 
Q 38.96875 64.796875 32.078125 64.796875 
z
M 9.8125 72.90625 
L 32.078125 72.90625 
Q 44.34375 72.90625 50.609375 67.359375 
Q 56.890625 61.8125 56.890625 51.125 
Q 56.890625 40.328125 50.609375 34.8125 
Q 44.34375 29.296875 32.078125 29.296875 
L 19.671875 29.296875 
L 19.671875 0 
L 9.8125 0 
z
" id="DejaVuSans-80"/>
     <path d="M 54.890625 33.015625 
L 54.890625 0 
L 45.90625 0 
L 45.90625 32.71875 
Q 45.90625 40.484375 42.875 44.328125 
Q 39.84375 48.1875 33.796875 48.1875 
Q 26.515625 48.1875 22.3125 43.546875 
Q 18.109375 38.921875 18.109375 30.90625 
L 18.109375 0 
L 9.078125 0 
L 9.078125 75.984375 
L 18.109375 75.984375 
L 18.109375 46.1875 
Q 21.34375 51.125 25.703125 53.5625 
Q 30.078125 56 35.796875 56 
Q 45.21875 56 50.046875 50.171875 
Q 54.890625 44.34375 54.890625 33.015625 
z
" id="DejaVuSans-104"/>
     <path d="M 34.28125 27.484375 
Q 23.390625 27.484375 19.1875 25 
Q 14.984375 22.515625 14.984375 16.5 
Q 14.984375 11.71875 18.140625 8.90625 
Q 21.296875 6.109375 26.703125 6.109375 
Q 34.1875 6.109375 38.703125 11.40625 
Q 43.21875 16.703125 43.21875 25.484375 
L 43.21875 27.484375 
z
M 52.203125 31.203125 
L 52.203125 0 
L 43.21875 0 
L 43.21875 8.296875 
Q 40.140625 3.328125 35.546875 0.953125 
Q 30.953125 -1.421875 24.3125 -1.421875 
Q 15.921875 -1.421875 10.953125 3.296875 
Q 6 8.015625 6 15.921875 
Q 6 25.140625 12.171875 29.828125 
Q 18.359375 34.515625 30.609375 34.515625 
L 43.21875 34.515625 
L 43.21875 35.40625 
Q 43.21875 41.609375 39.140625 45 
Q 35.0625 48.390625 27.6875 48.390625 
Q 23 48.390625 18.546875 47.265625 
Q 14.109375 46.140625 10.015625 43.890625 
L 10.015625 52.203125 
Q 14.9375 54.109375 19.578125 55.046875 
Q 24.21875 56 28.609375 56 
Q 40.484375 56 46.34375 49.84375 
Q 52.203125 43.703125 52.203125 31.203125 
z
" id="DejaVuSans-97"/>
     <path d="M 44.28125 53.078125 
L 44.28125 44.578125 
Q 40.484375 46.53125 36.375 47.5 
Q 32.28125 48.484375 27.875 48.484375 
Q 21.1875 48.484375 17.84375 46.4375 
Q 14.5 44.390625 14.5 40.28125 
Q 14.5 37.15625 16.890625 35.375 
Q 19.28125 33.59375 26.515625 31.984375 
L 29.59375 31.296875 
Q 39.15625 29.25 43.1875 25.515625 
Q 47.21875 21.78125 47.21875 15.09375 
Q 47.21875 7.46875 41.1875 3.015625 
Q 35.15625 -1.421875 24.609375 -1.421875 
Q 20.21875 -1.421875 15.453125 -0.5625 
Q 10.6875 0.296875 5.421875 2 
L 5.421875 11.28125 
Q 10.40625 8.6875 15.234375 7.390625 
Q 20.0625 6.109375 24.8125 6.109375 
Q 31.15625 6.109375 34.5625 8.28125 
Q 37.984375 10.453125 37.984375 14.40625 
Q 37.984375 18.0625 35.515625 20.015625 
Q 33.0625 21.96875 24.703125 23.78125 
L 21.578125 24.515625 
Q 13.234375 26.265625 9.515625 29.90625 
Q 5.8125 33.546875 5.8125 39.890625 
Q 5.8125 47.609375 11.28125 51.796875 
Q 16.75 56 26.8125 56 
Q 31.78125 56 36.171875 55.265625 
Q 40.578125 54.546875 44.28125 53.078125 
z
" id="DejaVuSans-115"/>
     <path d="M 56.203125 29.59375 
L 56.203125 25.203125 
L 14.890625 25.203125 
Q 15.484375 15.921875 20.484375 11.0625 
Q 25.484375 6.203125 34.421875 6.203125 
Q 39.59375 6.203125 44.453125 7.46875 
Q 49.3125 8.734375 54.109375 11.28125 
L 54.109375 2.78125 
Q 49.265625 0.734375 44.1875 -0.34375 
Q 39.109375 -1.421875 33.890625 -1.421875 
Q 20.796875 -1.421875 13.15625 6.1875 
Q 5.515625 13.8125 5.515625 26.8125 
Q 5.515625 40.234375 12.765625 48.109375 
Q 20.015625 56 32.328125 56 
Q 43.359375 56 49.78125 48.890625 
Q 56.203125 41.796875 56.203125 29.59375 
z
M 47.21875 32.234375 
Q 47.125 39.59375 43.09375 43.984375 
Q 39.0625 48.390625 32.421875 48.390625 
Q 24.90625 48.390625 20.390625 44.140625 
Q 15.875 39.890625 15.1875 32.171875 
z
" id="DejaVuSans-101"/>
     <path id="DejaVuSans-32"/>
     <path d="M 53.515625 70.515625 
L 53.515625 60.890625 
Q 47.90625 63.578125 42.921875 64.890625 
Q 37.9375 66.21875 33.296875 66.21875 
Q 25.25 66.21875 20.875 63.09375 
Q 16.5 59.96875 16.5 54.203125 
Q 16.5 49.359375 19.40625 46.890625 
Q 22.3125 44.4375 30.421875 42.921875 
L 36.375 41.703125 
Q 47.40625 39.59375 52.65625 34.296875 
Q 57.90625 29 57.90625 20.125 
Q 57.90625 9.515625 50.796875 4.046875 
Q 43.703125 -1.421875 29.984375 -1.421875 
Q 24.8125 -1.421875 18.96875 -0.25 
Q 13.140625 0.921875 6.890625 3.21875 
L 6.890625 13.375 
Q 12.890625 10.015625 18.65625 8.296875 
Q 24.421875 6.59375 29.984375 6.59375 
Q 38.421875 6.59375 43.015625 9.90625 
Q 47.609375 13.234375 47.609375 19.390625 
Q 47.609375 24.75 44.3125 27.78125 
Q 41.015625 30.8125 33.5 32.328125 
L 27.484375 33.5 
Q 16.453125 35.6875 11.515625 40.375 
Q 6.59375 45.0625 6.59375 53.421875 
Q 6.59375 63.09375 13.40625 68.65625 
Q 20.21875 74.21875 32.171875 74.21875 
Q 37.3125 74.21875 42.625 73.28125 
Q 47.953125 72.359375 53.515625 70.515625 
z
" id="DejaVuSans-83"/>
     <path d="M 18.109375 8.203125 
L 18.109375 -20.796875 
L 9.078125 -20.796875 
L 9.078125 54.6875 
L 18.109375 54.6875 
L 18.109375 46.390625 
Q 20.953125 51.265625 25.265625 53.625 
Q 29.59375 56 35.59375 56 
Q 45.5625 56 51.78125 48.09375 
Q 58.015625 40.1875 58.015625 27.296875 
Q 58.015625 14.40625 51.78125 6.484375 
Q 45.5625 -1.421875 35.59375 -1.421875 
Q 29.59375 -1.421875 25.265625 0.953125 
Q 20.953125 3.328125 18.109375 8.203125 
z
M 48.6875 27.296875 
Q 48.6875 37.203125 44.609375 42.84375 
Q 40.53125 48.484375 33.40625 48.484375 
Q 26.265625 48.484375 22.1875 42.84375 
Q 18.109375 37.203125 18.109375 27.296875 
Q 18.109375 17.390625 22.1875 11.75 
Q 26.265625 6.109375 33.40625 6.109375 
Q 40.53125 6.109375 44.609375 11.75 
Q 48.6875 17.390625 48.6875 27.296875 
z
" id="DejaVuSans-112"/>
     <path d="M 48.78125 52.59375 
L 48.78125 44.1875 
Q 44.96875 46.296875 41.140625 47.34375 
Q 37.3125 48.390625 33.40625 48.390625 
Q 24.65625 48.390625 19.8125 42.84375 
Q 14.984375 37.3125 14.984375 27.296875 
Q 14.984375 17.28125 19.8125 11.734375 
Q 24.65625 6.203125 33.40625 6.203125 
Q 37.3125 6.203125 41.140625 7.25 
Q 44.96875 8.296875 48.78125 10.40625 
L 48.78125 2.09375 
Q 45.015625 0.34375 40.984375 -0.53125 
Q 36.96875 -1.421875 32.421875 -1.421875 
Q 20.0625 -1.421875 12.78125 6.34375 
Q 5.515625 14.109375 5.515625 27.296875 
Q 5.515625 40.671875 12.859375 48.328125 
Q 20.21875 56 33.015625 56 
Q 37.15625 56 41.109375 55.140625 
Q 45.0625 54.296875 48.78125 52.59375 
z
" id="DejaVuSans-99"/>
     <path d="M 30.609375 48.390625 
Q 23.390625 48.390625 19.1875 42.75 
Q 14.984375 37.109375 14.984375 27.296875 
Q 14.984375 17.484375 19.15625 11.84375 
Q 23.34375 6.203125 30.609375 6.203125 
Q 37.796875 6.203125 41.984375 11.859375 
Q 46.1875 17.53125 46.1875 27.296875 
Q 46.1875 37.015625 41.984375 42.703125 
Q 37.796875 48.390625 30.609375 48.390625 
z
M 30.609375 56 
Q 42.328125 56 49.015625 48.375 
Q 55.71875 40.765625 55.71875 27.296875 
Q 55.71875 13.875 49.015625 6.21875 
Q 42.328125 -1.421875 30.609375 -1.421875 
Q 18.84375 -1.421875 12.171875 6.21875 
Q 5.515625 13.875 5.515625 27.296875 
Q 5.515625 40.765625 12.171875 48.375 
Q 18.84375 56 30.609375 56 
z
" id="DejaVuSans-111"/>
     <path d="M 37.109375 75.984375 
L 37.109375 68.5 
L 28.515625 68.5 
Q 23.6875 68.5 21.796875 66.546875 
Q 19.921875 64.59375 19.921875 59.515625 
L 19.921875 54.6875 
L 34.71875 54.6875 
L 34.71875 47.703125 
L 19.921875 47.703125 
L 19.921875 0 
L 10.890625 0 
L 10.890625 47.703125 
L 2.296875 47.703125 
L 2.296875 54.6875 
L 10.890625 54.6875 
L 10.890625 58.5 
Q 10.890625 67.625 15.140625 71.796875 
Q 19.390625 75.984375 28.609375 75.984375 
z
" id="DejaVuSans-102"/>
     <path d="M 9.8125 72.90625 
L 24.515625 72.90625 
L 43.109375 23.296875 
L 61.8125 72.90625 
L 76.515625 72.90625 
L 76.515625 0 
L 66.890625 0 
L 66.890625 64.015625 
L 48.09375 14.015625 
L 38.1875 14.015625 
L 19.390625 64.015625 
L 19.390625 0 
L 9.8125 0 
z
" id="DejaVuSans-77"/>
    </defs>
    <g transform="translate(167.625937 35.472)scale(0.12 -0.12)">
     <use xlink:href="#DejaVuSans-80"/>
     <use x="60.302734" xlink:href="#DejaVuSans-104"/>
     <use x="123.681641" xlink:href="#DejaVuSans-97"/>
     <use x="184.960938" xlink:href="#DejaVuSans-115"/>
     <use x="237.060547" xlink:href="#DejaVuSans-101"/>
     <use x="298.583984" xlink:href="#DejaVuSans-32"/>
     <use x="330.371094" xlink:href="#DejaVuSans-83"/>
     <use x="393.847656" xlink:href="#DejaVuSans-112"/>
     <use x="457.324219" xlink:href="#DejaVuSans-97"/>
     <use x="518.603516" xlink:href="#DejaVuSans-99"/>
     <use x="573.583984" xlink:href="#DejaVuSans-101"/>
     <use x="635.107422" xlink:href="#DejaVuSans-32"/>
     <use x="666.894531" xlink:href="#DejaVuSans-111"/>
     <use x="728.076172" xlink:href="#DejaVuSans-102"/>
     <use x="763.28125" xlink:href="#DejaVuSans-32"/>
     <use x="795.068359" xlink:href="#DejaVuSans-77"/>
     <use x="881.347656" xlink:href="#DejaVuSans-97"/>
     <use x="942.626953" xlink:href="#DejaVuSans-115"/>
     <use x="994.726562" xlink:href="#DejaVuSans-115"/>
     <use x="1046.826172" xlink:href="#DejaVuSans-32"/>
     <use x="1078.613281" xlink:href="#DejaVuSans-49"/>
    </g>
   </g>
   <g id="legend_1">
    <g id="patch_7">
     <path d="M 312.22 64.150125 
L 407.72 64.150125 
Q 409.72 64.150125 409.72 62.150125 
L 409.72 48.472 
Q 409.72 46.472 407.72 46.472 
L 312.22 46.472 
Q 310.22 46.472 310.22 48.472 
L 310.22 62.150125 
Q 310.22 64.150125 312.22 64.150125 
z
" style="fill:#ffffff;opacity:0.8;stroke:#cccccc;stroke-linejoin:miter;"/>
    </g>
    <g id="line2d_28">
     <path d="M 314.22 54.570438 
L 334.22 54.570438 
" style="fill:none;stroke:#000080;stroke-linecap:square;stroke-width:1.5;"/>
    </g>
    <g id="line2d_29"/>
    <g id="text_17">
     <!-- $\Gamma_1(t) = v_1(x_1)$ -->
     <defs>
      <path d="M 9.8125 0 
L 9.8125 72.90625 
L 55.171875 72.90625 
L 55.171875 64.59375 
L 19.671875 64.59375 
L 19.671875 0 
z
" id="DejaVuSans-915"/>
      <path d="M 10.59375 45.40625 
L 73.1875 45.40625 
L 73.1875 37.203125 
L 10.59375 37.203125 
z
M 10.59375 25.484375 
L 73.1875 25.484375 
L 73.1875 17.1875 
L 10.59375 17.1875 
z
" id="DejaVuSans-61"/>
     </defs>
     <g transform="translate(342.22 58.070438)scale(0.1 -0.1)">
      <use transform="translate(0 0.125)" xlink:href="#DejaVuSans-915"/>
      <use transform="translate(56.669922 -16.28125)scale(0.7)" xlink:href="#DejaVuSans-49"/>
      <use transform="translate(103.94043 0.125)" xlink:href="#DejaVuSans-40"/>
      <use transform="translate(142.954102 0.125)" xlink:href="#DejaVuSans-Oblique-116"/>
      <use transform="translate(182.163086 0.125)" xlink:href="#DejaVuSans-41"/>
      <use transform="translate(240.65918 0.125)" xlink:href="#DejaVuSans-61"/>
      <use transform="translate(343.930664 0.125)" xlink:href="#DejaVuSans-Oblique-118"/>
      <use transform="translate(403.110352 -16.28125)scale(0.7)" xlink:href="#DejaVuSans-49"/>
      <use transform="translate(450.380859 0.125)" xlink:href="#DejaVuSans-40"/>
      <use transform="translate(489.394531 0.125)" xlink:href="#DejaVuSans-Oblique-120"/>
      <use transform="translate(548.574219 -16.28125)scale(0.7)" xlink:href="#DejaVuSans-49"/>
      <use transform="translate(595.844727 0.125)" xlink:href="#DejaVuSans-41"/>
     </g>
    </g>
   </g>
  </g>
 </g>
 <defs>
  <clipPath id="pdd217101b3">
   <rect height="266.112" width="357.12" x="57.6" y="41.472"/>
  </clipPath>
 </defs>
</svg>
