<?xml version="1.0" encoding="utf-8" standalone="no"?>
<!DOCTYPE svg PUBLIC "-//W3C//DTD SVG 1.1//EN"
  "http://www.w3.org/Graphics/SVG/1.1/DTD/svg11.dtd">
<!-- Created with matplotlib (https://matplotlib.org/) -->
<svg height="345.6pt" version="1.1" viewBox="0 0 460.8 345.6" width="460.8pt" xmlns="http://www.w3.org/2000/svg" xmlns:xlink="http://www.w3.org/1999/xlink">
 <defs>
  <style type="text/css">
*{stroke-linecap:butt;stroke-linejoin:round;}
  </style>
 </defs>
 <g id="figure_1">
  <g id="patch_1">
   <path d="M 0 345.6 
L 460.8 345.6 
L 460.8 0 
L 0 0 
z
" style="fill:#ffffff;"/>
  </g>
  <g id="axes_1">
   <g id="patch_2">
    <path d="M 57.6 307.584 
L 414.72 307.584 
L 414.72 41.472 
L 57.6 41.472 
z
" style="fill:#ffffff;"/>
   </g>
   <g id="matplotlib.axis_1">
    <g id="xtick_1">
     <g id="line2d_1">
      <path clip-path="url(#p07a40d3481)" d="M 76.052285 307.584 
L 76.052285 41.472 
" style="fill:none;stroke:#b0b0b0;stroke-linecap:square;stroke-width:0.8;"/>
     </g>
     <g id="line2d_2">
      <defs>
       <path d="M 0 0 
L 0 3.5 
" id="mf799a75915" style="stroke:#000000;stroke-width:0.8;"/>
      </defs>
      <g>
       <use style="stroke:#000000;stroke-width:0.8;" x="76.052285" xlink:href="#mf799a75915" y="307.584"/>
      </g>
     </g>
     <g id="text_1">
      <!-- −3 -->
      <defs>
       <path d="M 10.59375 35.5 
L 73.1875 35.5 
L 73.1875 27.203125 
L 10.59375 27.203125 
z
" id="DejaVuSans-8722"/>
       <path d="M 40.578125 39.3125 
Q 47.65625 37.796875 51.625 33 
Q 55.609375 28.21875 55.609375 21.1875 
Q 55.609375 10.40625 48.1875 4.484375 
Q 40.765625 -1.421875 27.09375 -1.421875 
Q 22.515625 -1.421875 17.65625 -0.515625 
Q 12.796875 0.390625 7.625 2.203125 
L 7.625 11.71875 
Q 11.71875 9.328125 16.59375 8.109375 
Q 21.484375 6.890625 26.8125 6.890625 
Q 36.078125 6.890625 40.9375 10.546875 
Q 45.796875 14.203125 45.796875 21.1875 
Q 45.796875 27.640625 41.28125 31.265625 
Q 36.765625 34.90625 28.71875 34.90625 
L 20.21875 34.90625 
L 20.21875 43.015625 
L 29.109375 43.015625 
Q 36.375 43.015625 40.234375 45.921875 
Q 44.09375 48.828125 44.09375 54.296875 
Q 44.09375 59.90625 40.109375 62.90625 
Q 36.140625 65.921875 28.71875 65.921875 
Q 24.65625 65.921875 20.015625 65.03125 
Q 15.375 64.15625 9.8125 62.3125 
L 9.8125 71.09375 
Q 15.4375 72.65625 20.34375 73.4375 
Q 25.25 74.21875 29.59375 74.21875 
Q 40.828125 74.21875 47.359375 69.109375 
Q 53.90625 64.015625 53.90625 55.328125 
Q 53.90625 49.265625 50.4375 45.09375 
Q 46.96875 40.921875 40.578125 39.3125 
z
" id="DejaVuSans-51"/>
      </defs>
      <g transform="translate(68.681192 322.182437)scale(0.1 -0.1)">
       <use xlink:href="#DejaVuSans-8722"/>
       <use x="83.789062" xlink:href="#DejaVuSans-51"/>
      </g>
     </g>
    </g>
    <g id="xtick_2">
     <g id="line2d_3">
      <path clip-path="url(#p07a40d3481)" d="M 129.421489 307.584 
L 129.421489 41.472 
" style="fill:none;stroke:#b0b0b0;stroke-linecap:square;stroke-width:0.8;"/>
     </g>
     <g id="line2d_4">
      <g>
       <use style="stroke:#000000;stroke-width:0.8;" x="129.421489" xlink:href="#mf799a75915" y="307.584"/>
      </g>
     </g>
     <g id="text_2">
      <!-- −2 -->
      <defs>
       <path d="M 19.1875 8.296875 
L 53.609375 8.296875 
L 53.609375 0 
L 7.328125 0 
L 7.328125 8.296875 
Q 12.9375 14.109375 22.625 23.890625 
Q 32.328125 33.6875 34.8125 36.53125 
Q 39.546875 41.84375 41.421875 45.53125 
Q 43.3125 49.21875 43.3125 52.78125 
Q 43.3125 58.59375 39.234375 62.25 
Q 35.15625 65.921875 28.609375 65.921875 
Q 23.96875 65.921875 18.8125 64.3125 
Q 13.671875 62.703125 7.8125 59.421875 
L 7.8125 69.390625 
Q 13.765625 71.78125 18.9375 73 
Q 24.125 74.21875 28.421875 74.21875 
Q 39.75 74.21875 46.484375 68.546875 
Q 53.21875 62.890625 53.21875 53.421875 
Q 53.21875 48.921875 51.53125 44.890625 
Q 49.859375 40.875 45.40625 35.40625 
Q 44.1875 33.984375 37.640625 27.21875 
Q 31.109375 20.453125 19.1875 8.296875 
z
" id="DejaVuSans-50"/>
      </defs>
      <g transform="translate(122.050395 322.182437)scale(0.1 -0.1)">
       <use xlink:href="#DejaVuSans-8722"/>
       <use x="83.789062" xlink:href="#DejaVuSans-50"/>
      </g>
     </g>
    </g>
    <g id="xtick_3">
     <g id="line2d_5">
      <path clip-path="url(#p07a40d3481)" d="M 182.790692 307.584 
L 182.790692 41.472 
" style="fill:none;stroke:#b0b0b0;stroke-linecap:square;stroke-width:0.8;"/>
     </g>
     <g id="line2d_6">
      <g>
       <use style="stroke:#000000;stroke-width:0.8;" x="182.790692" xlink:href="#mf799a75915" y="307.584"/>
      </g>
     </g>
     <g id="text_3">
      <!-- −1 -->
      <defs>
       <path d="M 12.40625 8.296875 
L 28.515625 8.296875 
L 28.515625 63.921875 
L 10.984375 60.40625 
L 10.984375 69.390625 
L 28.421875 72.90625 
L 38.28125 72.90625 
L 38.28125 8.296875 
L 54.390625 8.296875 
L 54.390625 0 
L 12.40625 0 
z
" id="DejaVuSans-49"/>
      </defs>
      <g transform="translate(175.419599 322.182437)scale(0.1 -0.1)">
       <use xlink:href="#DejaVuSans-8722"/>
       <use x="83.789062" xlink:href="#DejaVuSans-49"/>
      </g>
     </g>
    </g>
    <g id="xtick_4">
     <g id="line2d_7">
      <path clip-path="url(#p07a40d3481)" d="M 236.159896 307.584 
L 236.159896 41.472 
" style="fill:none;stroke:#b0b0b0;stroke-linecap:square;stroke-width:0.8;"/>
     </g>
     <g id="line2d_8">
      <g>
       <use style="stroke:#000000;stroke-width:0.8;" x="236.159896" xlink:href="#mf799a75915" y="307.584"/>
      </g>
     </g>
     <g id="text_4">
      <!-- 0 -->
      <defs>
       <path d="M 31.78125 66.40625 
Q 24.171875 66.40625 20.328125 58.90625 
Q 16.5 51.421875 16.5 36.375 
Q 16.5 21.390625 20.328125 13.890625 
Q 24.171875 6.390625 31.78125 6.390625 
Q 39.453125 6.390625 43.28125 13.890625 
Q 47.125 21.390625 47.125 36.375 
Q 47.125 51.421875 43.28125 58.90625 
Q 39.453125 66.40625 31.78125 66.40625 
z
M 31.78125 74.21875 
Q 44.046875 74.21875 50.515625 64.515625 
Q 56.984375 54.828125 56.984375 36.375 
Q 56.984375 17.96875 50.515625 8.265625 
Q 44.046875 -1.421875 31.78125 -1.421875 
Q 19.53125 -1.421875 13.0625 8.265625 
Q 6.59375 17.96875 6.59375 36.375 
Q 6.59375 54.828125 13.0625 64.515625 
Q 19.53125 74.21875 31.78125 74.21875 
z
" id="DejaVuSans-48"/>
      </defs>
      <g transform="translate(232.978646 322.182437)scale(0.1 -0.1)">
       <use xlink:href="#DejaVuSans-48"/>
      </g>
     </g>
    </g>
    <g id="xtick_5">
     <g id="line2d_9">
      <path clip-path="url(#p07a40d3481)" d="M 289.529099 307.584 
L 289.529099 41.472 
" style="fill:none;stroke:#b0b0b0;stroke-linecap:square;stroke-width:0.8;"/>
     </g>
     <g id="line2d_10">
      <g>
       <use style="stroke:#000000;stroke-width:0.8;" x="289.529099" xlink:href="#mf799a75915" y="307.584"/>
      </g>
     </g>
     <g id="text_5">
      <!-- 1 -->
      <g transform="translate(286.347849 322.182437)scale(0.1 -0.1)">
       <use xlink:href="#DejaVuSans-49"/>
      </g>
     </g>
    </g>
    <g id="xtick_6">
     <g id="line2d_11">
      <path clip-path="url(#p07a40d3481)" d="M 342.898303 307.584 
L 342.898303 41.472 
" style="fill:none;stroke:#b0b0b0;stroke-linecap:square;stroke-width:0.8;"/>
     </g>
     <g id="line2d_12">
      <g>
       <use style="stroke:#000000;stroke-width:0.8;" x="342.898303" xlink:href="#mf799a75915" y="307.584"/>
      </g>
     </g>
     <g id="text_6">
      <!-- 2 -->
      <g transform="translate(339.717053 322.182437)scale(0.1 -0.1)">
       <use xlink:href="#DejaVuSans-50"/>
      </g>
     </g>
    </g>
    <g id="xtick_7">
     <g id="line2d_13">
      <path clip-path="url(#p07a40d3481)" d="M 396.267506 307.584 
L 396.267506 41.472 
" style="fill:none;stroke:#b0b0b0;stroke-linecap:square;stroke-width:0.8;"/>
     </g>
     <g id="line2d_14">
      <g>
       <use style="stroke:#000000;stroke-width:0.8;" x="396.267506" xlink:href="#mf799a75915" y="307.584"/>
      </g>
     </g>
     <g id="text_7">
      <!-- 3 -->
      <g transform="translate(393.086256 322.182437)scale(0.1 -0.1)">
       <use xlink:href="#DejaVuSans-51"/>
      </g>
     </g>
    </g>
    <g id="text_8">
     <!-- $\Theta$(t) -->
     <defs>
      <path d="M 22.125 42.96875 
L 56.59375 42.96875 
L 56.59375 34.671875 
L 22.125 34.671875 
z
M 39.40625 66.21875 
Q 28.65625 66.21875 22.359375 58.203125 
Q 16.015625 50.203125 16.015625 36.375 
Q 16.015625 22.609375 22.328125 14.59375 
Q 28.65625 6.59375 39.40625 6.59375 
Q 50.140625 6.59375 56.453125 14.59375 
Q 62.703125 22.609375 62.703125 36.375 
Q 62.703125 50.203125 56.453125 58.203125 
Q 50.140625 66.21875 39.40625 66.21875 
z
M 39.40625 74.21875 
Q 54.734375 74.21875 63.90625 63.9375 
Q 73.09375 53.65625 73.09375 36.375 
Q 73.09375 19.140625 63.921875 8.890625 
Q 54.734375 -1.421875 39.40625 -1.421875 
Q 24.03125 -1.421875 14.84375 8.84375 
Q 5.609375 19.09375 5.609375 36.375 
Q 5.609375 53.65625 14.84375 63.96875 
Q 24.03125 74.21875 39.40625 74.21875 
z
" id="DejaVuSans-920"/>
      <path d="M 31 75.875 
Q 24.46875 64.65625 21.28125 53.65625 
Q 18.109375 42.671875 18.109375 31.390625 
Q 18.109375 20.125 21.3125 9.0625 
Q 24.515625 -2 31 -13.1875 
L 23.1875 -13.1875 
Q 15.875 -1.703125 12.234375 9.375 
Q 8.59375 20.453125 8.59375 31.390625 
Q 8.59375 42.28125 12.203125 53.3125 
Q 15.828125 64.359375 23.1875 75.875 
z
" id="DejaVuSans-40"/>
      <path d="M 18.3125 70.21875 
L 18.3125 54.6875 
L 36.8125 54.6875 
L 36.8125 47.703125 
L 18.3125 47.703125 
L 18.3125 18.015625 
Q 18.3125 11.328125 20.140625 9.421875 
Q 21.96875 7.515625 27.59375 7.515625 
L 36.8125 7.515625 
L 36.8125 0 
L 27.59375 0 
Q 17.1875 0 13.234375 3.875 
Q 9.28125 7.765625 9.28125 18.015625 
L 9.28125 47.703125 
L 2.6875 47.703125 
L 2.6875 54.6875 
L 9.28125 54.6875 
L 9.28125 70.21875 
z
" id="DejaVuSans-116"/>
      <path d="M 8.015625 75.875 
L 15.828125 75.875 
Q 23.140625 64.359375 26.78125 53.3125 
Q 30.421875 42.28125 30.421875 31.390625 
Q 30.421875 20.453125 26.78125 9.375 
Q 23.140625 -1.703125 15.828125 -13.1875 
L 8.015625 -13.1875 
Q 14.5 -2 17.703125 9.0625 
Q 20.90625 20.125 20.90625 31.390625 
Q 20.90625 42.671875 17.703125 53.65625 
Q 14.5 64.65625 8.015625 75.875 
z
" id="DejaVuSans-41"/>
     </defs>
     <g transform="translate(226.36 335.860562)scale(0.1 -0.1)">
      <use transform="translate(0 0.125)" xlink:href="#DejaVuSans-920"/>
      <use transform="translate(78.710938 0.125)" xlink:href="#DejaVuSans-40"/>
      <use transform="translate(117.724609 0.125)" xlink:href="#DejaVuSans-116"/>
      <use transform="translate(156.933594 0.125)" xlink:href="#DejaVuSans-41"/>
     </g>
    </g>
   </g>
   <g id="matplotlib.axis_2">
    <g id="ytick_1">
     <g id="line2d_15">
      <path clip-path="url(#p07a40d3481)" d="M 57.6 282.854785 
L 414.72 282.854785 
" style="fill:none;stroke:#b0b0b0;stroke-linecap:square;stroke-width:0.8;"/>
     </g>
     <g id="line2d_16">
      <defs>
       <path d="M 0 0 
L -3.5 0 
" id="m4b7fbf6264" style="stroke:#000000;stroke-width:0.8;"/>
      </defs>
      <g>
       <use style="stroke:#000000;stroke-width:0.8;" x="57.6" xlink:href="#m4b7fbf6264" y="282.854785"/>
      </g>
     </g>
     <g id="text_9">
      <!-- −4 -->
      <defs>
       <path d="M 37.796875 64.3125 
L 12.890625 25.390625 
L 37.796875 25.390625 
z
M 35.203125 72.90625 
L 47.609375 72.90625 
L 47.609375 25.390625 
L 58.015625 25.390625 
L 58.015625 17.1875 
L 47.609375 17.1875 
L 47.609375 0 
L 37.796875 0 
L 37.796875 17.1875 
L 4.890625 17.1875 
L 4.890625 26.703125 
z
" id="DejaVuSans-52"/>
      </defs>
      <g transform="translate(35.857813 286.654004)scale(0.1 -0.1)">
       <use xlink:href="#DejaVuSans-8722"/>
       <use x="83.789062" xlink:href="#DejaVuSans-52"/>
      </g>
     </g>
    </g>
    <g id="ytick_2">
     <g id="line2d_17">
      <path clip-path="url(#p07a40d3481)" d="M 57.6 228.691738 
L 414.72 228.691738 
" style="fill:none;stroke:#b0b0b0;stroke-linecap:square;stroke-width:0.8;"/>
     </g>
     <g id="line2d_18">
      <g>
       <use style="stroke:#000000;stroke-width:0.8;" x="57.6" xlink:href="#m4b7fbf6264" y="228.691738"/>
      </g>
     </g>
     <g id="text_10">
      <!-- −2 -->
      <g transform="translate(35.857813 232.490957)scale(0.1 -0.1)">
       <use xlink:href="#DejaVuSans-8722"/>
       <use x="83.789062" xlink:href="#DejaVuSans-50"/>
      </g>
     </g>
    </g>
    <g id="ytick_3">
     <g id="line2d_19">
      <path clip-path="url(#p07a40d3481)" d="M 57.6 174.528691 
L 414.72 174.528691 
" style="fill:none;stroke:#b0b0b0;stroke-linecap:square;stroke-width:0.8;"/>
     </g>
     <g id="line2d_20">
      <g>
       <use style="stroke:#000000;stroke-width:0.8;" x="57.6" xlink:href="#m4b7fbf6264" y="174.528691"/>
      </g>
     </g>
     <g id="text_11">
      <!-- 0 -->
      <g transform="translate(44.2375 178.32791)scale(0.1 -0.1)">
       <use xlink:href="#DejaVuSans-48"/>
      </g>
     </g>
    </g>
    <g id="ytick_4">
     <g id="line2d_21">
      <path clip-path="url(#p07a40d3481)" d="M 57.6 120.365644 
L 414.72 120.365644 
" style="fill:none;stroke:#b0b0b0;stroke-linecap:square;stroke-width:0.8;"/>
     </g>
     <g id="line2d_22">
      <g>
       <use style="stroke:#000000;stroke-width:0.8;" x="57.6" xlink:href="#m4b7fbf6264" y="120.365644"/>
      </g>
     </g>
     <g id="text_12">
      <!-- 2 -->
      <g transform="translate(44.2375 124.164863)scale(0.1 -0.1)">
       <use xlink:href="#DejaVuSans-50"/>
      </g>
     </g>
    </g>
    <g id="ytick_5">
     <g id="line2d_23">
      <path clip-path="url(#p07a40d3481)" d="M 57.6 66.202598 
L 414.72 66.202598 
" style="fill:none;stroke:#b0b0b0;stroke-linecap:square;stroke-width:0.8;"/>
     </g>
     <g id="line2d_24">
      <g>
       <use style="stroke:#000000;stroke-width:0.8;" x="57.6" xlink:href="#m4b7fbf6264" y="66.202598"/>
      </g>
     </g>
     <g id="text_13">
      <!-- 4 -->
      <g transform="translate(44.2375 70.001816)scale(0.1 -0.1)">
       <use xlink:href="#DejaVuSans-52"/>
      </g>
     </g>
    </g>
    <g id="text_14">
     <!-- $\omega$(t) -->
     <defs>
      <path d="M 21.390625 -1.421875 
Q 1.125 -1.421875 6.78125 27.59375 
Q 8.984375 39.0625 19.625 54.6875 
L 29.296875 54.6875 
Q 19.234375 39.0625 17 27.34375 
Q 12.796875 6.203125 23.734375 6.203125 
Q 33.84375 6.203125 38.71875 32.46875 
L 47.015625 32.46875 
Q 41.703125 6.0625 51.8125 6.203125 
Q 62.703125 6.296875 66.796875 27.34375 
Q 69.046875 39.0625 65.140625 54.6875 
L 74.8125 54.6875 
Q 79.296875 39.0625 77.09375 27.59375 
Q 71.53125 -1.46875 51.21875 -1.421875 
Q 37.9375 -1.375 39.109375 13.1875 
Q 34.28125 -1.421875 21.390625 -1.421875 
z
" id="DejaVuSans-Oblique-969"/>
     </defs>
     <g transform="translate(29.778125 184.578)rotate(-90)scale(0.1 -0.1)">
      <use transform="translate(0 0.125)" xlink:href="#DejaVuSans-Oblique-969"/>
      <use transform="translate(83.740234 0.125)" xlink:href="#DejaVuSans-40"/>
      <use transform="translate(122.753906 0.125)" xlink:href="#DejaVuSans-116"/>
      <use transform="translate(161.962891 0.125)" xlink:href="#DejaVuSans-41"/>
     </g>
    </g>
   </g>
   <g id="line2d_25">
    <path clip-path="url(#p07a40d3481)" d="M 398.487273 174.528691 
L 398.353515 175.891749 
L 397.945568 177.322876 
L 397.243074 178.893418 
L 396.211005 180.68139 
L 394.377494 183.35783 
L 391.805195 186.717104 
L 387.459878 192.005473 
L 381.287522 199.178334 
L 372.637369 208.884757 
L 362.928692 219.397922 
L 355.753968 226.898446 
L 347.403164 235.307062 
L 341.117933 241.383143 
L 334.217711 247.778951 
L 326.674737 254.412982 
L 318.470986 261.168449 
L 314.119244 264.544647 
L 309.601832 267.889754 
L 304.920901 271.178238 
L 300.079916 274.382404 
L 295.08375 277.472709 
L 289.938772 280.418189 
L 284.652898 283.187003 
L 279.235624 285.747092 
L 273.698012 288.066931 
L 268.052649 290.116355 
L 262.313558 291.867426 
L 256.496064 293.295295 
L 250.616623 294.379027 
L 244.692612 295.102321 
L 238.742084 295.454099 
L 232.7835 295.428917 
L 226.835447 295.027166 
L 220.916348 294.255058 
L 215.04418 293.124395 
L 209.23621 291.652133 
L 203.508757 289.859773 
L 197.876981 287.772625 
L 192.354718 285.418974 
L 186.954358 282.829217 
L 181.686755 280.034994 
L 176.561194 277.068379 
L 171.585383 273.96113 
L 166.765486 270.744052 
L 162.106186 267.446464 
L 157.610765 264.095787 
L 149.118313 257.33369 
L 141.290515 250.630473 
L 134.114681 244.119468 
L 127.566843 237.896886 
L 118.851589 229.23596 
L 111.350942 221.470498 
L 103.007168 212.529924 
L 93.422123 201.894075 
L 85.625345 192.910888 
L 80.434879 186.616636 
L 77.467875 182.699274 
L 75.780274 180.147803 
L 74.663657 178.033866 
L 74.12166 176.546874 
L 73.861609 175.160633 
L 73.870518 173.805955 
L 74.148833 172.415179 
L 74.710452 170.9189 
L 75.583391 169.242644 
L 77.180226 166.766656 
L 79.456833 163.6888 
L 83.337916 158.871207 
L 88.881143 152.349488 
L 96.678961 143.505347 
L 105.461495 133.866331 
L 114.379107 124.419262 
L 122.376515 116.269129 
L 128.405708 110.349089 
L 135.035679 104.083661 
L 142.297371 97.54066 
L 150.213453 90.821017 
L 154.420861 87.436702 
L 158.794828 84.063265 
L 163.33425 80.724199 
L 168.036805 77.445338 
L 172.898848 74.254645 
L 177.915307 71.181881 
L 183.079611 68.25816 
L 188.383633 65.515394 
L 193.817667 62.985614 
L 199.370443 60.700214 
L 205.029176 58.689112 
L 210.779661 56.979882 
L 216.606411 55.596896 
L 222.492833 54.56051 
L 228.421445 53.886355 
L 234.374124 53.584776 
L 240.332376 53.660444 
L 246.277618 54.112186 
L 252.191472 54.933023 
L 258.05604 56.110436 
L 263.854167 57.626821 
L 269.569682 59.460123 
L 275.18759 61.584586 
L 280.694242 63.971593 
L 286.077452 66.59053 
L 291.326571 69.409651 
L 296.432527 72.396887 
L 301.387821 75.520571 
L 306.186491 78.750069 
L 310.824046 82.056296 
L 315.297385 85.412107 
L 323.745302 92.175217 
L 331.528987 98.869316 
L 338.661998 105.363657 
L 345.168929 111.564361 
L 353.827274 120.186883 
L 361.276916 127.911517 
L 369.561987 136.79925 
L 379.077217 147.366366 
L 386.815036 156.288761 
L 391.964192 162.5408 
L 394.905481 166.433592 
L 396.576328 168.970988 
L 397.679056 171.075589 
L 398.211279 172.558052 
L 398.462211 173.942134 
L 398.444384 175.29692 
L 398.156907 176.690075 
L 397.585426 178.191121 
L 396.701431 179.874759 
L 395.088258 182.364192 
L 392.791336 185.461086 
L 388.878449 190.310715 
L 383.292164 196.87699 
L 375.435957 205.780585 
L 366.589801 215.480619 
L 357.609852 224.981572 
L 349.558688 233.171865 
L 343.490463 239.116498 
L 336.819197 245.402913 
L 329.514404 251.961251 
L 321.554084 258.68819 
L 317.324409 262.072322 
L 312.928256 265.442581 
L 308.366886 268.775151 
L 303.64279 272.043898 
L 298.759799 275.220598 
L 293.723181 278.275281 
L 288.539713 281.176691 
L 283.217732 283.892861 
L 277.767154 286.391796 
L 272.199455 288.642252 
L 266.527618 290.614572 
L 260.766025 292.281563 
L 254.930324 293.619342 
L 249.03724 294.608147 
L 243.104354 295.233022 
L 237.149855 295.484363 
L 231.192268 295.358274 
L 225.250161 294.856711 
L 219.341867 293.987412 
L 213.485199 292.763607 
L 207.697193 291.203531 
L 201.993874 289.329782 
L 196.390065 287.168547 
L 190.899227 284.748761 
L 185.533343 282.101237 
L 180.302854 279.257809 
L 175.216619 276.250533 
L 170.28193 273.110973 
L 165.504549 269.869582 
L 160.888775 266.555209 
L 156.437533 263.194713 
L 148.034117 256.43135 
L 140.294446 249.746946 
L 133.204111 243.269672 
L 126.737906 237.091102 
L 118.136168 228.507151 
L 110.737219 220.823329 
L 102.510454 211.988258 
L 93.06453 201.48948 
L 85.385223 192.627429 
L 80.277072 186.417242 
L 77.361325 182.548779 
L 75.707137 180.025294 
L 74.618238 177.929889 
L 74.095768 176.451852 
L 73.853952 175.069827 
L 73.880714 173.71483 
L 74.177391 172.319185 
L 74.758796 170.81325 
L 75.653933 169.122092 
L 77.283594 166.619005 
L 79.60104 163.502811 
L 83.546078 158.620743 
L 89.175904 152.009395 
L 97.091148 143.045726 
L 106.001614 133.284146 
L 115.044533 123.728997 
L 123.14996 115.498465 
L 129.257555 109.529314 
L 135.970436 103.222132 
L 143.318623 96.648852 
L 151.323423 89.915218 
L 155.575462 86.531652 
L 159.993877 83.165013 
L 164.57725 79.839439 
L 169.322914 76.581359 
L 174.226851 73.419254 
L 179.283595 70.383295 
L 184.486163 67.504871 
L 189.826005 64.815995 
L 195.292994 62.348602 
L 200.875448 60.13378 
L 206.56019 58.200902 
L 212.332658 56.57677 
L 218.177048 55.284755 
L 224.076509 54.344013 
L 230.013361 53.76881 
L 235.969353 53.568 
L 241.92594 53.744699 
L 247.864567 54.296165 
L 253.766955 55.213903 
L 259.615382 56.48398 
L 265.392935 58.087532 
L 271.083737 60.001437 
L 276.673142 62.199087 
L 282.147881 64.651244 
L 287.496173 67.32691 
L 292.707792 70.194176 
L 297.774087 73.221012 
L 302.687975 76.375971 
L 307.443895 79.628787 
L 312.037738 82.950861 
L 316.466757 86.315621 
L 324.825474 93.078487 
L 332.521001 99.75258 
L 339.568585 106.212302 
L 345.994029 112.368373 
L 354.539163 120.913388 
L 364.094243 130.900231 
L 373.52934 141.15844 
L 381.927154 150.610926 
L 388.723496 158.560413 
L 393.21235 164.142955 
L 395.74081 167.649642 
L 397.140703 169.968821 
L 397.879421 171.560506 
L 398.320287 173.004114 
L 398.485306 174.371595 
L 398.382719 175.731228 
L 398.007403 177.150917 
L 397.34062 178.701458 
L 396.349123 180.459915 
L 394.576241 183.083943 
L 392.079948 186.370086 
L 387.854198 191.536643 
L 381.843983 198.541741 
L 373.413308 208.027364 
L 363.942554 218.318965 
L 356.937762 225.677665 
L 348.777708 233.948396 
L 342.630511 239.941914 
L 335.875803 246.269579 
L 328.484047 252.857354 
L 320.434644 259.597047 
L 316.160205 262.979655 
L 311.719513 266.342231 
L 307.114147 269.660321 
L 302.346948 272.907201 
L 297.422125 276.05414 
L 292.345344 279.070774 
L 287.123796 281.925593 
L 281.766244 284.586554 
L 276.283025 287.021782 
L 270.686026 289.200375 
L 264.988619 291.093253 
L 259.205541 292.674027 
L 253.352749 293.919848 
L 247.44722 294.812181 
L 241.506725 295.337462 
L 235.549572 295.487592 
L 229.594322 295.260241 
L 223.659512 294.658934 
L 217.76336 293.692922 
L 211.923494 292.376833 
L 206.156702 290.730143 
L 200.478703 288.776492 
L 194.903968 286.542891 
L 189.44557 284.058866 
L 184.115085 281.355584 
L 178.922528 278.465017 
L 173.876337 275.419155 
L 168.983387 272.249318 
L 164.24904 268.985572 
L 159.677216 265.656265 
L 155.270488 262.287672 
L 146.956543 255.526049 
L 139.305169 248.862852 
L 132.300294 242.421114 
L 125.915533 236.287841 
L 117.426845 227.782014 
L 107.937705 217.849818 
L 98.570316 207.655144 
L 90.234877 198.265615 
L 83.490988 190.370394 
L 79.038971 184.824857 
L 76.533656 181.339298 
L 75.149078 179.031876 
L 74.420877 177.446402 
L 73.989554 176.006492 
L 73.833582 174.640376 
L 73.94517 173.279838 
L 74.329892 171.856933 
L 75.006954 170.300709 
L 76.010115 168.53383 
L 77.800409 165.894816 
L 80.318514 162.587734 
L 84.578562 157.386266 
L 90.635285 150.333037 
L 99.128929 140.78397 
L 108.667986 130.428539 
L 115.721602 123.028839 
L 123.936509 114.718059 
L 130.123441 108.700395 
L 136.920081 102.352593 
L 144.35547 95.750819 
L 152.449483 89.00573 
L 156.746298 85.624477 
L 161.209223 82.266401 
L 165.836517 78.956274 
L 170.625159 75.721105 
L 175.570752 72.589869 
L 180.667427 69.593116 
L 185.907783 66.762466 
L 191.282847 64.129979 
L 196.782071 61.727449 
L 202.393362 59.585586 
L 208.10316 57.733156 
L 213.896552 56.196124 
L 219.757433 54.996799 
L 225.668705 54.153086 
L 231.61251 53.67784 
L 237.57049 53.578396 
L 243.524068 53.8563 
L 249.454735 54.507245 
L 255.344337 55.521233 
L 261.175344 56.882951 
L 266.9311 58.57232 
L 272.596043 60.565201 
L 278.155883 62.834193 
L 283.597742 65.349501 
L 288.910252 68.0798 
L 294.083609 70.993074 
L 299.109586 74.057384 
L 303.981516 77.241546 
L 308.694235 80.515702 
L 313.244009 83.851763 
L 317.628438 87.223754 
L 325.897653 93.983404 
L 333.504979 100.63516 
L 340.467294 107.058535 
L 346.811552 113.168775 
L 355.244094 121.635272 
L 364.6677 131.512877 
L 373.967848 141.644286 
L 382.241371 150.971253 
L 388.933203 158.812616 
L 393.348652 164.321464 
L 395.830977 167.7861 
L 397.200329 170.081901 
L 397.918064 171.661257 
L 398.339875 173.097551 
L 398.486817 174.46238 
L 398.366228 175.823897 
L 397.972086 177.250094 
L 397.284715 178.812083 
L 396.269845 180.587471 
L 394.462054 183.241603 
L 391.922017 186.569783 
L 387.627467 191.806397 
L 381.523959 198.908038 
L 372.966981 208.52084 
L 363.359259 218.940259 
L 356.256593 226.380946 
L 347.986617 234.731612 
L 341.759827 240.77319 
L 334.92116 247.140771 
L 327.442086 253.756033 
L 319.303469 260.505841 
L 314.984309 263.885336 
L 310.499202 267.238468 
L 305.850055 270.540154 
L 301.040067 273.7631 
L 296.07383 276.878096 
L 290.957412 279.854415 
L 285.698426 282.660343 
L 280.306056 285.263805 
L 274.79106 287.633111 
L 269.165734 289.737758 
L 263.443826 291.549306 
L 257.640419 293.042234 
L 251.771764 294.19478 
L 245.855076 294.989684 
L 239.908295 295.414809 
L 233.949825 295.463583 
L 227.998251 295.135249 
L 222.07205 294.434891 
L 216.189308 293.373246 
L 210.367452 291.966302 
L 204.623003 290.234727 
L 198.971362 288.203147 
L 193.426637 285.899332 
L 188.001507 283.353335 
L 182.707133 280.59662 
L 177.553107 277.661236 
L 172.547445 274.579057 
L 167.69661 271.38112 
L 163.005567 268.09707 
L 158.477867 264.754728 
L 149.920204 257.995511 
L 142.02769 251.280013 
L 134.78894 244.745375 
L 128.180931 238.491261 
L 119.381869 229.774462 
L 111.806034 221.949253 
L 103.375651 212.931054 
L 93.687533 202.193939 
L 85.803683 193.121002 
L 80.552214 186.764344 
L 77.547262 182.81061 
L 75.834962 180.238261 
L 74.697906 178.110423 
L 74.14155 176.616634 
L 73.868134 175.227073 
L 73.864004 173.872394 
L 74.128955 172.484935 
L 74.676216 170.995451 
L 75.533092 169.329792 
L 77.106224 166.873176 
L 79.353389 163.82281 
L 83.188411 159.051533 
L 88.669298 152.5943 
L 96.382575 143.836327 
L 105.072947 134.28594 
L 113.900193 124.917383 
L 121.819596 116.826049 
L 127.792096 110.942231 
L 134.362035 104.707975 
L 141.560988 98.188166 
L 149.412581 91.48028 
L 157.929026 84.719048 
L 162.436332 81.371324 
L 167.107325 78.078593 
L 171.938624 74.868426 
L 176.925445 71.770264 
L 182.061512 68.814998 
L 187.339006 66.034432 
L 192.748527 63.460633 
L 198.279109 61.125181 
L 203.918255 59.058351 
L 209.652029 57.288242 
L 215.465179 55.839915 
L 221.341314 54.734568 
L 227.263106 53.988805 
L 233.212536 53.614037 
L 239.171161 53.616063 
L 245.120392 53.994851 
L 251.04179 54.74454 
L 256.91734 55.853662 
L 262.729724 57.30556 
L 268.462562 59.078991 
L 274.100615 61.148857 
L 279.629962 63.48703 
L 285.038123 66.063218 
L 290.314147 68.845829 
L 295.448652 71.802797 
L 300.433835 74.902324 
L 305.263438 78.113531 
L 309.93269 81.406995 
L 314.438226 84.755168 
L 322.951098 91.516543 
L 330.799144 98.223744 
L 337.994652 104.742249 
L 344.561296 110.97477 
L 353.302731 119.65324 
L 360.826856 127.437416 
L 369.197665 136.402266 
L 378.814874 147.069747 
L 386.638817 156.080947 
L 391.848313 162.394671 
L 394.827154 166.32338 
L 396.522459 168.881364 
L 397.645451 170.999637 
L 398.191928 172.488749 
L 398.456148 173.876026 
L 398.451305 175.230704 
L 398.177159 176.620445 
L 397.620018 178.114606 
L 396.752089 179.787556 
L 395.162647 182.257503 
L 392.895223 185.326784 
L 389.028507 190.129933 
L 383.504723 196.631548 
L 375.733267 205.448836 
L 366.979465 215.060255 
L 358.090016 224.48291 
L 350.116909 232.614793 
L 344.10537 238.523617 
L 337.494086 244.779426 
L 330.251914 251.31532 
L 322.355884 258.031448 
L 318.158578 261.41572 
L 313.794683 264.79046 
L 309.265232 268.132321 
L 304.572471 271.415604 
L 299.719962 274.612469 
L 294.712687 277.693252 
L 289.557125 280.626904 
L 284.261308 283.381546 
L 278.834846 285.925133 
L 273.288916 288.22621 
L 267.636213 290.254743 
L 261.890859 291.982993 
L 256.068268 293.386369 
L 250.184972 294.444251 
L 244.258406 295.140704 
L 238.306661 295.465048 
L 232.348218 295.412262 
L 226.401661 294.983165 
L 220.485389 294.184388 
L 214.617338 293.028127 
L 208.814714 291.531693 
L 203.093754 289.716891 
L 197.46953 287.609277 
L 191.955775 285.23732 
L 186.564768 282.631538 
L 181.307251 279.82363 
L 176.192392 276.845669 
L 171.227786 273.729365 
L 166.419485 270.505431 
L 161.772068 267.203058 
L 157.288716 263.849518 
L 148.820614 257.086771 
L 141.016944 250.388467 
L 133.864538 243.886521 
L 127.339085 237.675866 
L 118.654979 229.035912 
L 111.182254 221.29277 
L 102.870621 212.381101 
L 93.323808 201.782867 
L 85.559322 192.832958 
L 80.391488 186.561811 
L 77.438578 182.657892 
L 75.760164 180.114115 
L 74.651169 178.005273 
L 74.114542 176.520743 
L 73.859505 175.135661 
L 73.873324 173.780895 
L 74.156689 172.38878 
L 74.723749 170.889845 
L 75.602793 169.20949 
L 77.208656 166.726048 
L 79.496494 163.637647 
L 83.395168 158.802315 
L 88.962216 152.255929 
L 96.792343 143.378869 
L 105.610089 133.706058 
L 114.562207 124.229128 
L 122.589377 116.056721 
L 128.640185 110.123027 
L 135.293027 103.845928 
L 142.578596 97.294371 
L 150.519192 90.570607 
L 154.738942 87.186346 
L 159.125209 83.814619 
L 163.676801 80.479096 
L 168.391304 77.20578 
L 173.264969 74.022778 
L 178.292616 70.959968 
L 183.46756 68.048545 
L 188.781557 65.320451 
L 194.224785 62.807697 
L 199.78586 60.541601 
L 205.451888 58.551933 
L 211.208563 56.866062 
L 217.04031 55.508088 
L 222.930463 54.49804 
L 228.861484 53.851176 
L 234.815212 53.577432 
L 240.773137 53.68105 
L 246.716681 54.160422 
L 252.627493 55.008147 
L 258.48772 56.211313 
L 264.280274 57.751963 
L 269.989061 59.607742 
L 275.599185 61.752651 
L 281.097099 64.157895 
L 286.470728 66.792748 
L 291.709541 69.625414 
L 296.804582 72.623828 
L 301.748468 75.756379 
L 306.535347 78.992533 
L 311.160836 82.303336 
L 315.621931 85.661799 
L 324.045181 92.425142 
L 331.804461 99.113938 
L 338.913804 105.59887 
L 345.398143 111.787338 
L 354.025079 120.388505 
L 361.44659 128.09052 
L 369.699299 136.949049 
L 379.176057 147.478248 
L 386.881392 156.367153 
L 392.007779 162.595962 
L 394.934884 166.475253 
L 396.596478 169.004931 
L 397.691523 171.104432 
L 398.218325 172.584445 
L 398.464189 173.967394 
L 398.441392 175.322307 
L 398.148795 176.716858 
L 397.57179 178.220635 
L 396.681591 179.908468 
L 395.059235 182.405515 
L 392.75088 185.513167 
L 388.820079 190.380878 
L 383.209534 196.972276 
L 375.320428 205.909362 
L 366.438429 215.643719 
L 357.423379 225.174913 
L 349.341961 233.38768 
L 343.251782 239.346021 
L 336.557306 245.644067 
L 329.228306 252.210802 
L 321.243165 258.941556 
L 317.001007 262.32542 
L 312.592426 265.693711 
L 308.01877 269.022435 
L 303.282627 272.285291 
L 298.387934 275.453911 
L 293.340067 278.498213 
L 288.14592 281.386864 
L 282.813949 284.08787 
L 277.354185 286.569269 
L 271.778223 288.799903 
L 266.099151 290.750269 
L 260.331454 292.393391 
L 254.490865 293.705671 
L 248.594183 294.667682 
L 242.659043 295.264854 
L 236.70367 295.488 
L 230.7466 295.333658 
L 224.806395 294.804224 
L 218.901358 293.90786 
L 213.049252 292.658187 
L 207.267045 291.073795 
L 201.570679 289.177574 
L 195.97488 286.99595 
L 190.493001 284.558027 
L 185.136913 281.894724 
L 179.916937 279.03792 
L 174.841816 276.019657 
L 169.918725 272.871435 
L 165.153313 269.623603 
L 160.549773 266.304872 
L 156.110931 262.941941 
L 147.732464 256.178763 
L 140.017441 249.500044 
L 132.950981 243.032517 
L 126.507546 236.866472 
L 117.937434 228.30423 
L 108.353155 218.293278 
L 98.888062 208.006974 
L 90.462605 198.526608 
L 83.643016 190.553066 
L 79.137838 184.954108 
L 76.599127 181.438038 
L 75.192459 179.113629 
L 74.449093 177.519173 
L 74.004014 176.073902 
L 73.835008 174.705789 
L 73.933633 173.346522 
L 74.304817 171.928217 
L 74.967088 170.380142 
L 75.953473 168.625353 
L 77.718729 166.007864 
L 80.205474 162.730867 
L 84.416216 157.579571 
L 90.406087 150.595526 
L 98.809212 141.137681 
L 108.250072 130.874069 
L 115.233488 123.533384 
L 123.369511 115.280298 
L 129.49929 109.297459 
L 136.235607 102.978751 
L 143.608211 96.397284 
L 151.638016 89.660171 
L 155.902615 86.277093 
L 160.333524 82.912677 
L 164.929235 79.591239 
L 169.686983 76.339375 
L 174.602644 73.185704 
L 179.67064 70.16051 
L 184.883869 67.295249 
L 190.233665 64.621953 
L 195.709781 62.172528 
L 201.30042 59.977956 
L 206.992297 58.067446 
L 212.770749 56.467575 
L 218.619889 55.20142 
L 224.522792 54.287792 
L 230.461727 53.740563 
L 236.418412 53.568165 
L 242.37429 53.773274 
L 248.310817 54.352707 
L 254.209747 55.297546 
L 260.053411 56.593465 
L 265.824965 58.221258 
L 271.50862 60.157508 
L 277.089828 62.375381 
L 282.55543 64.845475 
L 287.89376 67.536696 
L 293.094709 70.417097 
L 298.149747 73.454669 
L 303.051907 76.618037 
L 307.79574 79.877043 
L 312.377243 83.203231 
L 316.793766 86.570194 
L 325.12738 93.332454 
L 332.798141 100.000509 
L 339.821764 106.450197 
L 346.224378 112.593519 
L 354.73783 121.116587 
L 364.255891 131.072787 
L 373.652968 141.295344 
L 382.015753 150.712485 
L 388.782636 158.6315 
L 393.250801 164.193262 
L 395.766261 167.688085 
L 397.157552 170.000662 
L 397.890363 171.588861 
L 398.325868 173.030394 
L 398.485805 174.39711 
L 398.37816 175.757254 
L 397.997558 177.178752 
L 397.324999 178.732489 
L 396.326947 180.495681 
L 394.544279 183.128134 
L 392.035726 186.426048 
L 387.790698 191.61223 
L 381.75434 198.644388 
L 373.288267 208.165687 
L 363.779113 218.493197 
L 356.746867 225.874976 
L 348.555965 234.168268 
L 342.386419 240.175405 
L 335.60812 246.514448 
L 328.191811 253.110165 
L 320.117298 259.852977 
L 315.830262 263.234872 
L 311.377049 266.594969 
L 306.759332 269.908636 
L 301.980051 273.148987 
L 297.043523 276.287155 
L 291.955525 279.292667 
L 286.72337 282.133952 
L 281.355935 284.778951 
L 275.863679 287.195839 
L 270.258605 289.353818 
L 264.554189 291.223981 
L 258.765269 292.78018 
L 252.907885 293.999865 
L 246.999084 294.864855 
L 241.056685 295.361984 
L 235.099025 295.483583 
L 229.144676 295.227762 
L 223.212157 294.59849 
L 217.319654 293.605434 
L 211.484739 292.263613 
L 205.724125 290.592842 
L 200.053444 288.617046 
L 194.487067 286.363454 
L 189.037954 283.861748 
L 183.717567 281.143185 
L 178.5358 278.239763 
L 173.500974 275.183446 
L 168.619847 272.005477 
L 163.897668 268.735808 
L 159.338252 265.40264 
L 154.944076 262.032081 
L 146.655315 255.27148 
L 139.028749 248.614656 
L 132.047849 242.183208 
L 125.68591 236.062872 
L 117.228863 227.579165 
L 107.776663 217.677705 
L 98.447182 207.518675 
L 92.611786 200.976357 
L 92.611786 200.976357 
" style="fill:none;stroke:#ffa500;stroke-linecap:square;stroke-width:1.5;"/>
   </g>
   <g id="patch_3">
    <path d="M 57.6 307.584 
L 57.6 41.472 
" style="fill:none;stroke:#000000;stroke-linecap:square;stroke-linejoin:miter;stroke-width:0.8;"/>
   </g>
   <g id="patch_4">
    <path d="M 414.72 307.584 
L 414.72 41.472 
" style="fill:none;stroke:#000000;stroke-linecap:square;stroke-linejoin:miter;stroke-width:0.8;"/>
   </g>
   <g id="patch_5">
    <path d="M 57.6 307.584 
L 414.72 307.584 
" style="fill:none;stroke:#000000;stroke-linecap:square;stroke-linejoin:miter;stroke-width:0.8;"/>
   </g>
   <g id="patch_6">
    <path d="M 57.6 41.472 
L 414.72 41.472 
" style="fill:none;stroke:#000000;stroke-linecap:square;stroke-linejoin:miter;stroke-width:0.8;"/>
   </g>
   <g id="text_15">
    <!-- Phase Space of Angular Coordinates -->
    <defs>
     <path d="M 19.671875 64.796875 
L 19.671875 37.40625 
L 32.078125 37.40625 
Q 38.96875 37.40625 42.71875 40.96875 
Q 46.484375 44.53125 46.484375 51.125 
Q 46.484375 57.671875 42.71875 61.234375 
Q 38.96875 64.796875 32.078125 64.796875 
z
M 9.8125 72.90625 
L 32.078125 72.90625 
Q 44.34375 72.90625 50.609375 67.359375 
Q 56.890625 61.8125 56.890625 51.125 
Q 56.890625 40.328125 50.609375 34.8125 
Q 44.34375 29.296875 32.078125 29.296875 
L 19.671875 29.296875 
L 19.671875 0 
L 9.8125 0 
z
" id="DejaVuSans-80"/>
     <path d="M 54.890625 33.015625 
L 54.890625 0 
L 45.90625 0 
L 45.90625 32.71875 
Q 45.90625 40.484375 42.875 44.328125 
Q 39.84375 48.1875 33.796875 48.1875 
Q 26.515625 48.1875 22.3125 43.546875 
Q 18.109375 38.921875 18.109375 30.90625 
L 18.109375 0 
L 9.078125 0 
L 9.078125 75.984375 
L 18.109375 75.984375 
L 18.109375 46.1875 
Q 21.34375 51.125 25.703125 53.5625 
Q 30.078125 56 35.796875 56 
Q 45.21875 56 50.046875 50.171875 
Q 54.890625 44.34375 54.890625 33.015625 
z
" id="DejaVuSans-104"/>
     <path d="M 34.28125 27.484375 
Q 23.390625 27.484375 19.1875 25 
Q 14.984375 22.515625 14.984375 16.5 
Q 14.984375 11.71875 18.140625 8.90625 
Q 21.296875 6.109375 26.703125 6.109375 
Q 34.1875 6.109375 38.703125 11.40625 
Q 43.21875 16.703125 43.21875 25.484375 
L 43.21875 27.484375 
z
M 52.203125 31.203125 
L 52.203125 0 
L 43.21875 0 
L 43.21875 8.296875 
Q 40.140625 3.328125 35.546875 0.953125 
Q 30.953125 -1.421875 24.3125 -1.421875 
Q 15.921875 -1.421875 10.953125 3.296875 
Q 6 8.015625 6 15.921875 
Q 6 25.140625 12.171875 29.828125 
Q 18.359375 34.515625 30.609375 34.515625 
L 43.21875 34.515625 
L 43.21875 35.40625 
Q 43.21875 41.609375 39.140625 45 
Q 35.0625 48.390625 27.6875 48.390625 
Q 23 48.390625 18.546875 47.265625 
Q 14.109375 46.140625 10.015625 43.890625 
L 10.015625 52.203125 
Q 14.9375 54.109375 19.578125 55.046875 
Q 24.21875 56 28.609375 56 
Q 40.484375 56 46.34375 49.84375 
Q 52.203125 43.703125 52.203125 31.203125 
z
" id="DejaVuSans-97"/>
     <path d="M 44.28125 53.078125 
L 44.28125 44.578125 
Q 40.484375 46.53125 36.375 47.5 
Q 32.28125 48.484375 27.875 48.484375 
Q 21.1875 48.484375 17.84375 46.4375 
Q 14.5 44.390625 14.5 40.28125 
Q 14.5 37.15625 16.890625 35.375 
Q 19.28125 33.59375 26.515625 31.984375 
L 29.59375 31.296875 
Q 39.15625 29.25 43.1875 25.515625 
Q 47.21875 21.78125 47.21875 15.09375 
Q 47.21875 7.46875 41.1875 3.015625 
Q 35.15625 -1.421875 24.609375 -1.421875 
Q 20.21875 -1.421875 15.453125 -0.5625 
Q 10.6875 0.296875 5.421875 2 
L 5.421875 11.28125 
Q 10.40625 8.6875 15.234375 7.390625 
Q 20.0625 6.109375 24.8125 6.109375 
Q 31.15625 6.109375 34.5625 8.28125 
Q 37.984375 10.453125 37.984375 14.40625 
Q 37.984375 18.0625 35.515625 20.015625 
Q 33.0625 21.96875 24.703125 23.78125 
L 21.578125 24.515625 
Q 13.234375 26.265625 9.515625 29.90625 
Q 5.8125 33.546875 5.8125 39.890625 
Q 5.8125 47.609375 11.28125 51.796875 
Q 16.75 56 26.8125 56 
Q 31.78125 56 36.171875 55.265625 
Q 40.578125 54.546875 44.28125 53.078125 
z
" id="DejaVuSans-115"/>
     <path d="M 56.203125 29.59375 
L 56.203125 25.203125 
L 14.890625 25.203125 
Q 15.484375 15.921875 20.484375 11.0625 
Q 25.484375 6.203125 34.421875 6.203125 
Q 39.59375 6.203125 44.453125 7.46875 
Q 49.3125 8.734375 54.109375 11.28125 
L 54.109375 2.78125 
Q 49.265625 0.734375 44.1875 -0.34375 
Q 39.109375 -1.421875 33.890625 -1.421875 
Q 20.796875 -1.421875 13.15625 6.1875 
Q 5.515625 13.8125 5.515625 26.8125 
Q 5.515625 40.234375 12.765625 48.109375 
Q 20.015625 56 32.328125 56 
Q 43.359375 56 49.78125 48.890625 
Q 56.203125 41.796875 56.203125 29.59375 
z
M 47.21875 32.234375 
Q 47.125 39.59375 43.09375 43.984375 
Q 39.0625 48.390625 32.421875 48.390625 
Q 24.90625 48.390625 20.390625 44.140625 
Q 15.875 39.890625 15.1875 32.171875 
z
" id="DejaVuSans-101"/>
     <path id="DejaVuSans-32"/>
     <path d="M 53.515625 70.515625 
L 53.515625 60.890625 
Q 47.90625 63.578125 42.921875 64.890625 
Q 37.9375 66.21875 33.296875 66.21875 
Q 25.25 66.21875 20.875 63.09375 
Q 16.5 59.96875 16.5 54.203125 
Q 16.5 49.359375 19.40625 46.890625 
Q 22.3125 44.4375 30.421875 42.921875 
L 36.375 41.703125 
Q 47.40625 39.59375 52.65625 34.296875 
Q 57.90625 29 57.90625 20.125 
Q 57.90625 9.515625 50.796875 4.046875 
Q 43.703125 -1.421875 29.984375 -1.421875 
Q 24.8125 -1.421875 18.96875 -0.25 
Q 13.140625 0.921875 6.890625 3.21875 
L 6.890625 13.375 
Q 12.890625 10.015625 18.65625 8.296875 
Q 24.421875 6.59375 29.984375 6.59375 
Q 38.421875 6.59375 43.015625 9.90625 
Q 47.609375 13.234375 47.609375 19.390625 
Q 47.609375 24.75 44.3125 27.78125 
Q 41.015625 30.8125 33.5 32.328125 
L 27.484375 33.5 
Q 16.453125 35.6875 11.515625 40.375 
Q 6.59375 45.0625 6.59375 53.421875 
Q 6.59375 63.09375 13.40625 68.65625 
Q 20.21875 74.21875 32.171875 74.21875 
Q 37.3125 74.21875 42.625 73.28125 
Q 47.953125 72.359375 53.515625 70.515625 
z
" id="DejaVuSans-83"/>
     <path d="M 18.109375 8.203125 
L 18.109375 -20.796875 
L 9.078125 -20.796875 
L 9.078125 54.6875 
L 18.109375 54.6875 
L 18.109375 46.390625 
Q 20.953125 51.265625 25.265625 53.625 
Q 29.59375 56 35.59375 56 
Q 45.5625 56 51.78125 48.09375 
Q 58.015625 40.1875 58.015625 27.296875 
Q 58.015625 14.40625 51.78125 6.484375 
Q 45.5625 -1.421875 35.59375 -1.421875 
Q 29.59375 -1.421875 25.265625 0.953125 
Q 20.953125 3.328125 18.109375 8.203125 
z
M 48.6875 27.296875 
Q 48.6875 37.203125 44.609375 42.84375 
Q 40.53125 48.484375 33.40625 48.484375 
Q 26.265625 48.484375 22.1875 42.84375 
Q 18.109375 37.203125 18.109375 27.296875 
Q 18.109375 17.390625 22.1875 11.75 
Q 26.265625 6.109375 33.40625 6.109375 
Q 40.53125 6.109375 44.609375 11.75 
Q 48.6875 17.390625 48.6875 27.296875 
z
" id="DejaVuSans-112"/>
     <path d="M 48.78125 52.59375 
L 48.78125 44.1875 
Q 44.96875 46.296875 41.140625 47.34375 
Q 37.3125 48.390625 33.40625 48.390625 
Q 24.65625 48.390625 19.8125 42.84375 
Q 14.984375 37.3125 14.984375 27.296875 
Q 14.984375 17.28125 19.8125 11.734375 
Q 24.65625 6.203125 33.40625 6.203125 
Q 37.3125 6.203125 41.140625 7.25 
Q 44.96875 8.296875 48.78125 10.40625 
L 48.78125 2.09375 
Q 45.015625 0.34375 40.984375 -0.53125 
Q 36.96875 -1.421875 32.421875 -1.421875 
Q 20.0625 -1.421875 12.78125 6.34375 
Q 5.515625 14.109375 5.515625 27.296875 
Q 5.515625 40.671875 12.859375 48.328125 
Q 20.21875 56 33.015625 56 
Q 37.15625 56 41.109375 55.140625 
Q 45.0625 54.296875 48.78125 52.59375 
z
" id="DejaVuSans-99"/>
     <path d="M 30.609375 48.390625 
Q 23.390625 48.390625 19.1875 42.75 
Q 14.984375 37.109375 14.984375 27.296875 
Q 14.984375 17.484375 19.15625 11.84375 
Q 23.34375 6.203125 30.609375 6.203125 
Q 37.796875 6.203125 41.984375 11.859375 
Q 46.1875 17.53125 46.1875 27.296875 
Q 46.1875 37.015625 41.984375 42.703125 
Q 37.796875 48.390625 30.609375 48.390625 
z
M 30.609375 56 
Q 42.328125 56 49.015625 48.375 
Q 55.71875 40.765625 55.71875 27.296875 
Q 55.71875 13.875 49.015625 6.21875 
Q 42.328125 -1.421875 30.609375 -1.421875 
Q 18.84375 -1.421875 12.171875 6.21875 
Q 5.515625 13.875 5.515625 27.296875 
Q 5.515625 40.765625 12.171875 48.375 
Q 18.84375 56 30.609375 56 
z
" id="DejaVuSans-111"/>
     <path d="M 37.109375 75.984375 
L 37.109375 68.5 
L 28.515625 68.5 
Q 23.6875 68.5 21.796875 66.546875 
Q 19.921875 64.59375 19.921875 59.515625 
L 19.921875 54.6875 
L 34.71875 54.6875 
L 34.71875 47.703125 
L 19.921875 47.703125 
L 19.921875 0 
L 10.890625 0 
L 10.890625 47.703125 
L 2.296875 47.703125 
L 2.296875 54.6875 
L 10.890625 54.6875 
L 10.890625 58.5 
Q 10.890625 67.625 15.140625 71.796875 
Q 19.390625 75.984375 28.609375 75.984375 
z
" id="DejaVuSans-102"/>
     <path d="M 34.1875 63.1875 
L 20.796875 26.90625 
L 47.609375 26.90625 
z
M 28.609375 72.90625 
L 39.796875 72.90625 
L 67.578125 0 
L 57.328125 0 
L 50.6875 18.703125 
L 17.828125 18.703125 
L 11.1875 0 
L 0.78125 0 
z
" id="DejaVuSans-65"/>
     <path d="M 54.890625 33.015625 
L 54.890625 0 
L 45.90625 0 
L 45.90625 32.71875 
Q 45.90625 40.484375 42.875 44.328125 
Q 39.84375 48.1875 33.796875 48.1875 
Q 26.515625 48.1875 22.3125 43.546875 
Q 18.109375 38.921875 18.109375 30.90625 
L 18.109375 0 
L 9.078125 0 
L 9.078125 54.6875 
L 18.109375 54.6875 
L 18.109375 46.1875 
Q 21.34375 51.125 25.703125 53.5625 
Q 30.078125 56 35.796875 56 
Q 45.21875 56 50.046875 50.171875 
Q 54.890625 44.34375 54.890625 33.015625 
z
" id="DejaVuSans-110"/>
     <path d="M 45.40625 27.984375 
Q 45.40625 37.75 41.375 43.109375 
Q 37.359375 48.484375 30.078125 48.484375 
Q 22.859375 48.484375 18.828125 43.109375 
Q 14.796875 37.75 14.796875 27.984375 
Q 14.796875 18.265625 18.828125 12.890625 
Q 22.859375 7.515625 30.078125 7.515625 
Q 37.359375 7.515625 41.375 12.890625 
Q 45.40625 18.265625 45.40625 27.984375 
z
M 54.390625 6.78125 
Q 54.390625 -7.171875 48.1875 -13.984375 
Q 42 -20.796875 29.203125 -20.796875 
Q 24.46875 -20.796875 20.265625 -20.09375 
Q 16.0625 -19.390625 12.109375 -17.921875 
L 12.109375 -9.1875 
Q 16.0625 -11.328125 19.921875 -12.34375 
Q 23.78125 -13.375 27.78125 -13.375 
Q 36.625 -13.375 41.015625 -8.765625 
Q 45.40625 -4.15625 45.40625 5.171875 
L 45.40625 9.625 
Q 42.625 4.78125 38.28125 2.390625 
Q 33.9375 0 27.875 0 
Q 17.828125 0 11.671875 7.65625 
Q 5.515625 15.328125 5.515625 27.984375 
Q 5.515625 40.671875 11.671875 48.328125 
Q 17.828125 56 27.875 56 
Q 33.9375 56 38.28125 53.609375 
Q 42.625 51.21875 45.40625 46.390625 
L 45.40625 54.6875 
L 54.390625 54.6875 
z
" id="DejaVuSans-103"/>
     <path d="M 8.5 21.578125 
L 8.5 54.6875 
L 17.484375 54.6875 
L 17.484375 21.921875 
Q 17.484375 14.15625 20.5 10.265625 
Q 23.53125 6.390625 29.59375 6.390625 
Q 36.859375 6.390625 41.078125 11.03125 
Q 45.3125 15.671875 45.3125 23.6875 
L 45.3125 54.6875 
L 54.296875 54.6875 
L 54.296875 0 
L 45.3125 0 
L 45.3125 8.40625 
Q 42.046875 3.421875 37.71875 1 
Q 33.40625 -1.421875 27.6875 -1.421875 
Q 18.265625 -1.421875 13.375 4.4375 
Q 8.5 10.296875 8.5 21.578125 
z
M 31.109375 56 
z
" id="DejaVuSans-117"/>
     <path d="M 9.421875 75.984375 
L 18.40625 75.984375 
L 18.40625 0 
L 9.421875 0 
z
" id="DejaVuSans-108"/>
     <path d="M 41.109375 46.296875 
Q 39.59375 47.171875 37.8125 47.578125 
Q 36.03125 48 33.890625 48 
Q 26.265625 48 22.1875 43.046875 
Q 18.109375 38.09375 18.109375 28.8125 
L 18.109375 0 
L 9.078125 0 
L 9.078125 54.6875 
L 18.109375 54.6875 
L 18.109375 46.1875 
Q 20.953125 51.171875 25.484375 53.578125 
Q 30.03125 56 36.53125 56 
Q 37.453125 56 38.578125 55.875 
Q 39.703125 55.765625 41.0625 55.515625 
z
" id="DejaVuSans-114"/>
     <path d="M 64.40625 67.28125 
L 64.40625 56.890625 
Q 59.421875 61.53125 53.78125 63.8125 
Q 48.140625 66.109375 41.796875 66.109375 
Q 29.296875 66.109375 22.65625 58.46875 
Q 16.015625 50.828125 16.015625 36.375 
Q 16.015625 21.96875 22.65625 14.328125 
Q 29.296875 6.6875 41.796875 6.6875 
Q 48.140625 6.6875 53.78125 8.984375 
Q 59.421875 11.28125 64.40625 15.921875 
L 64.40625 5.609375 
Q 59.234375 2.09375 53.4375 0.328125 
Q 47.65625 -1.421875 41.21875 -1.421875 
Q 24.65625 -1.421875 15.125 8.703125 
Q 5.609375 18.84375 5.609375 36.375 
Q 5.609375 53.953125 15.125 64.078125 
Q 24.65625 74.21875 41.21875 74.21875 
Q 47.75 74.21875 53.53125 72.484375 
Q 59.328125 70.75 64.40625 67.28125 
z
" id="DejaVuSans-67"/>
     <path d="M 45.40625 46.390625 
L 45.40625 75.984375 
L 54.390625 75.984375 
L 54.390625 0 
L 45.40625 0 
L 45.40625 8.203125 
Q 42.578125 3.328125 38.25 0.953125 
Q 33.9375 -1.421875 27.875 -1.421875 
Q 17.96875 -1.421875 11.734375 6.484375 
Q 5.515625 14.40625 5.515625 27.296875 
Q 5.515625 40.1875 11.734375 48.09375 
Q 17.96875 56 27.875 56 
Q 33.9375 56 38.25 53.625 
Q 42.578125 51.265625 45.40625 46.390625 
z
M 14.796875 27.296875 
Q 14.796875 17.390625 18.875 11.75 
Q 22.953125 6.109375 30.078125 6.109375 
Q 37.203125 6.109375 41.296875 11.75 
Q 45.40625 17.390625 45.40625 27.296875 
Q 45.40625 37.203125 41.296875 42.84375 
Q 37.203125 48.484375 30.078125 48.484375 
Q 22.953125 48.484375 18.875 42.84375 
Q 14.796875 37.203125 14.796875 27.296875 
z
" id="DejaVuSans-100"/>
     <path d="M 9.421875 54.6875 
L 18.40625 54.6875 
L 18.40625 0 
L 9.421875 0 
z
M 9.421875 75.984375 
L 18.40625 75.984375 
L 18.40625 64.59375 
L 9.421875 64.59375 
z
" id="DejaVuSans-105"/>
    </defs>
    <g transform="translate(127.096875 35.472)scale(0.12 -0.12)">
     <use xlink:href="#DejaVuSans-80"/>
     <use x="60.302734" xlink:href="#DejaVuSans-104"/>
     <use x="123.681641" xlink:href="#DejaVuSans-97"/>
     <use x="184.960938" xlink:href="#DejaVuSans-115"/>
     <use x="237.060547" xlink:href="#DejaVuSans-101"/>
     <use x="298.583984" xlink:href="#DejaVuSans-32"/>
     <use x="330.371094" xlink:href="#DejaVuSans-83"/>
     <use x="393.847656" xlink:href="#DejaVuSans-112"/>
     <use x="457.324219" xlink:href="#DejaVuSans-97"/>
     <use x="518.603516" xlink:href="#DejaVuSans-99"/>
     <use x="573.583984" xlink:href="#DejaVuSans-101"/>
     <use x="635.107422" xlink:href="#DejaVuSans-32"/>
     <use x="666.894531" xlink:href="#DejaVuSans-111"/>
     <use x="728.076172" xlink:href="#DejaVuSans-102"/>
     <use x="763.28125" xlink:href="#DejaVuSans-32"/>
     <use x="795.068359" xlink:href="#DejaVuSans-65"/>
     <use x="863.476562" xlink:href="#DejaVuSans-110"/>
     <use x="926.855469" xlink:href="#DejaVuSans-103"/>
     <use x="990.332031" xlink:href="#DejaVuSans-117"/>
     <use x="1053.710938" xlink:href="#DejaVuSans-108"/>
     <use x="1081.494141" xlink:href="#DejaVuSans-97"/>
     <use x="1142.773438" xlink:href="#DejaVuSans-114"/>
     <use x="1183.886719" xlink:href="#DejaVuSans-32"/>
     <use x="1215.673828" xlink:href="#DejaVuSans-67"/>
     <use x="1285.498047" xlink:href="#DejaVuSans-111"/>
     <use x="1346.679688" xlink:href="#DejaVuSans-111"/>
     <use x="1407.861328" xlink:href="#DejaVuSans-114"/>
     <use x="1448.958984" xlink:href="#DejaVuSans-100"/>
     <use x="1512.435547" xlink:href="#DejaVuSans-105"/>
     <use x="1540.21875" xlink:href="#DejaVuSans-110"/>
     <use x="1603.597656" xlink:href="#DejaVuSans-97"/>
     <use x="1664.876953" xlink:href="#DejaVuSans-116"/>
     <use x="1704.085938" xlink:href="#DejaVuSans-101"/>
     <use x="1765.609375" xlink:href="#DejaVuSans-115"/>
    </g>
   </g>
   <g id="legend_1">
    <g id="patch_7">
     <path d="M 322.02 64.150125 
L 407.72 64.150125 
Q 409.72 64.150125 409.72 62.150125 
L 409.72 48.472 
Q 409.72 46.472 407.72 46.472 
L 322.02 46.472 
Q 320.02 46.472 320.02 48.472 
L 320.02 62.150125 
Q 320.02 64.150125 322.02 64.150125 
z
" style="fill:#ffffff;opacity:0.8;stroke:#cccccc;stroke-linejoin:miter;"/>
    </g>
    <g id="line2d_26">
     <path d="M 324.02 54.570438 
L 344.02 54.570438 
" style="fill:none;stroke:#ffa500;stroke-linecap:square;stroke-width:1.5;"/>
    </g>
    <g id="line2d_27"/>
    <g id="text_16">
     <!-- $\Gamma(t) = \omega(\Theta) $ -->
     <defs>
      <path d="M 9.8125 0 
L 9.8125 72.90625 
L 55.171875 72.90625 
L 55.171875 64.59375 
L 19.671875 64.59375 
L 19.671875 0 
z
" id="DejaVuSans-915"/>
      <path d="M 42.28125 54.6875 
L 40.921875 47.703125 
L 23 47.703125 
L 17.1875 18.015625 
Q 16.890625 16.359375 16.75 15.234375 
Q 16.609375 14.109375 16.609375 13.484375 
Q 16.609375 10.359375 18.484375 8.9375 
Q 20.359375 7.515625 24.515625 7.515625 
L 33.59375 7.515625 
L 32.078125 0 
L 23.484375 0 
Q 15.484375 0 11.546875 3.125 
Q 7.625 6.25 7.625 12.59375 
Q 7.625 13.71875 7.765625 15.0625 
Q 7.90625 16.40625 8.203125 18.015625 
L 14.015625 47.703125 
L 6.390625 47.703125 
L 7.8125 54.6875 
L 15.28125 54.6875 
L 18.3125 70.21875 
L 27.296875 70.21875 
L 24.3125 54.6875 
z
" id="DejaVuSans-Oblique-116"/>
      <path d="M 10.59375 45.40625 
L 73.1875 45.40625 
L 73.1875 37.203125 
L 10.59375 37.203125 
z
M 10.59375 25.484375 
L 73.1875 25.484375 
L 73.1875 17.1875 
L 10.59375 17.1875 
z
" id="DejaVuSans-61"/>
     </defs>
     <g transform="translate(352.02 58.070438)scale(0.1 -0.1)">
      <use transform="translate(0 0.125)" xlink:href="#DejaVuSans-915"/>
      <use transform="translate(55.712891 0.125)" xlink:href="#DejaVuSans-40"/>
      <use transform="translate(94.726562 0.125)" xlink:href="#DejaVuSans-Oblique-116"/>
      <use transform="translate(133.935547 0.125)" xlink:href="#DejaVuSans-41"/>
      <use transform="translate(192.431641 0.125)" xlink:href="#DejaVuSans-61"/>
      <use transform="translate(295.703125 0.125)" xlink:href="#DejaVuSans-Oblique-969"/>
      <use transform="translate(379.443359 0.125)" xlink:href="#DejaVuSans-40"/>
      <use transform="translate(418.457031 0.125)" xlink:href="#DejaVuSans-920"/>
      <use transform="translate(497.167969 0.125)" xlink:href="#DejaVuSans-41"/>
     </g>
    </g>
   </g>
  </g>
 </g>
 <defs>
  <clipPath id="p07a40d3481">
   <rect height="266.112" width="357.12" x="57.6" y="41.472"/>
  </clipPath>
 </defs>
</svg>
